<svg width="1296" height="387" viewBox="0 0 1296 387" fill="none" xmlns="http://www.w3.org/2000/svg">
<path fill-rule="evenodd" clip-rule="evenodd" d="M384.723 172.552C388.048 166.674 390.184 162.368 389.977 161.207C389.716 159.613 386.562 163.614 382.333 169.67C379.675 166.489 376.843 163.146 373.988 159.788C375.502 156.035 376.936 152.424 378.208 149.123C387.246 156.196 394.863 161.952 394.525 160.04C394.248 158.361 387.961 152.427 379.719 145.118C381.998 138.942 383.372 134.451 382.965 133.307C382.449 131.851 380.032 136.158 376.91 142.634C373.725 139.838 370.338 136.9 366.929 133.948C367.797 129.976 368.612 126.168 369.314 122.711C379.345 128.36 387.768 132.888 387.088 130.973C386.54 129.424 379.425 124.557 370.123 118.589C371.295 112.411 371.905 107.977 371.407 106.952C370.651 105.65 369.042 110.053 367.091 116.654C363.46 114.345 359.591 111.918 355.698 109.482C355.897 105.424 356.06 101.539 356.16 98.0304C367.05 102.156 376.145 105.383 375.125 103.462C374.298 102.043 366.443 98.2919 356.248 93.7849C356.32 87.7361 356.095 83.4438 355.321 82.5325C354.453 81.3721 353.658 85.7404 352.882 92.3062C348.861 90.5489 344.583 88.7093 340.285 86.8675C339.794 82.8447 339.298 79.0017 338.809 75.557C350.442 78.0006 360.235 79.8935 359.028 78.2751C357.909 76.8278 349.239 74.178 338.147 71.1581C337.24 65.4819 336.35 61.5414 335.502 60.8352C334.543 59.8208 334.495 63.9646 334.8 70.255C330.44 69.0869 325.804 67.8775 321.167 66.6714C320.024 62.7826 318.909 59.0866 317.868 55.7936C330.036 56.4852 340.386 56.8938 338.807 55.4104C337.523 54.2043 328.253 52.9072 316.508 51.5971C314.758 46.3913 313.31 42.8363 312.4 42.2389C311.218 41.3523 311.761 45.2567 313.037 51.2176C308.518 50.7306 303.731 50.2434 298.955 49.7596C297.23 46.2003 295.567 42.8197 294.037 39.8017C306.332 38.6865 316.824 37.5922 314.87 36.4255C313.432 35.3452 303.926 35.3935 291.977 35.8161C289.4 30.9397 287.39 27.6312 286.395 27.1215C285.102 26.4596 286.294 30.2422 288.547 35.9448C283.993 36.1245 279.191 36.3437 274.399 36.568C272.081 33.2752 269.866 30.1609 267.843 27.3971C279.955 24.4255 290.427 21.7585 288.458 20.9189C286.85 20.0977 277.228 21.6552 265.258 23.9213C261.935 19.5357 259.416 16.6104 258.335 16.2729C256.939 15.8342 258.74 19.3716 261.868 24.5692C257.353 25.4401 252.606 26.382 247.876 27.3207C244.997 24.3856 242.27 21.6439 239.783 19.2003C251.503 14.3552 261.755 9.97828 259.572 9.29203C257.787 8.73497 248.215 11.8572 236.489 16.0172C232.599 12.3282 229.68 9.84642 228.624 9.68065C227.256 9.46589 229.537 12.5882 233.354 17.134C229.086 18.6638 224.617 20.2908 220.175 21.9076C216.94 19.4792 213.887 17.2186 211.099 15.2024C222.009 8.60742 231.649 2.6637 229.445 2.32301C227.647 2.04043 218.58 6.68592 207.541 12.6727C202.966 9.47289 199.572 7.35817 198.491 7.35817C196.974 7.35817 199.86 10.2323 204.558 14.2965C200.604 16.4564 196.498 18.7191 192.392 20.9825C188.805 19.0906 185.414 17.3283 182.309 15.7562C192.073 7.47604 200.717 0 198.491 0C196.526 0 188.103 6.01044 178.001 13.6194C172.844 11.1123 169.052 9.51002 167.96 9.68172C166.549 9.90293 169.888 12.3218 175.265 15.6921C171.755 18.3553 168.131 21.1278 164.512 23.9018C160.764 22.5896 157.168 21.3523 153.905 20.2704C162.301 10.6559 169.774 1.97316 167.543 2.32355C165.578 2.60396 158.288 9.81682 149.592 18.8769C143.659 17.0077 139.383 15.9144 138.24 16.2734C136.906 16.7276 140.935 18.7596 147.149 21.4346C144.194 24.5347 141.148 27.7545 138.101 30.98C134.093 30.2082 130.256 29.4887 126.763 28.8725C133.41 18.1697 139.223 8.60095 137.006 9.29257C135.199 9.85987 129.271 17.9602 122.235 28.1044C115.838 27.0671 111.253 26.5735 110.184 27.1215C108.819 27.8201 113.336 29.2932 120.179 31.0819C117.772 34.5803 115.275 38.2409 112.793 41.8766C108.872 41.7087 105.119 41.5677 101.665 41.4735C106.446 30.0458 110.551 19.8861 108.531 20.9194C106.731 21.623 102.142 30.388 96.8182 41.3722C90.0255 41.2841 85.1868 41.4859 84.1849 42.2382C82.9113 43.0752 87.8904 43.8374 95.2677 44.5834C93.4543 48.3676 91.5816 52.3297 89.7206 56.2705C85.7576 56.6957 81.9569 57.1215 78.4698 57.5451C81.2376 45.598 83.5354 35.0518 81.7077 36.4243C80.2186 37.4028 77.2215 46.6114 73.8323 58.1334C66.9055 59.0613 61.9912 59.9715 61.0729 60.8343C59.9002 61.8133 65.1929 61.7875 72.8722 61.4167C71.7109 65.4124 70.5211 69.5978 69.3347 73.7706C65.4892 74.7632 61.7837 75.7357 58.3859 76.6593C59.2171 64.5081 59.8132 53.878 58.1841 55.4094C56.8602 56.6549 55.4301 66.1014 53.9892 77.88C46.9644 79.8752 41.9997 81.5454 41.2637 82.532C40.3374 83.7775 45.8061 82.9814 53.5582 81.4598C53.0766 85.5192 52.5953 89.7621 52.1166 93.9968C48.414 95.576 44.8454 97.1142 41.5852 98.5552C40.3843 86.6716 39.2088 76.4236 37.9581 78.274C36.797 79.639 36.864 88.8832 37.3283 100.464C30.7236 103.477 26.1057 105.863 25.5794 106.952C24.7793 108.326 30.0547 106.707 37.4796 104.036C37.6613 108.07 37.8768 112.296 38.0952 116.525C34.6671 118.63 31.3586 120.679 28.3393 122.586C25.2802 111.268 22.5096 101.651 21.4544 103.461C20.7436 105.066 22.3329 113.892 24.6423 124.947C18.4097 128.975 14.0467 132.097 13.6185 133.306C13.2156 134.819 18.365 132.361 25.4041 128.551C26.2352 132.463 27.131 136.567 28.0292 140.676C24.9673 143.304 22.0091 145.865 19.325 148.239C14.5642 137.771 10.4197 129.024 9.90208 130.971C9.34209 132.551 12.2028 140.739 16.1794 151.056C10.6575 156.049 6.81499 159.887 6.59947 161.205C6.32779 162.739 11.0857 159.423 17.5201 154.518C18.9868 158.27 20.5567 162.223 22.1352 166.186C19.4654 169.304 16.8907 172.333 14.5648 175.124C8.23702 165.68 2.81598 157.956 2.47437 160.038C2.19753 161.597 6.27506 169.069 11.797 178.482C7.23225 184.084 4.12567 188.285 4.12567 189.493C4.12567 191.005 8.17283 187.19 13.6162 181.568C15.7404 185.149 18.0102 188.929 20.2966 192.725C18.1947 196.181 16.1794 199.525 14.3659 202.603C6.59087 194.233 0 187.42 0 189.495C0 191.174 5.21929 197.972 12.1438 206.425C8.66518 212.497 6.3897 216.984 6.59947 218.173C6.86256 219.667 10.1205 215.463 14.4525 209.237C17.1366 212.481 19.9939 215.895 22.8763 219.329C21.3706 223.076 19.9377 226.686 18.6613 229.994C9.69402 222.937 2.1322 217.26 2.4738 219.329C2.74835 220.874 8.96953 226.714 17.1499 233.958C14.7821 240.295 13.3073 244.909 13.6179 246.074C14.1384 247.422 16.5984 242.919 19.7835 236.284C23.0162 239.121 26.4558 242.108 29.9286 245.115C29.0695 249.031 28.2635 252.791 27.5723 256.221C17.5866 250.6 9.22401 246.109 9.90151 248.018C10.313 249.569 17.4128 254.456 26.7499 260.442C25.5576 266.806 24.9753 271.385 25.5801 272.428C26.2208 273.752 27.8217 269.187 29.7974 262.388C33.4302 264.694 37.3036 267.117 41.1994 269.548C40.9897 273.64 40.8073 277.56 40.6847 281.103C29.7612 277.011 20.6043 273.772 21.4549 275.529C22.286 277.085 30.2541 280.904 40.5586 285.449C40.4326 291.574 40.5809 295.92 41.2637 296.836C42.1366 298.007 42.9711 293.548 43.7994 286.871C47.8379 288.632 52.1309 290.47 56.4441 292.312C56.9112 296.332 57.3818 300.177 57.8489 303.628C46.2737 301.174 36.5871 299.329 37.9588 301.104C38.9326 302.407 47.466 304.948 58.4617 307.887C59.3431 313.68 60.219 317.742 61.0729 318.544C62.1591 319.448 62.2904 315.198 62.0272 308.832C66.3261 309.964 70.8909 311.136 75.4635 312.311C76.6024 316.228 77.7081 319.959 78.741 323.29C66.7427 322.564 56.6229 322.111 58.1848 323.579C59.4497 324.771 68.5064 326.051 80.0312 327.344C81.7913 332.719 83.258 336.445 84.1844 337.139C85.3765 337.923 84.8085 333.848 83.5126 327.728C87.9931 328.213 92.7451 328.698 97.4921 329.181C99.2667 332.847 100.976 336.323 102.549 339.41C90.3556 340.521 79.9445 341.631 81.7077 342.954C83.1434 343.897 92.6255 343.76 104.567 343.296C107.159 348.165 109.182 351.441 110.184 351.867C111.472 352.525 110.302 348.792 108.083 343.154C112.658 342.962 117.489 342.735 122.311 342.511C124.634 345.817 126.856 348.944 128.88 351.713C116.778 354.696 106.387 357.448 108.53 358.458C110.131 359.278 119.697 357.686 131.594 355.369C134.835 359.645 137.262 362.467 138.241 362.716C139.613 363.148 137.93 359.742 134.958 354.708C139.397 353.828 144.065 352.874 148.714 351.924C151.504 354.793 154.148 357.474 156.575 359.882C144.947 364.69 134.835 369.014 137.006 369.697C138.775 370.248 148.226 367.192 159.866 363.094C163.866 366.932 166.88 369.527 167.96 369.697C169.357 369.915 166.986 366.661 163.062 361.962C167.383 360.424 171.914 358.785 176.421 357.154C179.669 359.559 182.743 361.799 185.559 363.799C174.68 370.387 165.158 376.321 167.543 376.665C169.34 376.948 178.382 372.369 189.378 366.464C193.932 369.577 197.334 371.63 198.491 371.63C199.882 371.63 197.026 368.82 192.403 364.831C196.282 362.731 200.301 360.533 204.327 358.333C207.871 360.225 211.222 361.983 214.292 363.557C204.607 371.692 196.104 379 198.491 379C200.291 379 208.471 373.109 218.387 365.615C223.648 368.207 227.519 369.87 228.624 369.697C230.049 369.473 226.601 366.991 221.104 363.554C224.687 360.829 228.403 357.98 232.123 355.131C235.93 356.456 239.582 357.709 242.887 358.798C234.569 368.381 227.224 377.016 229.445 376.667C231.26 376.381 238.526 369.203 247.228 360.194C253.035 362.013 257.21 363.069 258.335 362.716C259.793 362.375 255.789 360.414 249.556 357.774C252.584 354.62 255.71 351.338 258.836 348.054C262.722 348.805 266.443 349.506 269.837 350.108C263.18 360.793 257.349 370.389 259.572 369.697C261.377 369.13 267.358 361.033 274.441 350.892C280.788 351.924 285.329 352.414 286.395 351.868C287.762 351.286 283.237 349.857 276.394 348.084C278.832 344.568 281.361 340.883 283.87 337.223C287.911 337.405 291.78 337.562 295.314 337.673C290.559 349.215 286.433 359.495 288.456 358.458C290.105 357.612 294.634 348.799 299.932 337.796C306.631 337.926 311.404 337.792 312.4 337.139C313.662 336.191 308.761 335.35 301.485 334.553C303.304 330.744 305.183 326.758 307.046 322.795C310.998 322.386 314.788 321.979 318.257 321.579C315.428 333.552 313.04 344.155 314.872 342.954C316.508 341.837 319.539 332.559 322.937 321.016C329.83 320.144 334.689 319.308 335.504 318.544C336.667 317.451 331.479 317.384 323.906 317.701C325.059 313.732 326.24 309.58 327.412 305.444C331.302 304.455 335.039 303.486 338.458 302.569C337.689 314.601 337.188 325.103 338.809 323.579C340.129 322.338 341.554 313.002 342.989 301.328C349.81 299.409 354.595 297.806 355.321 296.836C356.37 295.603 351.047 296.377 343.409 297.865C343.897 293.78 344.383 289.502 344.864 285.227C348.514 283.681 352.036 282.174 355.257 280.76C356.417 292.586 357.61 302.77 359.028 301.104C360.039 299.61 359.888 290.416 359.387 278.923C366.064 275.909 370.775 273.517 371.407 272.426C372.076 271.043 366.711 272.679 359.224 275.354C359.031 271.261 358.807 266.968 358.587 262.676C361.985 260.581 365.265 258.543 368.26 256.651C371.29 267.943 374.069 277.507 375.125 275.527C375.981 274.053 374.419 265.26 372.096 254.197C378.245 250.221 382.539 247.174 382.967 246.072C383.505 244.557 378.4 246.976 371.36 250.733C370.502 246.732 369.572 242.524 368.64 238.31C371.744 235.658 374.732 233.087 377.444 230.708C382.216 241.195 386.398 249.966 387.09 248.017C387.651 246.428 384.758 238.168 380.753 227.777C386.091 222.988 389.768 219.362 389.977 218.171C390.246 216.666 385.695 219.765 379.465 224.461C377.962 220.614 376.35 216.557 374.732 212.493C377.381 209.389 379.925 206.388 382.221 203.623C388.638 213.263 394.178 221.275 394.525 219.327C394.804 217.621 390.588 209.898 384.956 200.299C389.434 194.792 392.46 190.684 392.46 189.493C392.46 187.995 388.506 191.703 383.154 197.233C381.071 193.719 378.847 190.019 376.615 186.313C378.735 182.796 380.753 179.416 382.561 176.307C390.366 184.713 397 191.575 397 189.493C396.998 187.815 391.721 181.005 384.723 172.552ZM375.021 146.624C373.643 149.57 372.188 152.761 370.733 155.954C368.374 153.178 366.064 150.456 363.868 147.847C364.487 145.035 365.115 142.186 365.741 139.361C368.759 141.704 371.912 144.182 375.021 146.624ZM339.69 282.582C337.51 283.385 335.391 284.158 333.395 284.861C334.381 281.647 335.299 278.796 336.115 276.526C337.325 275.769 338.571 274.995 339.849 274.201C339.92 276.294 339.849 279.194 339.69 282.582ZM230.303 349.952C228.265 349.127 226.271 348.314 224.368 347.524C228.021 345.621 231.121 344.082 233.416 343.078C234.507 343.288 235.618 343.502 236.746 343.721C235.543 345.171 233.228 347.36 230.303 349.952ZM28.4068 217.704C29.4455 215.474 30.4583 213.329 31.4183 211.345C33.0501 214.135 34.5134 216.694 35.7171 218.896C35.3703 220.527 35.0092 222.217 34.6287 223.959C32.8845 222.33 30.7603 220.171 28.4068 217.704ZM57.1101 96.716C59.2818 95.906 61.3893 95.126 63.3707 94.4102C62.4273 97.5384 61.5516 100.322 60.7794 102.571C59.5534 103.341 58.2942 104.127 56.9932 104.933C56.9055 102.846 56.9645 100.013 57.1101 96.716ZM166.466 29.3509C168.524 30.1836 170.535 31.0032 172.452 31.7944C169.097 33.5459 166.172 35.0072 163.913 36.0207C162.716 35.7924 161.495 35.5571 160.258 35.3178C161.546 33.8596 163.72 31.7977 166.466 29.3509ZM354.302 136.199C354.377 134.544 354.461 132.836 354.553 131.075C356.529 132.403 358.956 134.177 361.665 136.235C361.021 138.57 360.386 140.837 359.771 142.943C357.716 140.465 355.844 138.167 354.302 136.199ZM343.434 113.138C343.23 111.523 343.024 109.858 342.816 108.149C344.988 109.181 347.759 110.641 350.859 112.34C350.621 114.746 350.382 117.087 350.135 119.278C347.609 117.021 345.303 114.924 343.434 113.138ZM328.545 92.0398C328.101 90.543 327.648 88.9935 327.189 87.4186C329.522 88.0968 332.616 89.164 336.11 90.4392C336.266 92.831 336.407 95.1626 336.521 97.3652C333.466 95.3866 330.75 93.584 328.545 92.0398ZM310.566 73.8116C309.904 72.4584 309.22 71.058 308.531 69.6365C310.916 69.9245 314.128 70.4842 317.756 71.185C318.306 73.4687 318.837 75.6981 319.322 77.8127C315.968 76.3293 312.993 74.9768 310.566 73.8116ZM289.319 57.9273C288.516 56.7894 287.698 55.6274 286.869 54.4417C289.185 54.3582 292.495 54.4342 296.364 54.5999C297.262 56.7189 298.138 58.8008 298.958 60.7863C295.202 59.7421 291.902 58.775 289.319 57.9273ZM266.09 45.992C265.164 45.0495 264.226 44.0926 263.269 43.1129C265.5 42.6629 268.816 42.227 272.723 41.8018C273.928 43.6979 275.113 45.5684 276.23 47.3558C272.247 46.8892 268.783 46.4333 266.09 45.992ZM241.087 37.715C240.091 36.9674 239.081 36.208 238.053 35.4324C240.024 34.6369 243.155 33.6868 246.944 32.6551C248.423 34.3285 249.877 35.983 251.252 37.5669C247.208 37.6972 243.72 37.7602 241.087 37.715ZM215.403 33.2073C214.284 32.618 213.153 32.0216 211.998 31.408C213.769 30.3481 216.707 28.9498 220.309 27.3615C222.084 28.8165 223.831 30.2546 225.476 31.6308C221.476 32.3429 218.015 32.8995 215.403 33.2073ZM189.078 32.6185C187.986 32.2325 186.873 31.8402 185.746 31.4398C187.171 30.189 189.745 28.4068 192.975 26.326C194.872 27.4536 196.736 28.5683 198.513 29.6431C194.726 30.9327 191.483 31.9716 189.078 32.6185ZM138.602 43.071C137.482 43.0225 136.343 42.9718 135.187 42.9191C136.125 41.3352 137.989 38.9056 140.367 36.0094C142.486 36.5197 144.557 37.025 146.533 37.5196C143.357 39.8551 140.651 41.7641 138.602 43.071ZM116.025 53.5009C114.726 53.6439 113.394 53.7878 112.043 53.9324C112.812 52.1261 114.214 49.5276 116.034 46.4075C118.345 46.6077 120.596 46.81 122.733 47.0151C120.141 49.6358 117.864 51.8533 116.025 53.5009ZM94.8167 67.2407C93.5964 67.5599 92.3566 67.8824 91.0859 68.2108C91.6177 66.2941 92.6392 63.4904 93.9322 60.1959C96.1429 60.0716 98.2953 59.9585 100.336 59.867C98.2224 62.8192 96.3476 65.3441 94.8167 67.2407ZM76.2471 83.7279C75.0353 84.2533 73.8008 84.7861 72.5307 85.3303C72.7657 83.3329 73.2946 80.5045 73.9917 77.1825C76.1829 76.7217 78.3185 76.2787 80.3361 75.8735C78.8023 78.9597 77.4198 81.6391 76.2471 83.7279ZM48.4592 123.164C47.2922 124.179 46.0662 125.237 44.8179 126.31C44.4235 124.239 44.0372 121.495 43.6594 118.367C45.7419 117.202 47.7427 116.097 49.6348 115.069C49.2342 118.134 48.8427 120.865 48.4592 123.164ZM39.3492 146.076C38.325 147.296 37.2359 148.576 36.1338 149.871C35.3812 147.799 34.5387 145.086 33.6427 141.998C35.5544 140.517 37.3958 139.109 39.1337 137.805C39.2542 140.904 39.3326 143.699 39.3492 146.076ZM34.0738 170.088C33.2679 171.437 32.4138 172.849 31.5495 174.283C30.4635 172.297 29.1681 169.673 27.7517 166.676C29.4087 164.937 31.0068 163.278 32.5154 161.741C33.1417 164.862 33.6766 167.693 34.0738 170.088ZM32.9349 194.214C32.3193 195.799 31.667 197.458 30.9924 199.155C29.571 197.308 27.8692 194.914 25.9996 192.196C27.4044 190.129 28.7645 188.143 30.0466 186.319C31.1523 189.231 32.1371 191.903 32.9349 194.214ZM42.543 243.278C42.4758 244.898 42.4002 246.567 42.3159 248.284C40.3483 246.929 37.8911 245.094 35.1456 242.976C35.7806 240.661 36.4078 238.413 37.0097 236.319C39.0891 238.871 41.0034 241.26 42.543 243.278ZM53.4326 265.876C53.6228 267.458 53.8161 269.087 54.0092 270.761C51.826 269.718 49.0753 268.266 45.9882 266.573C46.2376 264.222 46.4892 261.933 46.7438 259.79C49.2513 262.022 51.56 264.109 53.4326 265.876ZM68.0554 286.697C68.5201 288.254 68.9931 289.863 69.4745 291.51C67.1515 290.837 64.1514 289.819 60.7652 288.602C60.6001 286.171 60.4488 283.803 60.3232 281.578C63.2556 283.465 65.8864 285.198 68.0554 286.697ZM86.1096 305.403C86.7842 306.798 87.4754 308.239 88.1776 309.702C85.8012 309.397 82.5915 308.816 78.953 308.092C78.4073 305.777 77.884 303.514 77.4054 301.369C80.7447 302.856 83.7028 304.219 86.1096 305.403ZM107.24 320.936C108.102 322.157 108.984 323.413 109.882 324.693C107.517 324.786 104.186 324.714 100.321 324.546C99.3922 322.342 98.4912 320.181 97.6515 318.127C101.363 319.149 104.634 320.096 107.24 320.936ZM130.351 332.95C131.34 333.96 132.333 334.981 133.357 336.037C131.177 336.504 127.964 336.945 124.166 337.369C122.927 335.405 121.715 333.474 120.573 331.632C124.393 332.081 127.734 332.522 130.351 332.95ZM155.467 341.517C156.516 342.295 157.58 343.087 158.665 343.896C156.611 344.65 153.435 345.559 149.653 346.555C148.164 344.859 146.695 343.184 145.313 341.584C149.315 341.477 152.791 341.443 155.467 341.517ZM181.06 345.837C182.18 346.433 183.311 347.035 184.469 347.656C182.709 348.694 179.865 350.046 176.404 351.574C174.683 350.162 172.983 348.763 171.378 347.424C175.209 346.717 178.524 346.162 181.06 345.837ZM207.511 346.475C208.639 346.869 209.787 347.269 210.95 347.677C209.392 348.972 206.7 350.794 203.368 352.913C201.451 351.772 199.568 350.645 197.78 349.561C201.65 348.245 205.004 347.166 207.511 346.475ZM258.055 336.042C259.216 336.088 260.401 336.137 261.605 336.189C260.594 337.812 258.698 340.255 256.287 343.177C254.126 342.655 252.016 342.137 250.007 341.633C253.179 339.317 255.948 337.374 258.055 336.042ZM281.102 325.467C282.258 325.341 283.44 325.215 284.636 325.089C283.896 326.832 282.463 329.454 280.602 332.615C278.43 332.421 276.315 332.225 274.295 332.027C276.955 329.353 279.295 327.078 281.102 325.467ZM301.708 311.982C302.985 311.647 304.284 311.311 305.615 310.966C305.116 312.894 304.149 315.657 302.918 318.887C300.646 319.02 298.432 319.143 296.335 319.246C298.393 316.361 300.217 313.879 301.708 311.982ZM320.27 295.623C321.541 295.076 322.836 294.523 324.172 293.954C323.947 295.995 323.433 298.823 322.739 302.134C320.505 302.595 318.328 303.036 316.28 303.432C317.771 300.396 319.126 297.728 320.27 295.623ZM348.623 255.408C349.745 254.437 350.896 253.444 352.084 252.422C352.485 254.53 352.869 257.39 353.246 260.669C351.208 261.787 349.252 262.847 347.388 263.841C347.809 260.625 348.223 257.767 348.623 255.408ZM357.468 232.755C358.452 231.58 359.479 230.36 360.528 229.119C361.262 231.184 362.105 233.975 363.009 237.16C361.125 238.613 359.318 239.993 357.602 241.281C357.498 238.052 357.448 235.175 357.468 232.755ZM362.6 209.444C363.465 207.996 364.38 206.476 365.315 204.93C366.381 206.868 367.629 209.376 368.984 212.226C367.284 214.024 365.647 215.737 364.101 217.327C363.51 214.413 362.995 211.74 362.6 209.444ZM363.974 184.551C364.589 182.989 365.233 181.375 365.903 179.713C367.313 181.537 369.009 183.919 370.871 186.631C369.49 188.682 368.144 190.659 366.874 192.49C365.759 189.557 364.769 186.865 363.974 184.551ZM361.225 160.149C361.571 158.482 361.934 156.761 362.315 154.985C364.016 156.575 366.093 158.677 368.39 161.083C367.361 163.33 366.356 165.505 365.402 167.521C363.828 164.816 362.39 162.297 361.225 160.149ZM365.905 120.788C365.027 123.91 364.105 127.297 363.18 130.701C360.349 128.25 357.587 125.848 354.954 123.54C355.11 120.663 355.271 117.752 355.423 114.867C358.827 116.775 362.394 118.8 365.905 120.788ZM352.408 96.6014C352.071 99.8006 351.737 103.28 351.399 106.79C348.152 104.756 344.963 102.753 341.946 100.838C341.609 97.9765 341.271 95.0868 340.931 92.2282C344.635 93.6227 348.568 95.1347 352.408 96.6014ZM335.054 74.7642C335.25 77.9425 335.495 81.4092 335.735 84.919C332.096 83.3599 328.52 81.8252 325.142 80.3608C324.36 77.6395 323.567 74.8966 322.781 72.1867C326.73 72.9946 330.938 73.8918 335.054 74.7642ZM314.009 55.5702C314.719 58.6415 315.532 62.0054 316.36 65.42C312.467 64.4064 308.647 63.4065 305.062 62.4479C303.847 59.9139 302.622 57.3615 301.413 54.8443C305.437 55.0574 309.763 55.3201 314.009 55.5702ZM290.249 40.1419C291.428 42.9941 292.748 46.1028 294.098 49.266C290.063 48.8565 286.111 48.4501 282.409 48.0496C280.842 45.7939 279.263 43.5268 277.704 41.2911C281.698 40.9025 286.011 40.5203 290.249 40.1419ZM264.154 28.3008C265.81 30.9596 267.638 33.8354 269.53 36.7963C265.412 36.9894 261.393 37.1746 257.636 37.3297C255.695 35.3349 253.756 33.3392 251.833 31.3649C255.723 30.3659 259.969 29.3251 264.154 28.3008ZM236.337 20.6229C238.417 23.0185 240.703 25.6086 243.068 28.2744C239.077 29.063 235.192 29.8234 231.552 30.5119C229.304 28.8062 227.053 27.0994 224.824 25.4121C228.445 23.8754 232.41 22.2413 236.337 20.6229ZM207.897 17.1378C210.303 19.1557 212.938 21.3232 215.662 23.5503C211.84 24.9368 208.13 26.2765 204.662 27.5037C202.208 26.1941 199.749 24.8846 197.313 23.588C200.621 21.5347 204.265 19.329 207.897 17.1378ZM179.391 18.23C182.079 19.8596 185.027 21.6106 188.024 23.3878C184.61 25.2652 181.303 27.0687 178.186 28.748C175.573 27.8159 172.942 26.8777 170.337 25.9541C173.176 23.4976 176.279 20.8651 179.391 18.23ZM151.342 23.2043C154.219 24.3992 157.348 25.6683 160.529 26.953C157.473 29.2932 154.512 31.55 151.728 33.6476C149.044 33.1196 146.343 32.5873 143.67 32.063C146.063 29.2545 148.691 26.2355 151.342 23.2043ZM124.681 32.225C127.813 33.0022 131.208 33.815 134.642 34.6363C132.03 37.3942 129.5 40.0487 127.099 42.5387C124.264 42.403 121.407 42.2663 118.575 42.1349C120.477 38.99 122.574 35.6094 124.681 32.225ZM100.168 45.05C103.3 45.3331 106.663 45.6146 110.047 45.8989C107.934 48.9883 105.871 51.9862 103.921 54.7855C101.212 55.0665 98.4774 55.3485 95.7651 55.6323C97.1339 52.2784 98.6534 48.6557 100.168 45.05ZM77.6273 61.1657C80.829 60.9838 84.2571 60.7707 87.6938 60.5624C86.1044 63.9264 84.5534 67.1971 83.0758 70.2609C80.4168 70.9384 77.7275 71.6214 75.0578 72.3034C75.8499 68.77 76.7428 64.9511 77.6273 61.1657ZM58.1171 80.5399C61.2742 79.8888 64.6353 79.1718 68.0049 78.4532C67.0196 81.9184 66.0544 85.2991 65.1252 88.4817C62.5564 89.5699 59.9558 90.6696 57.3731 91.7643C57.5858 88.1904 57.8518 84.3496 58.1171 80.5399ZM41.9692 102.397C45.042 101.258 48.3107 100.025 51.5773 98.7942C51.1772 102.309 50.7823 105.755 50.3937 108.999C47.9841 110.476 45.5349 111.971 43.1001 113.459C42.7188 109.924 42.3441 106.14 41.9692 102.397ZM29.3611 126.385C32.2466 124.785 35.2946 123.069 38.348 121.348C38.5296 124.807 38.7033 128.199 38.8575 131.421C36.6719 133.287 34.4578 135.177 32.2499 137.063C31.3003 133.633 30.3264 129.983 29.3611 126.385ZM20.9705 151.87C23.5791 149.848 26.3302 147.694 29.0866 145.539C29.837 148.985 30.5672 152.369 31.2475 155.584C29.3893 157.745 27.5058 159.934 25.6275 162.118C24.1132 158.823 22.5295 155.314 20.9705 151.87ZM16.7136 178.345C19.031 175.907 21.4795 173.303 23.9315 170.705C25.2608 174.044 26.5624 177.331 27.7884 180.466C26.2627 182.962 24.7094 185.496 23.1676 188.022C21.0685 184.901 18.8659 181.581 16.7136 178.345ZM17.0329 205.485C18.8882 202.758 20.853 199.829 22.8178 196.911C24.6876 200.017 26.5235 203.072 28.2585 205.988C27.1808 208.662 26.081 211.379 24.9924 214.078C22.4063 211.31 19.689 208.36 17.0329 205.485ZM21.6453 232.347C23.0276 229.387 24.4915 226.191 25.9577 223.004C28.376 225.884 30.7351 228.706 32.9768 231.413C32.3554 234.198 31.7227 237.023 31.099 239.825C28.0257 237.408 24.8103 234.852 21.6453 232.347ZM31.001 258.154C31.8631 255.062 32.767 251.715 33.6766 248.363C36.5201 250.825 39.2994 253.238 41.944 255.555C41.7955 258.381 41.639 261.242 41.4878 264.078C38.0791 262.169 34.5105 260.143 31.001 258.154ZM44.3169 282.471C44.6779 279.232 45.0391 275.713 45.4032 272.17C48.6409 274.19 51.8231 276.18 54.8375 278.084C55.1619 280.975 55.4869 283.9 55.8112 286.793C52.0977 285.415 48.1594 283.921 44.3169 282.471ZM61.8117 304.474C61.63 301.294 61.3974 297.83 61.1567 294.325C64.7419 295.856 68.26 297.367 71.5814 298.81C72.3708 301.558 73.1629 304.331 73.9493 307.07C70.0453 306.252 65.8836 305.349 61.8117 304.474ZM82.5891 323.529C81.8813 320.41 81.0696 316.999 80.2466 313.543C84.0783 314.529 87.8451 315.504 91.3936 316.442C92.6392 319.058 93.8927 321.692 95.1353 324.288C91.1139 324.066 86.8065 323.793 82.5891 323.529ZM106.431 339.063C105.227 336.142 103.873 332.94 102.496 329.691C106.54 330.102 110.508 330.512 114.22 330.914C115.84 333.243 117.472 335.59 119.081 337.9C115.059 338.295 110.707 338.681 106.431 339.063ZM132.599 350.804C130.959 348.138 129.148 345.254 127.27 342.284C131.292 342.1 135.227 341.93 138.918 341.791C140.858 343.806 142.8 345.821 144.731 347.819C140.883 348.786 136.71 349.798 132.599 350.804ZM160.07 358.442C158.036 356.084 155.813 353.549 153.518 350.946C157.495 350.134 161.374 349.351 165.004 348.64C167.229 350.306 169.454 351.971 171.664 353.622C168.016 355.17 164.019 356.814 160.07 358.442ZM188.847 361.814C186.449 359.81 183.834 357.66 181.137 355.451C184.845 354.11 188.453 352.817 191.842 351.623C194.279 352.939 196.718 354.254 199.141 355.558C195.901 357.555 192.362 359.691 188.847 361.814ZM217.175 361.142C214.497 359.52 211.565 357.777 208.58 356.007C212.145 354.06 215.591 352.188 218.829 350.454C221.415 351.369 224.012 352.288 226.584 353.193C223.643 355.717 220.41 358.429 217.175 361.142ZM245.31 356.009C242.374 354.806 239.178 353.522 235.928 352.216C239.077 349.811 242.128 347.494 245.002 345.341C247.709 345.875 250.434 346.413 253.129 346.944C250.685 349.818 248.002 352.91 245.31 356.009ZM271.822 346.931C268.768 346.178 265.475 345.386 262.141 344.586C264.811 341.786 267.402 339.085 269.846 336.566C272.557 336.693 275.291 336.826 278.001 336.953C276.074 340.114 273.952 343.52 271.822 346.931ZM296.799 334.073C293.595 333.763 290.145 333.457 286.666 333.15C288.79 330.055 290.861 327.05 292.815 324.245C295.586 323.963 298.381 323.682 301.155 323.4C299.806 326.779 298.303 330.433 296.799 334.073ZM319.122 317.933C315.926 318.103 312.5 318.31 309.061 318.519C310.628 315.197 312.157 311.965 313.611 308.933C316.293 308.256 319.005 307.573 321.7 306.894C320.909 310.4 320.012 314.181 319.122 317.933ZM338.705 298.809C335.517 299.462 332.116 300.177 328.709 300.892C329.701 297.408 330.678 294.005 331.615 290.81C334.201 289.722 336.821 288.622 339.427 287.525C339.214 291.118 338.956 294.981 338.705 298.809ZM354.887 276.931C351.853 278.048 348.632 279.255 345.405 280.46C345.813 276.866 346.217 273.344 346.617 270.031C348.987 268.573 351.394 267.099 353.784 265.631C354.154 269.242 354.52 273.11 354.887 276.931ZM367.269 252.943C364.403 254.508 361.375 256.184 358.338 257.864C358.157 254.301 357.982 250.807 357.84 247.506C359.992 245.674 362.169 243.825 364.341 241.977C365.295 245.491 366.285 249.246 367.269 252.943ZM375.854 227.209C373.209 229.241 370.408 231.423 367.601 233.606C366.828 230.113 366.076 226.681 365.379 223.422C367.269 221.213 369.185 218.976 371.097 216.746C372.644 220.104 374.265 223.692 375.854 227.209ZM380.097 200.425C377.808 202.835 375.381 205.426 372.949 208.017C371.659 204.768 370.393 201.574 369.202 198.524C370.723 196.02 372.269 193.484 373.802 190.956C375.852 194.006 377.992 197.251 380.097 200.425ZM373.998 181.973C372.146 178.894 370.341 175.884 368.623 172.996C369.719 170.297 370.836 167.561 371.942 164.845C374.494 167.579 377.178 170.493 379.809 173.337C377.95 176.066 375.974 179.021 373.998 181.973Z" fill="#2D72A2"/>
<path d="M88 290L85.9823 279.552L80.3 283.476L84.0883 277.59L74 275.501L84.0883 273.41L80.2999 267.526L85.9824 271.449L88 261L90.0177 271.449L95.7 267.526L91.9117 273.41L102 275.501L91.9117 277.59L95.7 283.476L90.0177 279.552L88 290Z" fill="#EEEEEE"/>
<path d="M196.498 83C246.246 83 296 91.1864 296 91.1864V213.116C296 213.116 289.784 296.753 196.498 329C103.219 296.753 97 213.116 97 213.116V91.1864C97 91.1864 146.749 83 196.498 83Z" fill="url(#paint0_linear_406_76)"/>
<path d="M195.499 313L193.598 312.271C119.866 283.903 114.064 209.512 114.013 208.765L114 208.362V99.8794L118.557 99.0449C120.128 98.7567 157.462 92 195.497 92C233.537 92 270.873 98.7567 272.443 99.0449L277 99.8794L276.987 208.763C276.938 209.512 271.137 283.903 197.398 312.269L195.499 313ZM125.014 208.138C125.375 212.728 131.463 274.901 195.497 300.7C259.509 274.917 265.616 212.805 265.987 208.137V109.631C254.845 107.837 224.991 103.526 195.497 103.526C165.98 103.526 136.151 107.837 125.014 109.631V208.138Z" fill="url(#paint1_linear_406_76)"/>
<path d="M196.136 124L128 143.08L157.461 151L157.467 150.919L158.881 150.322C171.455 145.026 183.885 142.361 196.103 142.3C208.321 142.234 220.326 144.78 232.044 149.889C232.754 150.197 233.436 150.501 233.881 150.665L264 142.231L196.136 124Z" fill="#70AEBF"/>
<path d="M249 154.831C249 154.372 248.553 154 247.999 154C247.447 154 247 154.372 247 154.831V171.168C247 171.627 247.447 172 247.999 172C248.553 172 249 171.627 249 171.168V154.831Z" fill="#70AEBF"/>
<path opacity="0.4" d="M247.669 155H247.335C247.152 155 247 155.062 247 155.139V171.861C247 171.937 247.152 172 247.335 172H247.669C247.851 172 248 171.937 248 171.861V155.139C248 155.062 247.851 155 247.669 155Z" fill="#70AEBF"/>
<path d="M247.501 174C248.881 174 250 173.329 250 172.499C250 171.671 248.881 171 247.501 171C246.119 171 245 171.671 245 172.499C245 173.329 246.119 174 247.501 174Z" fill="#70AEBF"/>
<path d="M249.445 173H245.555C245.249 173 245 173.244 245 173.546V175.455C245 175.756 245.249 176 245.555 176H249.445C249.751 176 250 175.756 250 175.455V173.546C250 173.244 249.751 173 249.445 173Z" fill="#70AEBF"/>
<path d="M247.501 177C248.881 177 250 176.552 250 175.999C250 175.448 248.881 175 247.501 175C246.119 175 245 175.448 245 175.999C245 176.552 246.119 177 247.501 177Z" fill="#70AEBF"/>
<path d="M247.501 174C248.881 174 250 173.329 250 172.499C250 171.671 248.881 171 247.501 171C246.119 171 245 171.671 245 172.499C245 173.329 246.119 174 247.501 174Z" fill="#70AEBF"/>
<path opacity="0.45" d="M247 173C247.552 173 248 172.777 248 172.501C248 172.224 247.552 172 247 172C246.448 172 246 172.224 246 172.501C246 172.777 246.448 173 247 173Z" fill="#70AEBF"/>
<path d="M243.901 176H251.099L255 201H240L243.901 176Z" fill="#70AEBF"/>
<path opacity="0.6" d="M243.612 176H245L241.944 201H240L243.612 176Z" fill="#70AEBF"/>
<path opacity="0.25" d="M249 176H250.666L255 201H252.667L249 176Z" fill="#70AEBF"/>
<path opacity="0.15" d="M246.563 176H248.437L249 201H246L246.563 176Z" fill="#70AEBF"/>
<path d="M254.1 201H240.9C240.403 201 240 201.223 240 201.5C240 201.777 240.403 202 240.9 202H254.1C254.597 202 255 201.777 255 201.5C255 201.223 254.597 201 254.1 201Z" fill="#70AEBF"/>
<path d="M225.601 167H168C163.036 167 159 171.205 159 176.375V247.625C159 252.797 163.036 257 168 257H169.8V253.251H168C165.023 253.251 162.6 250.727 162.6 247.625C162.6 244.525 165.023 242.001 168 242.001H177.001V257L186.001 247.625L195 257V242.001H227.401V251.376C227.401 252.408 226.59 253.251 225.601 253.251H202.2V257H225.601C228.579 257 231 254.478 231 251.376V172.626C231 169.524 228.579 167 225.601 167ZM162.6 240.129V176.375C162.6 173.275 165.023 170.751 168 170.751H173.401V238.251H168C165.977 238.251 164.105 238.952 162.6 240.129ZM227.401 238.251H177.001V170.751H225.601C226.59 170.751 227.401 171.594 227.401 172.626V238.251Z" fill="#70AEBF"/>
<path d="M194.005 213.646C194.412 214.201 196.111 216 198.987 216C201.75 216 203.415 214.371 203.903 213.731C203.717 213.106 203.695 212.207 204.119 210.902H204.103C206.878 208.006 209 203.345 209 198.755C209 191.699 204.369 188 198.989 188C193.604 188 189 191.697 189 198.755C189 203.363 191.108 208.044 193.901 210.933C194.353 212.135 194.271 213.009 194.005 213.646Z" fill="#70AEBF"/>
<path d="M205.211 215.088C205.211 215.088 203.525 223.054 201.314 227.6C200.531 224.148 199.057 220.966 199.057 220.966C199.057 220.966 200.943 220.173 200.943 218.879C200.943 217.283 198.5 216.491 198.5 216.491C198.5 216.491 196.049 217.052 196.049 218.879C196.049 220.118 197.943 220.966 197.943 220.966C197.943 220.966 196.466 224.163 195.684 227.597C193.458 223.031 191.754 215.012 191.754 215.012L191.766 215C186.254 217.097 180 220.763 180 224.39V225.783C180 230.848 189.635 232 198.553 232C207.485 232 217 230.848 217 225.783C217 224.787 217 225.394 217 224.39C217 220.71 210.903 217.123 205.211 215.088Z" fill="#70AEBF"/>
<path d="M73.0001 154L70.9823 143.912L65.3001 147.7L69.0882 142.018L59 140L69.0882 137.982L65.2999 132.3L70.9825 136.088L73.0001 126L75.0177 136.088L80.7001 132.3L76.9118 137.982L87 140L76.9118 142.018L80.7001 147.7L75.0177 143.912L73.0001 154Z" fill="#EEEEEE"/>
<path d="M69 233L65.5412 216.787L55.7999 222.875L62.2942 213.743L45 210.501L62.2942 207.257L55.7997 198.125L65.5413 204.213L69 188L72.4588 204.213L82.2001 198.125L75.7058 207.257L93 210.501L75.7058 213.743L82.2001 222.875L72.4588 216.787L69 233Z" fill="#EEEEEE"/>
<path d="M330.5 234L326.969 218.147L317.025 224.1L323.654 215.171L306 212.001L323.654 208.829L317.025 199.9L326.969 205.853L330.5 190L334.031 205.853L343.973 199.9L337.346 208.829L355 212.001L337.346 215.171L343.973 224.1L334.031 218.147L330.5 234Z" fill="#EEEEEE"/>
<path d="M305.499 290L303.41 279.552L297.525 283.476L301.449 277.59L291 275.501L301.449 273.41L297.525 267.526L303.41 271.449L305.499 261L307.589 271.449L313.475 267.526L309.551 273.41L320 275.501L309.551 277.59L313.475 283.476L307.589 279.552L305.499 290Z" fill="#EEEEEE"/>
<path d="M320.5 154L318.41 143.912L312.525 147.7L316.448 142.018L306 140L316.448 137.982L312.525 132.3L318.41 136.088L320.5 126L322.59 136.088L328.475 132.3L324.551 137.982L335 140L324.551 142.018L328.475 147.7L322.59 143.912L320.5 154Z" fill="#EEEEEE"/>
<g filter="url(#filter0_d_406_76)">
<path d="M486.662 69.114C486.662 59.2343 489.682 50.4093 495.725 42.6397C501.898 34.7741 510.241 28.6831 520.748 24.3667C531.387 19.9542 543.274 17.7481 556.41 17.7481C571.778 17.7481 585.241 20.6257 596.801 26.381C608.361 32.1363 616.439 40.0977 621.036 50.2654H589.314C586.161 45.4695 581.694 41.8724 575.916 39.4743C570.267 37.0762 563.7 35.8772 556.213 35.8772C548.199 35.8772 541.042 37.2682 534.737 40.0498C528.564 42.7357 523.703 46.5724 520.157 51.5604C516.742 56.5484 515.034 62.3994 515.034 69.114C515.034 75.7326 516.742 81.5839 520.157 86.6676C523.703 91.6556 528.564 95.5404 534.737 98.3221C541.042 101.008 548.199 102.351 556.213 102.351C563.7 102.351 570.267 101.152 575.916 98.7537C581.694 96.2598 586.161 92.6149 589.314 87.8187H621.036C616.439 98.0824 608.361 106.092 596.801 111.847C585.373 117.506 571.911 120.336 556.41 120.336C543.274 120.336 531.387 118.178 520.748 113.861C510.241 109.449 501.898 103.358 495.725 95.5883C489.682 87.8187 486.662 78.994 486.662 69.114ZM697.006 120.768C686.499 120.768 677.041 119.089 668.634 115.732C660.226 112.279 653.595 107.435 648.734 101.2C644.005 94.9649 641.641 87.7708 641.641 79.6174C641.641 71.464 644.07 64.2699 648.931 58.0351C653.921 51.8003 660.688 47.0043 669.225 43.6469C677.762 40.1937 687.287 38.4671 697.794 38.4671C708.301 38.4671 717.826 40.1937 726.363 43.6469C734.9 47.0043 741.599 51.8003 746.46 58.0351C751.451 64.2699 753.947 71.464 753.947 79.6174C753.947 87.7708 751.386 94.9649 746.263 101.2C741.273 107.435 734.441 112.279 725.772 115.732C717.235 119.089 707.646 120.768 697.006 120.768ZM697.006 103.214C701.996 103.214 706.66 102.351 710.995 100.624C715.462 98.8018 719.009 96.1159 721.635 92.5668C724.261 89.0178 725.575 84.7014 725.575 79.6174C725.575 72.0397 722.817 66.2364 717.3 62.2077C711.915 58.083 705.281 56.0207 697.4 56.0207C689.519 56.0207 682.884 58.083 677.5 62.2077C672.245 66.2364 669.619 72.0397 669.619 79.6174C669.619 87.1953 672.18 93.0465 677.303 97.171C682.558 101.2 689.125 103.214 697.006 103.214ZM805.708 13V119.473H778.124V13H805.708ZM864.484 13V119.473H836.9V13H864.484ZM997.149 77.8908C997.149 80.7684 996.885 83.3583 996.361 85.6604H916.564C917.22 91.4157 919.978 95.9242 924.84 99.1854C929.698 102.447 935.676 104.077 942.769 104.077C953.015 104.077 960.305 100.864 964.64 94.4372H994.391C991.239 102.111 985.195 108.442 976.264 113.43C967.33 118.322 956.364 120.768 943.36 120.768C932.85 120.768 923.393 119.089 914.988 115.732C906.713 112.279 900.211 107.435 895.482 101.2C890.883 94.9649 888.586 87.7708 888.586 79.6174C888.586 71.3682 890.883 64.126 895.482 57.8912C900.079 51.6564 906.516 46.8602 914.791 43.503C923.066 40.1458 932.588 38.4671 943.36 38.4671C953.735 38.4671 962.996 40.0977 971.142 43.3591C979.417 46.6205 985.786 51.2726 990.253 57.3157C994.85 63.2629 997.149 70.1212 997.149 77.8908ZM968.58 72.1355C968.448 66.9558 965.886 62.8311 960.896 59.7617C955.903 56.5963 949.795 55.0136 942.572 55.0136C935.741 55.0136 929.962 56.5484 925.234 59.6178C920.634 62.5914 917.811 66.764 916.761 72.1355H968.58ZM1063.98 38.4671C1072.12 38.4671 1079.28 39.6661 1085.46 42.0642C1091.63 44.3663 1096.49 47.3878 1100.04 51.1287V39.7621H1127.82V120.048C1127.82 127.434 1125.78 134.005 1121.71 139.76C1117.64 145.612 1111.53 150.216 1103.39 153.573C1095.24 157.026 1085.39 158.753 1073.83 158.753C1058.33 158.753 1045.59 156.115 1035.61 150.839C1025.76 145.563 1020.17 138.368 1018.86 129.257H1046.25C1047.69 132.902 1050.78 135.779 1055.51 137.89C1060.37 140.095 1066.21 141.199 1073.04 141.199C1081.05 141.199 1087.56 139.425 1092.55 135.875C1097.54 132.422 1100.04 127.147 1100.04 120.048V107.674C1096.49 111.415 1091.56 114.533 1085.26 117.027C1079.08 119.521 1071.99 120.768 1063.98 120.768C1054.78 120.768 1046.38 119.041 1038.76 115.588C1031.14 112.135 1025.1 107.291 1020.63 101.056C1016.3 94.725 1014.13 87.483 1014.13 79.3296C1014.13 71.2722 1016.3 64.126 1020.63 57.8912C1025.1 51.6564 1031.08 46.8602 1038.56 43.503C1046.18 40.1458 1054.65 38.4671 1063.98 38.4671ZM1100.04 79.6174C1100.04 74.7254 1098.72 70.5528 1096.1 67.0996C1093.47 63.5505 1089.92 60.8648 1085.46 59.0423C1080.99 57.1239 1076.2 56.1646 1071.07 56.1646C1065.95 56.1646 1061.22 57.0758 1056.89 58.8984C1052.55 60.721 1049.01 63.4068 1046.25 66.9558C1043.62 70.4089 1042.31 74.5336 1042.31 79.3296C1042.31 84.1256 1043.62 88.3463 1046.25 91.9913C1049.01 95.5404 1052.55 98.2742 1056.89 100.193C1061.35 102.111 1066.08 103.07 1071.07 103.07C1076.2 103.07 1080.99 102.159 1085.46 100.336C1089.92 98.4181 1093.47 95.7322 1096.1 92.279C1098.72 88.7301 1100.04 84.5094 1100.04 79.6174ZM1260.17 77.8908C1260.17 80.7684 1259.9 83.3583 1259.38 85.6604H1179.58C1180.24 91.4157 1183 95.9242 1187.86 99.1854C1192.72 102.447 1198.7 104.077 1205.79 104.077C1216.03 104.077 1223.32 100.864 1227.66 94.4372H1257.41C1254.26 102.111 1248.21 108.442 1239.28 113.43C1230.35 118.322 1219.38 120.768 1206.38 120.768C1195.87 120.768 1186.41 119.089 1178.01 115.732C1169.73 112.279 1163.23 107.435 1158.5 101.2C1153.9 94.9649 1151.61 87.7708 1151.61 79.6174C1151.61 71.3682 1153.9 64.126 1158.5 57.8912C1163.1 51.6564 1169.53 46.8602 1177.81 43.503C1186.09 40.1458 1195.61 38.4671 1206.38 38.4671C1216.75 38.4671 1226.01 40.0977 1234.16 43.3591C1242.44 46.6205 1248.81 51.2726 1253.27 57.3157C1257.87 63.2629 1260.17 70.1212 1260.17 77.8908ZM1231.6 72.1355C1231.47 66.9558 1228.91 62.8311 1223.91 59.7617C1218.92 56.5963 1212.81 55.0136 1205.59 55.0136C1198.76 55.0136 1192.98 56.5484 1188.25 59.6178C1183.65 62.5914 1180.83 66.764 1179.78 72.1355H1231.6Z" fill="url(#paint2_linear_406_76)"/>
</g>
<g filter="url(#filter1_d_406_76)">
<path d="M552.728 170.299C574.598 170.299 593.71 173.465 610.064 179.795C626.417 186.126 639.027 195.047 647.893 206.557C656.957 217.924 661.488 231.089 661.488 246.053C661.488 260.873 656.957 274.038 647.893 285.549C639.027 297.059 626.319 305.98 609.768 312.311C593.415 318.642 574.401 321.807 552.728 321.807H475V170.299H552.728ZM549.477 289.865C568.589 289.865 583.465 286.052 594.104 278.426C604.744 270.801 610.064 260.01 610.064 246.053C610.064 232.096 604.744 221.233 594.104 213.464C583.465 205.694 568.589 201.809 549.477 201.809H525.538V289.865H549.477ZM721.059 188.86C712.193 188.86 704.903 186.989 699.189 183.248C693.672 179.364 690.913 174.616 690.913 169.004C690.913 163.249 693.672 158.501 699.189 154.76C704.903 150.875 712.193 148.933 721.059 148.933C729.728 148.933 736.821 150.875 742.338 154.76C748.052 158.501 750.909 163.249 750.909 169.004C750.909 174.616 748.052 179.364 742.338 183.248C736.821 186.989 729.728 188.86 721.059 188.86ZM746.18 201.378V321.807H695.642V201.378H746.18ZM778.669 261.376C778.669 249.003 781.821 238.139 788.126 228.787C794.628 219.435 803.396 212.241 814.429 207.205C825.463 202.169 837.777 199.651 851.372 199.651C862.997 199.651 873.144 201.378 881.813 204.831C890.68 208.284 897.477 212.816 902.206 218.428V201.378H952.744V321.807H902.206V304.757C897.28 310.368 890.384 314.901 881.518 318.354C872.849 321.807 862.702 323.533 851.077 323.533C837.679 323.533 825.463 321.016 814.429 315.98C803.396 310.8 794.628 303.534 788.126 294.182C781.821 284.685 778.669 273.75 778.669 261.376ZM902.206 261.592C902.206 252.384 898.659 245.118 891.566 239.794C884.67 234.471 876.198 231.809 866.15 231.809C856.101 231.809 847.53 234.471 840.437 239.794C833.541 244.974 830.093 252.168 830.093 261.376C830.093 270.585 833.541 277.923 840.437 283.39C847.53 288.714 856.101 291.376 866.15 291.376C876.198 291.376 884.67 288.714 891.566 283.39C898.659 278.067 902.206 270.801 902.206 261.592ZM1045.75 221.449C1051.67 214.831 1059.05 209.651 1067.92 205.91C1076.79 202.025 1086.64 200.083 1097.47 200.083V239.147H1083.58C1070.97 239.147 1061.52 241.161 1055.21 245.19C1048.91 249.075 1045.75 255.981 1045.75 265.909V321.807H995.216V201.378H1045.75V221.449ZM1296 201.378L1192.56 379H1138.18L1176.01 317.706L1108.92 201.378H1165.37L1203.49 276.7L1241.32 201.378H1296Z" fill="url(#paint3_linear_406_76)"/>
</g>
<defs>
<filter id="filter0_d_406_76" x="482.662" y="13" width="781.507" height="153.753" filterUnits="userSpaceOnUse" color-interpolation-filters="sRGB">
<feFlood flood-opacity="0" result="BackgroundImageFix"/>
<feColorMatrix in="SourceAlpha" type="matrix" values="0 0 0 0 0 0 0 0 0 0 0 0 0 0 0 0 0 0 127 0" result="hardAlpha"/>
<feOffset dy="4"/>
<feGaussianBlur stdDeviation="2"/>
<feComposite in2="hardAlpha" operator="out"/>
<feColorMatrix type="matrix" values="0 0 0 0 0 0 0 0 0 0 0 0 0 0 0 0 0 0 0.25 0"/>
<feBlend mode="normal" in2="BackgroundImageFix" result="effect1_dropShadow_406_76"/>
<feBlend mode="normal" in="SourceGraphic" in2="effect1_dropShadow_406_76" result="shape"/>
</filter>
<filter id="filter1_d_406_76" x="471" y="148.933" width="829" height="238.067" filterUnits="userSpaceOnUse" color-interpolation-filters="sRGB">
<feFlood flood-opacity="0" result="BackgroundImageFix"/>
<feColorMatrix in="SourceAlpha" type="matrix" values="0 0 0 0 0 0 0 0 0 0 0 0 0 0 0 0 0 0 127 0" result="hardAlpha"/>
<feOffset dy="4"/>
<feGaussianBlur stdDeviation="2"/>
<feComposite in2="hardAlpha" operator="out"/>
<feColorMatrix type="matrix" values="0 0 0 0 0 0 0 0 0 0 0 0 0 0 0 0 0 0 0.25 0"/>
<feBlend mode="normal" in2="BackgroundImageFix" result="effect1_dropShadow_406_76"/>
<feBlend mode="normal" in="SourceGraphic" in2="effect1_dropShadow_406_76" result="shape"/>
</filter>
<linearGradient id="paint0_linear_406_76" x1="97.0053" y1="83" x2="97.0053" y2="329" gradientUnits="userSpaceOnUse">
<stop offset="0.3" stop-color="#005493"/>
<stop offset="1" stop-color="#001B54"/>
</linearGradient>
<linearGradient id="paint1_linear_406_76" x1="114.002" y1="91.9908" x2="114.002" y2="312.99" gradientUnits="userSpaceOnUse">
<stop offset="0.3" stop-color="#EEEEEE"/>
<stop offset="1" stop-color="#DEDEDE"/>
</linearGradient>
<linearGradient id="paint2_linear_406_76" x1="873.236" y1="-37.8983" x2="873.236" y2="177.925" gradientUnits="userSpaceOnUse">
<stop stop-color="#001B54"/>
<stop offset="1" stop-color="#2D72A2"/>
</linearGradient>
<linearGradient id="paint3_linear_406_76" x1="876.315" y1="83.5022" x2="876.315" y2="407.237" gradientUnits="userSpaceOnUse">
<stop stop-color="#2D72A2"/>
<stop offset="0.975962" stop-color="#001B54"/>
</linearGradient>
</defs>
</svg>
