<svg width="565" height="233" viewBox="0 0 565 233" fill="none" xmlns="http://www.w3.org/2000/svg">
<path fill-rule="evenodd" clip-rule="evenodd" d="M229.546 105.681C231.53 102.081 232.804 99.4437 232.681 98.7327C232.525 97.7566 230.643 100.207 228.12 103.916C226.534 101.968 224.844 99.9204 223.141 97.8637C224.044 95.5651 224.9 93.3535 225.659 91.3315C231.051 95.6637 235.596 99.1892 235.394 98.018C235.229 96.9895 231.478 93.3555 226.56 88.8789C227.92 85.0963 228.74 82.346 228.497 81.6452C228.189 80.7532 226.747 83.391 224.884 87.3576C222.984 85.6451 220.963 83.8456 218.929 82.0378C219.447 79.605 219.933 77.2728 220.352 75.1555C226.337 78.6151 231.363 81.3884 230.957 80.2155C230.63 79.2671 226.385 76.2858 220.835 72.6311C221.534 68.8471 221.898 66.1314 221.601 65.5038C221.15 64.7061 220.19 67.4029 219.026 71.446C216.859 70.0318 214.551 68.5454 212.228 67.0531C212.347 64.5676 212.444 62.1882 212.504 60.0396C219.001 62.5663 224.428 64.5429 223.819 63.3664C223.326 62.4971 218.639 60.1998 212.556 57.4394C212.599 53.7348 212.465 51.1059 212.003 50.5478C211.485 49.8371 211.011 52.5125 210.548 56.5338C208.149 55.4575 205.596 54.3308 203.032 53.2028C202.739 50.739 202.443 48.3853 202.151 46.2756C209.092 47.7722 214.935 48.9315 214.215 47.9403C213.547 47.0539 208.374 45.431 201.756 43.5814C201.215 40.105 200.684 37.6916 200.178 37.2591C199.606 36.6378 199.577 39.1757 199.759 43.0283C197.158 42.3129 194.392 41.5722 191.625 40.8335C190.943 38.4518 190.278 36.1881 189.657 34.1713C196.917 34.5949 203.092 34.8451 202.15 33.9366C201.384 33.1979 195.853 32.4035 188.845 31.6011C187.801 28.4128 186.937 26.2355 186.394 25.8696C185.689 25.3266 186.013 27.7179 186.774 31.3687C184.078 31.0704 181.222 30.772 178.372 30.4757C177.343 28.2958 176.351 26.2253 175.438 24.3769C182.774 23.6939 189.034 23.0237 187.868 22.3091C187.01 21.6475 181.338 21.6771 174.209 21.9359C172.671 18.9493 171.472 16.923 170.878 16.6108C170.107 16.2054 170.818 18.5221 172.162 22.0147C169.445 22.1248 166.58 22.259 163.721 22.3964C162.338 20.3797 161.016 18.4723 159.809 16.7796C167.036 14.9596 173.284 13.3262 172.109 12.812C171.15 12.309 165.409 13.2629 158.267 14.6508C156.284 11.9648 154.781 10.1732 154.136 9.96649C153.303 9.69783 154.378 11.8643 156.244 15.0476C153.55 15.581 150.718 16.1579 147.896 16.7328C146.178 14.9352 144.551 13.256 143.067 11.7594C150.06 8.79197 156.177 6.11129 154.874 5.69099C153.809 5.34981 148.098 7.26208 141.102 9.80991C138.781 7.55052 137.039 6.03053 136.409 5.929C135.593 5.79747 136.954 7.70974 139.231 10.4939C136.685 11.4308 134.018 12.4273 131.368 13.4175C129.438 11.9302 127.616 10.5457 125.953 9.31083C132.462 5.27169 138.214 1.63141 136.899 1.42275C135.826 1.24968 130.416 4.09485 123.83 7.7615C121.1 5.80176 119.075 4.50658 118.43 4.50658C117.525 4.50658 119.247 6.26688 122.05 8.75603C119.691 10.0789 117.241 11.4647 114.791 12.8509C112.651 11.6922 110.628 10.6129 108.775 9.65003C114.601 4.57877 119.758 0 118.43 0C117.258 0 112.232 3.68115 106.205 8.34134C103.128 6.80585 100.865 5.8245 100.214 5.92966C99.3721 6.06514 101.364 7.54657 104.572 9.6108C102.478 11.2419 100.316 12.9399 98.1563 14.6389C95.9205 13.8352 93.7748 13.0774 91.8276 12.4148C96.837 6.52632 101.296 1.20848 99.9647 1.42308C98.7924 1.59482 94.4427 6.0124 89.2545 11.5613C85.7143 10.4165 83.1631 9.74695 82.4815 9.96682C81.6851 10.245 84.0895 11.4895 87.7966 13.1278C86.0334 15.0265 84.2164 16.9985 82.3981 18.974C80.007 18.5013 77.7174 18.0606 75.6337 17.6832C79.5996 11.1282 83.0677 5.26773 81.7452 5.69132C80.6666 6.03877 77.1299 10.9999 72.932 17.2128C69.1148 16.5775 66.3796 16.2752 65.7418 16.6108C64.9269 17.0387 67.622 17.9409 71.705 19.0364C70.269 21.179 68.7793 23.421 67.2982 25.6477C64.9587 25.5449 62.7194 25.4585 60.6589 25.4008C63.5111 18.4018 65.9607 12.1794 64.7552 12.8123C63.6814 13.2432 60.9431 18.6114 57.7668 25.3388C53.7139 25.2848 50.8269 25.4084 50.2291 25.8692C49.4692 26.3818 52.44 26.8486 56.8417 27.3055C55.7597 29.6232 54.6424 32.0498 53.532 34.4634C51.1675 34.7238 48.8998 34.9846 46.8192 35.244C48.4706 27.9269 49.8416 21.4678 48.7511 22.3084C47.8626 22.9077 46.0744 28.5476 44.0522 35.6043C39.9193 36.1726 36.9872 36.7301 36.4393 37.2585C35.7396 37.8581 38.8975 37.8423 43.4794 37.6152C42.7865 40.0624 42.0766 42.6258 41.3687 45.1815C39.0743 45.7894 36.8634 46.385 34.8361 46.9507C35.332 39.5086 35.6877 32.9981 34.7157 33.936C33.9258 34.6988 33.0725 40.4844 32.2128 47.6983C28.0214 48.9203 25.0592 49.9432 24.6201 50.5475C24.0674 51.3103 27.3303 50.8227 31.9556 49.8908C31.6683 52.377 31.3811 54.9756 31.0955 57.5692C28.8863 58.5364 26.7571 59.4785 24.8119 60.361C24.0954 53.0828 23.394 46.8063 22.6478 47.9396C21.955 48.7756 21.995 54.4373 22.272 61.5303C18.3313 63.3756 15.576 64.8369 15.262 65.5035C14.7846 66.345 17.9322 65.3538 22.3623 63.7181C22.4707 66.1885 22.5993 68.7765 22.7296 71.3665C20.6842 72.6561 18.7102 73.9111 16.9087 75.079C15.0835 68.1472 13.4304 62.2571 12.8008 63.3657C12.3767 64.3484 13.325 69.7542 14.7029 76.5248C10.9842 78.9922 8.38098 80.9042 8.12552 81.6442C7.8851 82.5712 10.9575 81.0657 15.1574 78.7321C15.6533 81.1283 16.1878 83.6415 16.7237 86.1584C14.8968 87.768 13.1318 89.3365 11.5303 90.7906C8.68979 84.3793 6.21691 79.0219 5.9081 80.2145C5.57398 81.182 7.28082 86.1969 9.6535 92.5159C6.35883 95.5734 4.06618 97.9244 3.93759 98.7314C3.77549 99.6712 6.6143 97.6399 10.4534 94.6362C11.3285 96.9341 12.2652 99.3547 13.207 101.782C11.6141 103.692 10.0779 105.547 8.69013 107.256C4.91464 101.472 1.68016 96.7416 1.47634 98.0167C1.31116 98.9714 3.74403 103.548 7.0387 109.313C4.31514 112.744 2.46159 115.317 2.46159 116.057C2.46159 116.983 4.87634 114.646 8.12415 111.203C9.39154 113.396 10.7458 115.711 12.11 118.036C10.8559 120.153 9.6535 122.201 8.57147 124.086C3.93246 118.96 0 114.787 0 116.058C0 117.086 3.1141 121.25 7.2456 126.427C5.1701 130.146 3.81243 132.894 3.93759 133.622C4.09456 134.537 6.0384 131.962 8.62311 128.149C10.2246 130.136 11.9294 132.227 13.6492 134.33C12.7508 136.625 11.8959 138.836 11.1343 140.862C5.78396 136.54 1.27218 133.063 1.476 134.33C1.63981 135.276 5.35169 138.853 10.2325 143.29C8.81975 147.171 7.93982 149.997 8.12518 150.71C8.4357 151.536 9.90349 148.778 11.8039 144.714C13.7327 146.452 15.7849 148.281 17.857 150.123C17.3444 152.521 16.8635 154.824 16.4511 156.925C10.4931 153.482 5.50353 150.732 5.90776 151.901C6.1533 152.851 10.3894 155.844 15.9604 159.51C15.249 163.408 14.9016 166.212 15.2624 166.851C15.6447 167.662 16.5999 164.866 17.7787 160.702C19.9462 162.114 22.2573 163.598 24.5817 165.087C24.4566 167.593 24.3478 169.994 24.2746 172.164C17.7571 169.658 12.2936 167.674 12.8011 168.75C13.297 169.703 18.0512 172.042 24.1994 174.826C24.1242 178.577 24.2127 181.239 24.6201 181.8C25.1409 182.517 25.6388 179.786 26.133 175.697C28.5426 176.775 31.104 177.901 33.6775 179.029C33.9562 181.491 34.237 183.846 34.5157 185.96C27.6093 184.457 21.8298 183.327 22.6482 184.414C23.2292 185.212 28.3207 186.768 34.8813 188.568C35.4072 192.116 35.9298 194.604 36.4393 195.095C37.0874 195.649 37.1657 193.046 37.0087 189.147C39.5736 189.84 42.2972 190.558 45.0255 191.278C45.705 193.677 46.3647 195.962 46.981 198.002C39.8222 197.557 33.7842 197.28 34.7161 198.179C35.4708 198.909 40.8745 199.693 47.7508 200.485C48.801 203.777 49.6761 206.059 50.2288 206.484C50.9401 206.964 50.6012 204.468 49.828 200.72C52.5013 201.017 55.3366 201.314 58.1689 201.61C59.2277 203.855 60.2478 205.984 61.1863 207.875C53.9109 208.555 47.6991 209.235 48.7511 210.045C49.6077 210.623 55.2652 210.539 62.3904 210.255C63.9365 213.237 65.144 215.243 65.7418 215.504C66.5099 215.907 65.8119 213.621 64.4878 210.168C67.2178 210.05 70.1 209.911 72.9771 209.774C74.3632 211.799 75.6891 213.714 76.8963 215.41C69.676 217.237 63.4758 218.922 64.7549 219.541C65.71 220.043 71.4174 219.068 78.5159 217.649C80.4495 220.268 81.8974 221.996 82.4819 222.149C83.3002 222.413 82.2965 220.327 80.523 217.244C83.1713 216.705 85.9568 216.121 88.7303 215.539C90.395 217.296 91.9729 218.938 93.4209 220.413C86.4827 223.358 80.4495 226.006 81.7452 226.424C82.8006 226.762 88.4396 224.89 95.3846 222.38C97.7709 224.731 99.5691 226.32 100.214 226.424C101.047 226.558 99.6327 224.565 97.2915 221.687C99.8697 220.745 102.573 219.741 105.262 218.742C107.2 220.215 109.034 221.587 110.714 222.812C104.223 226.847 98.5421 230.481 99.9647 230.692C101.037 230.865 106.432 228.061 112.993 224.444C115.71 226.351 117.74 227.608 118.43 227.608C119.26 227.608 117.556 225.887 114.798 223.444C117.112 222.158 119.51 220.812 121.912 219.464C124.027 220.623 126.026 221.7 127.858 222.664C122.079 227.646 117.006 232.122 118.43 232.122C119.504 232.122 124.385 228.514 130.301 223.924C133.44 225.512 135.75 226.53 136.409 226.424C137.259 226.287 135.202 224.767 131.922 222.662C134.06 220.993 136.277 219.248 138.497 217.503C140.768 218.315 142.947 219.082 144.919 219.749C139.956 225.618 135.574 230.907 136.899 230.693C137.982 230.518 142.317 226.122 147.509 220.604C150.974 221.718 153.465 222.365 154.136 222.149C155.006 221.94 152.617 220.739 148.898 219.122C150.705 217.19 152.57 215.18 154.435 213.169C156.754 213.629 158.974 214.058 160.999 214.427C157.027 220.971 153.548 226.848 154.874 226.424C155.951 226.077 159.52 221.118 163.746 214.907C167.533 215.539 170.242 215.839 170.878 215.505C171.694 215.148 168.994 214.273 164.911 213.187C166.366 211.034 167.875 208.777 169.372 206.535C171.783 206.647 174.091 206.743 176.2 206.811C173.363 213.88 170.901 220.176 172.108 219.541C173.092 219.023 175.794 213.625 178.955 206.886C182.952 206.966 185.8 206.884 186.394 206.484C187.147 205.903 184.223 205.388 179.882 204.9C180.967 202.567 182.088 200.126 183.2 197.699C185.558 197.448 187.819 197.199 189.889 196.954C188.201 204.287 186.776 210.781 187.869 210.045C188.845 209.361 190.654 203.679 192.681 196.609C196.794 196.075 199.693 195.563 200.179 195.095C200.873 194.426 197.778 194.385 193.259 194.579C193.947 192.148 194.652 189.605 195.351 187.072C197.672 186.466 199.902 185.873 201.942 185.311C201.483 192.68 201.184 199.112 202.151 198.179C202.939 197.419 203.789 191.701 204.645 184.551C208.715 183.376 211.57 182.394 212.003 181.8C212.629 181.045 209.453 181.519 204.896 182.43C205.187 179.928 205.477 177.308 205.764 174.69C207.942 173.743 210.043 172.82 211.965 171.954C212.657 179.197 213.369 185.434 214.215 184.414C214.818 183.499 214.728 177.868 214.429 170.829C218.413 168.983 221.224 167.518 221.601 166.85C222 166.003 218.799 167.005 214.332 168.643C214.217 166.136 214.083 163.507 213.952 160.878C215.979 159.595 217.936 158.347 219.723 157.188C221.531 164.104 223.189 169.962 223.819 168.749C224.33 167.846 223.398 162.461 222.012 155.685C225.681 153.25 228.243 151.384 228.498 150.709C228.819 149.781 225.773 151.263 221.573 153.564C221.061 151.113 220.506 148.536 219.95 145.955C221.802 144.331 223.585 142.756 225.203 141.299C228.05 147.722 230.545 153.094 230.958 151.9C231.293 150.927 229.567 145.868 227.177 139.504C230.362 136.571 232.556 134.35 232.681 133.621C232.841 132.699 230.126 134.597 226.409 137.473C225.512 135.117 224.55 132.632 223.585 130.143C225.165 128.242 226.683 126.404 228.053 124.711C231.882 130.615 235.187 135.522 235.394 134.329C235.561 133.284 233.045 128.554 229.685 122.675C232.357 119.302 234.162 116.786 234.162 116.057C234.162 115.139 231.803 117.41 228.61 120.797C227.367 118.645 226.04 116.379 224.708 114.109C225.973 111.955 227.177 109.885 228.256 107.981C232.913 113.129 236.871 117.332 236.871 116.057C236.87 115.029 233.721 110.858 229.546 105.681ZM223.757 89.8013C222.935 91.6054 222.067 93.5599 221.199 95.5157C219.791 93.815 218.413 92.1484 217.103 90.5502C217.472 88.8282 217.847 87.083 218.22 85.3527C220.021 86.7877 221.902 88.3054 223.757 89.8013ZM202.677 173.07C201.376 173.562 200.112 174.035 198.921 174.466C199.509 172.497 200.057 170.751 200.544 169.361C201.266 168.897 202.009 168.423 202.772 167.937C202.814 169.219 202.772 170.995 202.677 173.07ZM137.411 214.331C136.195 213.826 135.005 213.328 133.87 212.844C136.049 211.679 137.899 210.736 139.268 210.121C139.919 210.25 140.582 210.381 141.255 210.515C140.537 211.403 139.156 212.744 137.411 214.331ZM16.949 133.335C17.5687 131.969 18.173 130.655 18.7458 129.44C19.7194 131.149 20.5925 132.716 21.3107 134.065C21.1038 135.064 20.8883 136.099 20.6613 137.166C19.6206 136.168 18.3532 134.846 16.949 133.335ZM34.0749 59.2346C35.3706 58.7385 36.6281 58.2608 37.8103 57.8224C37.2474 59.7383 36.7249 61.4429 36.2642 62.8205C35.5327 63.2919 34.7814 63.7738 34.0051 64.267C33.9528 62.9889 33.988 61.2537 34.0749 59.2346ZM99.3222 17.9762C100.55 18.4862 101.75 18.9882 102.894 19.4728C100.892 20.5455 99.1467 21.4405 97.7993 22.0612C97.0846 21.9214 96.3565 21.7773 95.6185 21.6307C96.3866 20.7376 97.6841 19.4748 99.3222 17.9762ZM211.395 83.4161C211.44 82.4024 211.49 81.3564 211.545 80.2778C212.724 81.0917 214.172 82.1779 215.788 83.4381C215.404 84.8685 215.025 86.2566 214.658 87.5465C213.432 86.0292 212.315 84.6216 211.395 83.4161ZM204.911 69.2921C204.789 68.3035 204.666 67.2835 204.542 66.2369C205.838 66.8692 207.491 67.7628 209.341 68.8035C209.199 70.2771 209.056 71.7107 208.909 73.0527C207.402 71.6705 206.026 70.3865 204.911 69.2921ZM196.027 56.3706C195.762 55.4539 195.492 54.5049 195.218 53.5403C196.61 53.9557 198.456 54.6093 200.541 55.3903C200.634 56.8552 200.718 58.2832 200.786 59.6322C198.963 58.4204 197.343 57.3164 196.027 56.3706ZM185.3 45.2066C184.905 44.3778 184.497 43.5201 184.086 42.6495C185.509 42.8259 187.425 43.1687 189.59 43.5979C189.918 44.9966 190.235 46.362 190.524 47.6571C188.523 46.7486 186.748 45.9202 185.3 45.2066ZM172.623 35.4781C172.144 34.7812 171.656 34.0695 171.161 33.3433C172.543 33.2922 174.518 33.3387 176.826 33.4402C177.362 34.738 177.885 36.0131 178.374 37.2291C176.133 36.5896 174.164 35.9973 172.623 35.4781ZM158.763 28.1682C158.211 27.591 157.651 27.0049 157.08 26.4049C158.411 26.1293 160.39 25.8623 162.721 25.6019C163.44 26.7632 164.147 27.9088 164.813 29.0035C162.437 28.7177 160.37 28.4385 158.763 28.1682ZM143.845 23.0989C143.251 22.641 142.648 22.1759 142.035 21.7009C143.211 21.2137 145.079 20.6318 147.34 19.9999C148.222 21.0248 149.09 22.0381 149.91 23.0082C147.497 23.088 145.416 23.1266 143.845 23.0989ZM128.521 20.3381C127.853 19.9772 127.178 19.6119 126.489 19.2361C127.546 18.587 129.299 17.7306 131.448 16.7578C132.507 17.6489 133.549 18.5297 134.531 19.3726C132.144 19.8087 130.079 20.1496 128.521 20.3381ZM112.814 19.9775C112.162 19.7411 111.498 19.5008 110.826 19.2556C111.676 18.4895 113.212 17.398 115.139 16.1236C116.271 16.8142 117.383 17.4969 118.443 18.1552C116.184 18.945 114.249 19.5813 112.814 19.9775ZM82.697 26.3792C82.0291 26.3495 81.3496 26.3185 80.6598 26.2862C81.2193 25.3161 82.3314 23.8281 83.7506 22.0543C85.0146 22.3668 86.2505 22.6763 87.4294 22.9792C85.5341 24.4096 83.9196 25.5788 82.697 26.3792ZM69.2266 32.7671C68.4517 32.8547 67.6569 32.9428 66.8505 33.0314C67.3098 31.9251 68.1463 30.3336 69.2318 28.4227C70.611 28.5453 71.9536 28.6692 73.2292 28.7948C71.6827 30.3999 70.3237 31.758 69.2266 32.7671ZM56.5726 41.1822C55.8445 41.3777 55.1048 41.5752 54.3466 41.7763C54.6639 40.6024 55.2734 38.8853 56.0449 36.8675C57.3639 36.7914 58.6481 36.7221 59.8655 36.6661C58.6046 38.4742 57.486 40.0206 56.5726 41.1822ZM45.493 51.2799C44.77 51.6017 44.0334 51.928 43.2756 52.2613C43.4158 51.038 43.7314 49.3057 44.1473 47.2711C45.4547 46.9889 46.7289 46.7176 47.9327 46.4694C47.0176 48.3596 46.1927 50.0006 45.493 51.2799ZM28.9133 75.4327C28.217 76.0544 27.4855 76.7028 26.7407 77.3598C26.5054 76.0913 26.2749 74.4108 26.0495 72.4949C27.292 71.7812 28.4858 71.1045 29.6147 70.4752C29.3757 72.3525 29.1421 74.0251 28.9133 75.4327ZM23.4778 89.4657C22.8667 90.2127 22.2169 90.9966 21.5593 91.7897C21.1103 90.5209 20.6076 88.8595 20.073 86.9677C21.2136 86.0608 22.3123 85.1984 23.3492 84.4C23.4211 86.2981 23.4679 88.01 23.4778 89.4657ZM20.3302 104.172C19.8494 104.998 19.3398 105.863 18.8241 106.741C18.1761 105.525 17.4032 103.918 16.5581 102.082C17.5468 101.017 18.5003 100.001 19.4004 99.0597C19.7741 100.971 20.0932 102.705 20.3302 104.172ZM19.6507 118.948C19.2834 119.919 18.8942 120.935 18.4917 121.974C17.6436 120.843 16.6282 119.377 15.5127 117.712C16.3509 116.446 17.1624 115.23 17.9274 114.113C18.5871 115.896 19.1747 117.533 19.6507 118.948ZM25.3834 148.998C25.3433 149.99 25.2982 151.012 25.2479 152.064C24.0739 151.234 22.6078 150.11 20.9697 148.813C21.3486 147.395 21.7228 146.018 22.0819 144.736C23.3226 146.299 24.4648 147.762 25.3834 148.998ZM31.8807 162.838C31.9942 163.807 32.1095 164.805 32.2247 165.83C30.9221 165.191 29.2809 164.302 27.439 163.265C27.5878 161.825 27.7379 160.423 27.8898 159.111C29.3859 160.478 30.7634 161.756 31.8807 162.838ZM40.6054 175.59C40.8827 176.544 41.1649 177.529 41.4521 178.538C40.0661 178.126 38.2761 177.502 36.2557 176.757C36.1572 175.268 36.0669 173.818 35.992 172.455C37.7416 173.611 39.3113 174.672 40.6054 175.59ZM51.3775 187.047C51.78 187.901 52.1924 188.784 52.6114 189.68C51.1935 189.493 49.2784 189.137 47.1075 188.694C46.7819 187.276 46.4697 185.89 46.1841 184.576C48.1765 185.487 49.9415 186.322 51.3775 187.047ZM63.985 196.56C64.4994 197.308 65.0254 198.077 65.5612 198.861C64.1502 198.918 62.163 198.874 59.857 198.771C59.3026 197.421 58.765 196.098 58.264 194.84C60.4783 195.466 62.4304 196.046 63.985 196.56ZM77.7745 203.918C78.3641 204.537 78.9567 205.162 79.5678 205.809C78.2669 206.095 76.3501 206.365 74.0841 206.625C73.3444 205.422 72.6215 204.239 71.9399 203.111C74.2192 203.386 76.213 203.656 77.7745 203.918ZM92.7595 209.165C93.3857 209.642 94.0204 210.127 94.6681 210.622C93.4424 211.084 91.5472 211.641 89.2911 212.251C88.4026 211.212 87.5261 210.186 86.7013 209.206C89.0893 209.141 91.1631 209.12 92.7595 209.165ZM108.03 211.811C108.698 212.176 109.373 212.545 110.064 212.925C109.014 213.561 107.317 214.389 105.252 215.325C104.225 214.46 103.211 213.603 102.253 212.783C104.539 212.35 106.517 212.01 108.03 211.811ZM123.812 212.202C124.485 212.443 125.17 212.688 125.864 212.938C124.934 213.731 123.328 214.847 121.34 216.145C120.196 215.446 119.073 214.756 118.006 214.092C120.315 213.286 122.316 212.625 123.812 212.202ZM153.969 205.812C154.662 205.84 155.369 205.87 156.087 205.902C155.484 206.896 154.353 208.392 152.914 210.182C151.625 209.862 150.366 209.545 149.167 209.236C151.06 207.818 152.712 206.628 153.969 205.812ZM167.72 199.335C168.41 199.258 169.115 199.181 169.829 199.104C169.387 200.171 168.532 201.777 167.422 203.713C166.126 203.594 164.864 203.474 163.659 203.353C165.246 201.715 166.642 200.322 167.72 199.335ZM180.015 191.076C180.777 190.871 181.552 190.665 182.346 190.454C182.048 191.635 181.471 193.327 180.737 195.305C179.381 195.387 178.06 195.462 176.809 195.525C178.037 193.758 179.125 192.238 180.015 191.076ZM191.09 181.057C191.848 180.722 192.621 180.383 193.418 180.035C193.284 181.285 192.977 183.017 192.563 185.045C191.23 185.327 189.931 185.597 188.709 185.84C189.599 183.98 190.407 182.346 191.09 181.057ZM208.007 156.427C208.676 155.832 209.363 155.224 210.072 154.598C210.311 155.889 210.54 157.641 210.765 159.649C209.549 160.334 208.382 160.983 207.27 161.592C207.521 159.622 207.768 157.872 208.007 156.427ZM213.284 142.553C213.871 141.833 214.484 141.086 215.11 140.326C215.548 141.591 216.051 143.3 216.59 145.251C215.466 146.141 214.388 146.986 213.364 147.775C213.302 145.797 213.272 144.035 213.284 142.553ZM216.346 128.276C216.862 127.389 217.408 126.458 217.966 125.511C218.602 126.698 219.347 128.234 220.155 129.98C219.141 131.081 218.164 132.13 217.242 133.104C216.889 131.319 216.582 129.682 216.346 128.276ZM217.166 113.03C217.533 112.073 217.917 111.085 218.317 110.067C219.158 111.184 220.17 112.643 221.281 114.304C220.457 115.56 219.654 116.771 218.896 117.892C218.231 116.096 217.64 114.447 217.166 113.03ZM215.526 98.0846C215.732 97.0637 215.949 96.0095 216.176 94.922C217.191 95.8958 218.43 97.183 219.801 98.6565C219.187 100.033 218.587 101.365 218.018 102.6C217.079 100.943 216.221 99.4002 215.526 98.0846ZM218.318 73.978C217.794 75.8896 217.244 77.9641 216.692 80.0491C215.003 78.5479 213.355 77.0766 211.784 75.6635C211.877 73.9012 211.973 72.1185 212.064 70.3512C214.095 71.5198 216.223 72.7599 218.318 73.978ZM210.265 59.1644C210.064 61.1238 209.865 63.255 209.663 65.4046C207.726 64.1588 205.823 62.9319 204.023 61.7594C203.822 60.0066 203.62 58.2368 203.417 56.486C205.627 57.3401 207.974 58.2661 210.265 59.1644ZM199.911 45.79C200.028 47.7366 200.174 49.8598 200.317 52.0094C198.146 51.0545 196.012 50.1146 193.997 49.2177C193.53 47.551 193.057 45.8711 192.588 44.2114C194.944 44.7062 197.455 45.2557 199.911 45.79ZM187.354 34.0345C187.778 35.9155 188.263 37.9758 188.757 40.0671C186.434 39.4463 184.155 38.8339 182.016 38.2468C181.291 36.6948 180.56 35.1316 179.839 33.5899C182.24 33.7204 184.821 33.8813 187.354 34.0345ZM173.178 24.5853C173.881 26.3321 174.669 28.2361 175.474 30.1734C173.067 29.9226 170.709 29.6737 168.5 29.4284C167.565 28.0469 166.623 26.6584 165.693 25.2891C168.076 25.0511 170.649 24.817 173.178 24.5853ZM157.608 17.3331C158.596 18.9615 159.687 20.7228 160.816 22.5362C158.359 22.6545 155.961 22.7679 153.719 22.8629C152.561 21.6412 151.404 20.4189 150.257 19.2097C152.578 18.5979 155.111 17.9604 157.608 17.3331ZM141.011 12.6307C142.252 14.0979 143.616 15.6842 145.027 17.3169C142.646 17.7999 140.328 18.2656 138.156 18.6873C136.815 17.6426 135.472 16.5973 134.142 15.5639C136.302 14.6227 138.668 13.6219 141.011 12.6307ZM124.042 10.4962C125.478 11.7321 127.05 13.0596 128.675 14.4236C126.395 15.2728 124.181 16.0933 122.112 16.8449C120.648 16.0428 119.181 15.2408 117.727 14.4467C119.701 13.1891 121.875 11.8382 124.042 10.4962ZM107.034 11.1651C108.638 12.1632 110.397 13.2356 112.185 14.3241C110.148 15.4739 108.175 16.5785 106.315 17.607C104.756 17.0361 103.186 16.4615 101.632 15.8958C103.326 14.3913 105.177 12.779 107.034 11.1651ZM90.2983 14.2117C92.015 14.9435 93.8819 15.7208 95.7802 16.5076C93.9568 17.9409 92.1901 19.3231 90.5287 20.6078C88.9272 20.2844 87.3158 19.9584 85.7212 19.6373C87.1489 17.9172 88.7169 16.0682 90.2983 14.2117ZM74.3912 19.7365C76.2598 20.2125 78.2854 20.7103 80.3342 21.2133C78.7762 22.9024 77.2666 24.5282 75.8341 26.0532C74.1426 25.9701 72.4375 25.8864 70.7478 25.8059C71.8831 23.8798 73.1341 21.8093 74.3912 19.7365ZM59.7653 27.5913C61.6339 27.7647 63.641 27.9371 65.6597 28.1112C64.3988 30.0033 63.1684 31.8394 62.0046 33.5539C60.3881 33.726 58.7568 33.8987 57.1385 34.0725C57.9552 32.0184 58.8618 29.7996 59.7653 27.5913ZM46.3165 37.4615C48.2268 37.3501 50.2722 37.2196 52.3227 37.092C51.3744 39.1523 50.449 41.1555 49.5674 43.0319C47.9809 43.4469 46.3763 43.8652 44.7834 44.2829C45.256 42.1188 45.7888 39.7799 46.3165 37.4615ZM34.6757 49.3274C36.5594 48.9286 38.5648 48.4895 40.5753 48.0494C39.9874 50.1717 39.4115 52.2422 38.8571 54.1914C37.3244 54.8579 35.7728 55.5314 34.2318 56.2019C34.3587 54.013 34.5174 51.6607 34.6757 49.3274ZM25.041 62.7137C26.8744 62.0165 28.8247 61.2613 30.7737 60.5074C30.535 62.6603 30.2994 64.7707 30.0675 66.7574C28.6298 67.662 27.1685 68.5774 25.7158 69.4892C25.4883 67.3238 25.2647 65.0067 25.041 62.7137ZM17.5184 77.4056C19.24 76.4259 21.0586 75.375 22.8804 74.3208C22.9888 76.4391 23.0924 78.5169 23.1844 80.4901C21.8804 81.633 20.5593 82.7901 19.242 83.9455C18.6754 81.845 18.0943 79.6093 17.5184 77.4056ZM12.5121 93.014C14.0685 91.7755 15.71 90.4563 17.3546 89.1364C17.8023 91.2474 18.238 93.3196 18.6439 95.2886C17.5352 96.6121 16.4114 97.9528 15.2907 99.2908C14.3872 97.2727 13.4423 95.1234 12.5121 93.014ZM9.97223 109.229C11.3549 107.736 12.8158 106.141 14.2788 104.55C15.0719 106.595 15.8485 108.608 16.58 110.528C15.6697 112.057 14.7429 113.609 13.823 115.156C12.5706 113.244 11.2564 111.211 9.97223 109.229ZM10.1627 125.851C11.2697 124.181 12.442 122.387 13.6143 120.6C14.7299 122.502 15.8253 124.373 16.8605 126.159C16.2175 127.797 15.5613 129.461 14.9118 131.114C13.3688 129.419 11.7475 127.612 10.1627 125.851ZM12.9147 142.303C13.7395 140.49 14.6129 138.533 15.4877 136.581C16.9306 138.345 18.3382 140.073 19.6757 141.731C19.3049 143.437 18.9274 145.167 18.5553 146.883C16.7216 145.403 14.8031 143.837 12.9147 142.303ZM18.4968 158.109C19.0112 156.215 19.5505 154.165 20.0932 152.112C21.7898 153.62 23.4481 155.098 25.026 156.517C24.9374 158.248 24.844 160 24.7538 161.737C22.72 160.568 20.5908 159.327 18.4968 158.109ZM26.4418 173.002C26.6572 171.018 26.8727 168.863 27.0899 166.693C29.0217 167.93 30.9204 169.149 32.7189 170.315C32.9125 172.086 33.1064 173.877 33.2999 175.649C31.0842 174.805 28.7344 173.89 26.4418 173.002ZM36.8801 186.478C36.7717 184.53 36.6329 182.409 36.4893 180.262C38.6284 181.2 40.7275 182.125 42.7092 183.009C43.1802 184.692 43.6528 186.39 44.122 188.068C41.7927 187.567 39.3096 187.014 36.8801 186.478ZM49.277 198.148C48.8547 196.238 48.3704 194.149 47.8793 192.032C50.1655 192.636 52.413 193.233 54.5302 193.808C55.2734 195.41 56.0213 197.023 56.7627 198.613C54.3633 198.477 51.7933 198.31 49.277 198.148ZM63.5022 207.662C62.784 205.873 61.9759 203.912 61.1544 201.922C63.5675 202.174 65.935 202.425 68.1494 202.671C69.1162 204.098 70.0898 205.535 71.0497 206.95C68.6504 207.192 66.0537 207.428 63.5022 207.662ZM79.1154 214.853C78.137 213.22 77.0563 211.454 75.936 209.635C78.3357 209.522 80.6834 209.418 82.8858 209.333C84.043 210.567 85.2017 211.801 86.3542 213.025C84.0581 213.617 81.5685 214.237 79.1154 214.853ZM95.5063 219.531C94.2923 218.087 92.9664 216.534 91.5971 214.94C93.9698 214.443 96.2843 213.963 98.4501 213.528C99.7777 214.548 101.105 215.568 102.424 216.579C100.247 217.527 97.8626 218.534 95.5063 219.531ZM112.676 221.596C111.245 220.369 109.685 219.052 108.076 217.699C110.288 216.878 112.441 216.086 114.463 215.355C115.917 216.161 117.372 216.966 118.818 217.765C116.885 218.988 114.773 220.296 112.676 221.596ZM129.578 221.185C127.98 220.191 126.231 219.124 124.45 218.04C126.577 216.847 128.633 215.701 130.565 214.639C132.108 215.199 133.657 215.762 135.192 216.316C133.437 217.862 131.508 219.523 129.578 221.185ZM146.365 218.041C144.613 217.304 142.706 216.518 140.767 215.718C142.646 214.245 144.466 212.826 146.181 211.507C147.796 211.834 149.422 212.164 151.03 212.489C149.572 214.249 147.971 216.143 146.365 218.041ZM162.183 212.481C160.361 212.02 158.396 211.535 156.407 211.045C158 209.33 159.546 207.676 161.004 206.133C162.622 206.211 164.253 206.292 165.87 206.37C164.72 208.306 163.454 210.392 162.183 212.481ZM177.086 204.606C175.174 204.416 173.116 204.229 171.04 204.041C172.307 202.145 173.543 200.305 174.709 198.587C176.362 198.414 178.03 198.242 179.685 198.069C178.88 200.139 177.983 202.377 177.086 204.606ZM190.405 194.721C188.498 194.825 186.454 194.952 184.402 195.08C185.337 193.045 186.249 191.066 187.117 189.209C188.717 188.794 190.335 188.376 191.943 187.96C191.471 190.107 190.936 192.423 190.405 194.721ZM202.089 183.008C200.187 183.408 198.158 183.846 196.125 184.284C196.717 182.15 197.3 180.066 197.859 178.109C199.402 177.443 200.965 176.769 202.52 176.097C202.393 178.298 202.239 180.664 202.089 183.008ZM211.744 169.609C209.934 170.293 208.012 171.032 206.087 171.77C206.33 169.569 206.571 167.412 206.81 165.383C208.224 164.49 209.66 163.587 211.086 162.688C211.307 164.9 211.525 167.269 211.744 169.609ZM219.132 154.917C217.422 155.876 215.615 156.902 213.803 157.931C213.695 155.749 213.591 153.609 213.506 151.587C214.79 150.465 216.089 149.333 217.385 148.201C217.954 150.353 218.545 152.653 219.132 154.917ZM224.254 139.156C222.676 140.401 221.005 141.737 219.33 143.074C218.869 140.935 218.42 138.833 218.004 136.837C219.132 135.484 220.275 134.114 221.416 132.748C222.339 134.805 223.306 137.002 224.254 139.156ZM226.786 122.752C225.42 124.228 223.972 125.815 222.521 127.402C221.751 125.412 220.996 123.456 220.285 121.588C221.193 120.054 222.115 118.501 223.03 116.953C224.253 118.821 225.53 120.808 226.786 122.752ZM223.147 111.451C222.042 109.565 220.965 107.722 219.94 105.953C220.594 104.3 221.26 102.624 221.92 100.961C223.443 102.635 225.044 104.42 226.614 106.162C225.505 107.833 224.326 109.643 223.147 111.451Z" fill="#2D72A2"/>
<path d="M52.4364 177.535L51.2152 171.163L47.7761 173.556L50.0689 169.966L43.9631 168.692L50.0689 167.417L47.776 163.828L51.2153 166.221L52.4364 159.848L53.6576 166.221L57.0967 163.828L54.8039 167.417L60.9097 168.692L54.8039 169.966L57.0967 173.556L53.6576 171.163L52.4364 177.535Z" fill="#EEEEEE"/>
<path d="M117.441 50.8662C147.229 50.8662 177.02 55.8853 177.02 55.8853V130.641C177.02 130.641 173.298 181.919 117.441 201.69C61.5885 181.919 57.8646 130.641 57.8646 130.641V55.8853C57.8646 55.8853 87.6527 50.8662 117.441 50.8662Z" fill="url(#paint0_linear_404_155)"/>
<path d="M116.583 191.825L115.445 191.379C71.3058 174.035 67.8324 128.552 67.8021 128.095L67.7942 127.849V61.522L70.5225 61.0118C71.4627 60.8356 93.8125 56.7045 116.582 56.7045C139.354 56.7045 161.705 60.8356 162.645 61.0118L165.373 61.522L165.365 128.094C165.336 128.552 161.863 174.035 117.72 191.378L116.583 191.825ZM74.3875 127.712C74.6037 130.518 78.2485 168.531 116.582 184.305C154.902 168.541 158.558 130.565 158.78 127.711V67.4839C152.11 66.3874 134.238 63.7517 116.582 63.7517C98.9118 63.7517 81.0546 66.3874 74.3875 67.4839V127.712Z" fill="url(#paint1_linear_404_155)"/>
<path d="M117.165 76.1695L76.5334 87.7948L94.1019 92.6202L94.1053 92.5709L94.9487 92.2072C102.447 88.9803 109.859 87.3568 117.145 87.3197C124.431 87.2793 131.59 88.8306 138.578 91.9431C139.001 92.1308 139.408 92.3162 139.673 92.4161L157.634 87.2774L117.165 76.1695Z" fill="#70AEBF"/>
<path d="M148.264 95.1599C148.264 94.8803 148.024 94.6536 147.727 94.6536C147.431 94.6536 147.191 94.8803 147.191 95.1599V105.115C147.191 105.395 147.431 105.622 147.727 105.622C148.024 105.622 148.264 105.395 148.264 105.115V95.1599Z" fill="#70AEBF"/>
<path opacity="0.4" d="M147.639 94.9911H147.549C147.5 94.9911 147.459 95.0289 147.459 95.0755V105.2C147.459 105.246 147.5 105.284 147.549 105.284H147.639C147.688 105.284 147.728 105.246 147.728 105.2V95.0755C147.728 95.0289 147.688 94.9911 147.639 94.9911Z" fill="#70AEBF"/>
<path d="M147.728 106.55C148.616 106.55 149.336 106.21 149.336 105.79C149.336 105.371 148.616 105.031 147.728 105.031C146.839 105.031 146.119 105.371 146.119 105.79C146.119 106.21 146.839 106.55 147.728 106.55Z" fill="#70AEBF"/>
<path d="M148.979 105.79H146.476C146.279 105.79 146.119 105.941 146.119 106.128V107.309C146.119 107.495 146.279 107.646 146.476 107.646H148.979C149.176 107.646 149.336 107.495 149.336 107.309V106.128C149.336 105.941 149.176 105.79 148.979 105.79Z" fill="#70AEBF"/>
<path d="M147.728 108.406C148.616 108.406 149.336 108.066 149.336 107.646C149.336 107.227 148.616 106.887 147.728 106.887C146.839 106.887 146.119 107.227 146.119 107.646C146.119 108.066 146.839 108.406 147.728 108.406Z" fill="#70AEBF"/>
<path d="M147.728 106.55C148.616 106.55 149.336 106.21 149.336 105.79C149.336 105.371 148.616 105.031 147.728 105.031C146.839 105.031 146.119 105.371 146.119 105.79C146.119 106.21 146.839 106.55 147.728 106.55Z" fill="#70AEBF"/>
<path opacity="0.45" d="M147.37 106.126C147.765 106.126 148.085 105.976 148.085 105.79C148.085 105.604 147.765 105.453 147.37 105.453C146.975 105.453 146.655 105.604 146.655 105.79C146.655 105.976 146.975 106.126 147.37 106.126Z" fill="#70AEBF"/>
<path d="M145.583 107.646H149.872L152.196 123.339H143.259L145.583 107.646Z" fill="#70AEBF"/>
<path opacity="0.6" d="M145.583 107.646H146.476L144.51 123.339H143.259L145.583 107.646Z" fill="#70AEBF"/>
<path opacity="0.25" d="M148.979 107.646H149.872L152.196 123.339H150.945L148.979 107.646Z" fill="#70AEBF"/>
<path opacity="0.15" d="M147.281 107.646H148.174L148.442 123.339H147.013L147.281 107.646Z" fill="#70AEBF"/>
<path d="M151.66 122.833H143.795C143.499 122.833 143.259 123.059 143.259 123.339C143.259 123.619 143.499 123.845 143.795 123.845H151.66C151.956 123.845 152.196 123.619 152.196 123.339C152.196 123.059 151.956 122.833 151.66 122.833Z" fill="#70AEBF"/>
<path opacity="0.5" d="M151.302 123.002H144.153C144.054 123.002 143.974 123.077 143.974 123.17C143.974 123.262 144.054 123.338 144.153 123.338H151.302C151.401 123.338 151.481 123.262 151.481 123.17C151.481 123.077 151.401 123.002 151.302 123.002Z" fill="#70AEBF"/>
<path d="M134.489 102.438H99.9939C97.0209 102.438 94.6041 104.985 94.6041 108.117V151.279C94.6041 154.412 97.0209 156.958 99.9939 156.958H101.072V154.687H99.9939C98.211 154.687 96.76 153.158 96.76 151.279C96.76 149.401 98.211 147.872 99.9939 147.872H105.384V156.958L110.774 151.279L116.163 156.958V147.872H135.567V153.551C135.567 154.176 135.081 154.687 134.489 154.687H120.475V156.958H134.489C136.272 156.958 137.722 155.43 137.722 153.551V105.846C137.722 103.967 136.272 102.438 134.489 102.438ZM96.76 146.738V108.117C96.76 106.239 98.211 104.71 99.9939 104.71H103.228V145.6H99.9939C98.7823 145.6 97.6612 146.025 96.76 146.738ZM135.567 145.6H105.384V104.71H134.489C135.081 104.71 135.567 105.221 135.567 105.846V145.6Z" fill="#70AEBF"/>
<path d="M115.636 130.516C115.879 130.85 116.893 131.932 118.609 131.932C120.257 131.932 121.251 130.952 121.542 130.567C121.431 130.191 121.418 129.65 121.671 128.865H121.661C123.317 127.123 124.583 124.319 124.583 121.558C124.583 117.313 121.82 115.088 118.61 115.088C115.397 115.088 112.65 117.312 112.65 121.558C112.65 124.33 113.908 127.146 115.574 128.884C115.844 129.607 115.795 130.133 115.636 130.516Z" fill="#70AEBF"/>
<path d="M122.634 131.51C122.634 131.51 121.623 136.301 120.297 139.035C119.827 136.959 118.943 135.045 118.943 135.045C118.943 135.045 120.074 134.568 120.074 133.79C120.074 132.83 118.609 132.354 118.609 132.354C118.609 132.354 117.139 132.691 117.139 133.79C117.139 134.535 118.275 135.045 118.275 135.045C118.275 135.045 117.389 136.968 116.92 139.033C115.585 136.287 114.563 131.464 114.563 131.464L114.57 131.457C111.264 132.718 107.513 134.923 107.513 137.104V137.942C107.513 140.988 113.292 141.681 118.641 141.681C123.998 141.681 129.705 140.988 129.705 137.942C129.705 137.343 129.705 137.708 129.705 137.104C129.705 134.891 126.048 132.734 122.634 131.51Z" fill="#70AEBF"/>
<path d="M43.4998 94.8257L42.2786 88.4532L38.8395 90.8462L41.1322 87.2567L35.0265 85.9822L41.1322 84.7077L38.8394 81.1183L42.2787 83.5112L43.4998 77.1387L44.7209 83.5111L48.1601 81.1183L45.8673 84.7077L51.973 85.9822L45.8673 87.2567L48.1601 90.8462L44.7209 88.4532L43.4998 94.8257Z" fill="#EEEEEE"/>
<path d="M41.4807 142.333L39.4057 132.517L33.5618 136.203L37.4578 130.674L27.0828 128.711L37.4578 126.747L33.5617 121.218L39.4058 124.904L41.4807 115.088L43.5557 124.904L49.3996 121.218L45.5036 126.747L55.8786 128.711L45.5036 130.674L49.3996 136.203L43.5557 132.517L41.4807 142.333Z" fill="#EEEEEE"/>
<path d="M197.376 143.306L195.301 133.49L189.457 137.176L193.353 131.647L182.978 129.684L193.353 127.72L189.457 122.191L195.301 125.877L197.376 116.061L199.451 125.877L205.294 122.191L201.399 127.72L211.774 129.684L201.399 131.647L205.294 137.176L199.451 133.49L197.376 143.306Z" fill="#EEEEEE"/>
<path d="M182.514 177.535L181.293 171.163L177.854 173.556L180.147 169.966L174.041 168.692L180.147 167.417L177.854 163.828L181.293 166.221L182.514 159.848L183.735 166.221L187.175 163.828L184.882 167.417L190.988 168.692L184.882 169.966L187.175 173.556L183.735 171.163L182.514 177.535Z" fill="#EEEEEE"/>
<path d="M191.451 94.8257L190.23 88.4532L186.791 90.8462L189.083 87.2567L182.978 85.9822L189.083 84.7077L186.791 81.1183L190.23 83.5112L191.451 77.1387L192.672 83.5111L196.111 81.1183L193.818 84.7077L199.924 85.9822L193.818 87.2567L196.111 90.8462L192.672 88.4532L191.451 94.8257Z" fill="#EEEEEE"/>
<g filter="url(#filter0_d_404_155)">
<path d="M275.706 71.568C275.706 67.1734 276.687 63.248 278.65 59.792C280.655 56.2933 283.365 53.584 286.778 51.664C290.234 49.7013 294.095 48.72 298.362 48.72C303.354 48.72 307.727 50 311.482 52.56C315.237 55.12 317.861 58.6613 319.354 63.184H309.05C308.026 61.0507 306.575 59.4507 304.698 58.384C302.863 57.3173 300.73 56.784 298.298 56.784C295.695 56.784 293.37 57.4027 291.322 58.64C289.317 59.8347 287.738 61.5413 286.586 63.76C285.477 65.9787 284.922 68.5813 284.922 71.568C284.922 74.512 285.477 77.1147 286.586 79.376C287.738 81.5947 289.317 83.3227 291.322 84.56C293.37 85.7547 295.695 86.352 298.298 86.352C300.73 86.352 302.863 85.8187 304.698 84.752C306.575 83.6427 308.026 82.0214 309.05 79.888H319.354C317.861 84.4534 315.237 88.016 311.482 90.576C307.77 93.0934 303.397 94.352 298.362 94.352C294.095 94.352 290.234 93.392 286.778 91.472C283.365 89.5094 280.655 86.8 278.65 83.344C276.687 79.888 275.706 75.9627 275.706 71.568ZM344.031 94.544C340.618 94.544 337.546 93.7974 334.815 92.304C332.084 90.768 329.93 88.6134 328.351 85.84C326.815 83.0667 326.047 79.8667 326.047 76.24C326.047 72.6133 326.836 69.4133 328.415 66.64C330.036 63.8667 332.234 61.7334 335.007 60.24C337.78 58.704 340.874 57.936 344.287 57.936C347.7 57.936 350.794 58.704 353.567 60.24C356.34 61.7334 358.516 63.8667 360.095 66.64C361.716 69.4133 362.527 72.6133 362.527 76.24C362.527 79.8667 361.695 83.0667 360.031 85.84C358.41 88.6134 356.191 90.768 353.375 92.304C350.602 93.7974 347.487 94.544 344.031 94.544ZM344.031 86.736C345.652 86.736 347.167 86.352 348.575 85.584C350.026 84.7734 351.178 83.5787 352.031 82C352.884 80.4214 353.311 78.5014 353.311 76.24C353.311 72.8694 352.415 70.288 350.623 68.496C348.874 66.6613 346.719 65.744 344.159 65.744C341.599 65.744 339.444 66.6613 337.695 68.496C335.988 70.288 335.135 72.8694 335.135 76.24C335.135 79.6107 335.967 82.2134 337.631 84.048C339.338 85.84 341.471 86.736 344.031 86.736ZM379.34 46.608V93.968H370.38V46.608H379.34ZM398.432 46.608V93.968H389.472V46.608H398.432ZM441.525 75.472C441.525 76.752 441.439 77.904 441.269 78.928H415.349C415.562 81.488 416.458 83.4934 418.037 84.944C419.615 86.3947 421.557 87.12 423.861 87.12C427.189 87.12 429.557 85.6907 430.965 82.832H440.629C439.605 86.2454 437.642 89.0614 434.741 91.28C431.839 93.456 428.277 94.544 424.053 94.544C420.639 94.544 417.567 93.7974 414.837 92.304C412.149 90.768 410.037 88.6134 408.501 85.84C407.007 83.0667 406.261 79.8667 406.261 76.24C406.261 72.5707 407.007 69.3493 408.501 66.576C409.994 63.8027 412.085 61.6693 414.773 60.176C417.461 58.6827 420.554 57.936 424.053 57.936C427.423 57.936 430.431 58.6613 433.077 60.112C435.765 61.5627 437.834 63.632 439.285 66.32C440.778 68.9654 441.525 72.016 441.525 75.472ZM432.245 72.912C432.202 70.608 431.37 68.7733 429.749 67.408C428.127 66 426.143 65.296 423.797 65.296C421.578 65.296 419.701 65.9787 418.165 67.344C416.671 68.6667 415.754 70.5227 415.413 72.912H432.245ZM463.233 57.936C465.878 57.936 468.203 58.4693 470.209 59.536C472.214 60.56 473.793 61.904 474.945 63.568V58.512H483.969V94.224C483.969 97.5094 483.307 100.432 481.985 102.992C480.662 105.595 478.678 107.643 476.033 109.136C473.387 110.672 470.187 111.44 466.433 111.44C461.398 111.44 457.259 110.267 454.017 107.92C450.817 105.573 449.003 102.373 448.577 98.32H457.473C457.942 99.9414 458.945 101.221 460.481 102.16C462.059 103.141 463.958 103.632 466.177 103.632C468.779 103.632 470.891 102.843 472.513 101.264C474.134 99.728 474.945 97.3814 474.945 94.224V88.72C473.793 90.384 472.193 91.7707 470.145 92.88C468.139 93.9894 465.835 94.544 463.233 94.544C460.246 94.544 457.515 93.776 455.041 92.24C452.566 90.704 450.603 88.5494 449.153 85.776C447.745 82.96 447.041 79.7387 447.041 76.112C447.041 72.528 447.745 69.3493 449.153 66.576C450.603 63.8027 452.545 61.6693 454.977 60.176C457.451 58.6827 460.203 57.936 463.233 57.936ZM474.945 76.24C474.945 74.064 474.518 72.208 473.665 70.672C472.811 69.0933 471.659 67.8987 470.209 67.088C468.758 66.2347 467.201 65.808 465.537 65.808C463.873 65.808 462.337 66.2133 460.929 67.024C459.521 67.8347 458.369 69.0294 457.473 70.608C456.619 72.144 456.193 73.9787 456.193 76.112C456.193 78.2453 456.619 80.1227 457.473 81.744C458.369 83.3227 459.521 84.5387 460.929 85.392C462.379 86.2454 463.915 86.672 465.537 86.672C467.201 86.672 468.758 86.2667 470.209 85.456C471.659 84.6027 472.811 83.408 473.665 81.872C474.518 80.2934 474.945 78.416 474.945 76.24ZM526.96 75.472C526.96 76.752 526.874 77.904 526.704 78.928H500.784C500.997 81.488 501.893 83.4934 503.472 84.944C505.05 86.3947 506.992 87.12 509.296 87.12C512.624 87.12 514.992 85.6907 516.4 82.832H526.064C525.04 86.2454 523.077 89.0614 520.176 91.28C517.274 93.456 513.712 94.544 509.488 94.544C506.074 94.544 503.002 93.7974 500.272 92.304C497.584 90.768 495.472 88.6134 493.936 85.84C492.442 83.0667 491.696 79.8667 491.696 76.24C491.696 72.5707 492.442 69.3493 493.936 66.576C495.429 63.8027 497.52 61.6693 500.208 60.176C502.896 58.6827 505.989 57.936 509.488 57.936C512.858 57.936 515.866 58.6613 518.512 60.112C521.2 61.5627 523.269 63.632 524.72 66.32C526.213 68.9654 526.96 72.016 526.96 75.472ZM517.68 72.912C517.637 70.608 516.805 68.7733 515.184 67.408C513.562 66 511.578 65.296 509.232 65.296C507.013 65.296 505.136 65.9787 503.6 67.344C502.106 68.6667 501.189 70.5227 500.848 72.912H517.68Z" fill="url(#paint2_linear_404_155)"/>
</g>
<g filter="url(#filter1_d_404_155)">
<path d="M297.166 116.576C304.27 116.576 310.478 117.984 315.79 120.8C321.102 123.616 325.198 127.584 328.078 132.704C331.022 137.76 332.494 143.616 332.494 150.272C332.494 156.864 331.022 162.72 328.078 167.84C325.198 172.96 321.07 176.928 315.694 179.744C310.382 182.56 304.206 183.968 297.166 183.968H271.918V116.576H297.166ZM296.11 169.76C302.318 169.76 307.15 168.064 310.606 164.672C314.062 161.28 315.79 156.48 315.79 150.272C315.79 144.064 314.062 139.232 310.606 135.776C307.15 132.32 302.318 130.592 296.11 130.592H288.334V169.76H296.11ZM351.844 124.832C348.964 124.832 346.596 124 344.74 122.336C342.948 120.608 342.052 118.496 342.052 116C342.052 113.44 342.948 111.328 344.74 109.664C346.596 107.936 348.964 107.072 351.844 107.072C354.66 107.072 356.964 107.936 358.756 109.664C360.612 111.328 361.54 113.44 361.54 116C361.54 118.496 360.612 120.608 358.756 122.336C356.964 124 354.66 124.832 351.844 124.832ZM360.004 130.4V183.968H343.588V130.4H360.004ZM370.557 157.088C370.557 151.584 371.581 146.752 373.629 142.592C375.741 138.432 378.589 135.232 382.173 132.992C385.757 130.752 389.757 129.632 394.173 129.632C397.949 129.632 401.245 130.4 404.061 131.936C406.941 133.472 409.149 135.488 410.685 137.984V130.4H427.101V183.968H410.685V176.384C409.085 178.88 406.845 180.896 403.965 182.432C401.149 183.968 397.853 184.736 394.077 184.736C389.725 184.736 385.757 183.616 382.173 181.376C378.589 179.072 375.741 175.84 373.629 171.68C371.581 167.456 370.557 162.592 370.557 157.088ZM410.685 157.184C410.685 153.088 409.533 149.856 407.229 147.488C404.989 145.12 402.237 143.936 398.973 143.936C395.709 143.936 392.925 145.12 390.621 147.488C388.381 149.792 387.261 152.992 387.261 157.088C387.261 161.184 388.381 164.448 390.621 166.88C392.925 169.248 395.709 170.432 398.973 170.432C402.237 170.432 404.989 169.248 407.229 166.88C409.533 164.512 410.685 161.28 410.685 157.184ZM457.313 139.328C459.233 136.384 461.633 134.08 464.513 132.416C467.393 130.688 470.593 129.824 474.113 129.824V147.2H469.601C465.505 147.2 462.433 148.096 460.385 149.888C458.337 151.616 457.313 154.688 457.313 159.104V183.968H440.897V130.4H457.313V139.328ZM538.599 130.4L504.999 209.408H487.335L499.623 182.144L477.831 130.4H496.167L508.551 163.904L520.839 130.4H538.599Z" fill="url(#paint3_linear_404_155)"/>
</g>
<defs>
<filter id="filter0_d_404_155" x="271.706" y="46.608" width="259.253" height="72.832" filterUnits="userSpaceOnUse" color-interpolation-filters="sRGB">
<feFlood flood-opacity="0" result="BackgroundImageFix"/>
<feColorMatrix in="SourceAlpha" type="matrix" values="0 0 0 0 0 0 0 0 0 0 0 0 0 0 0 0 0 0 127 0" result="hardAlpha"/>
<feOffset dy="4"/>
<feGaussianBlur stdDeviation="2"/>
<feComposite in2="hardAlpha" operator="out"/>
<feColorMatrix type="matrix" values="0 0 0 0 0 0 0 0 0 0 0 0 0 0 0 0 0 0 0.25 0"/>
<feBlend mode="normal" in2="BackgroundImageFix" result="effect1_dropShadow_404_155"/>
<feBlend mode="normal" in="SourceGraphic" in2="effect1_dropShadow_404_155" result="shape"/>
</filter>
<filter id="filter1_d_404_155" x="267.918" y="107.072" width="274.681" height="110.336" filterUnits="userSpaceOnUse" color-interpolation-filters="sRGB">
<feFlood flood-opacity="0" result="BackgroundImageFix"/>
<feColorMatrix in="SourceAlpha" type="matrix" values="0 0 0 0 0 0 0 0 0 0 0 0 0 0 0 0 0 0 127 0" result="hardAlpha"/>
<feOffset dy="4"/>
<feGaussianBlur stdDeviation="2"/>
<feComposite in2="hardAlpha" operator="out"/>
<feColorMatrix type="matrix" values="0 0 0 0 0 0 0 0 0 0 0 0 0 0 0 0 0 0 0.25 0"/>
<feBlend mode="normal" in2="BackgroundImageFix" result="effect1_dropShadow_404_155"/>
<feBlend mode="normal" in="SourceGraphic" in2="effect1_dropShadow_404_155" result="shape"/>
</filter>
<linearGradient id="paint0_linear_404_155" x1="57.8678" y1="50.8662" x2="57.8678" y2="201.69" gradientUnits="userSpaceOnUse">
<stop offset="0.3" stop-color="#005493"/>
<stop offset="1" stop-color="#001B54"/>
</linearGradient>
<linearGradient id="paint1_linear_404_155" x1="67.7955" y1="56.6989" x2="67.7955" y2="191.819" gradientUnits="userSpaceOnUse">
<stop offset="0.3" stop-color="#EEEEEE"/>
<stop offset="1" stop-color="#DEDEDE"/>
</linearGradient>
<linearGradient id="paint2_linear_404_155" x1="401.275" y1="23.968" x2="401.275" y2="119.968" gradientUnits="userSpaceOnUse">
<stop stop-color="#001B54"/>
<stop offset="1" stop-color="#2D72A2"/>
</linearGradient>
<linearGradient id="paint3_linear_404_155" x1="402.275" y1="77.968" x2="402.275" y2="221.968" gradientUnits="userSpaceOnUse">
<stop stop-color="#2D72A2"/>
<stop offset="0.975962" stop-color="#001B54"/>
</linearGradient>
</defs>
</svg>
