<svg width="403" height="385" viewBox="0 0 403 385" fill="none" xmlns="http://www.w3.org/2000/svg">
<path fill-rule="evenodd" clip-rule="evenodd" d="M390.461 175.009C393.836 169.047 396.003 164.68 395.794 163.502C395.528 161.886 392.327 165.944 388.035 172.086C385.338 168.86 382.463 165.469 379.566 162.063C381.102 158.257 382.558 154.594 383.849 151.246C393.021 158.42 400.752 164.258 400.409 162.319C400.128 160.615 393.748 154.597 385.382 147.184C387.695 140.92 389.09 136.366 388.677 135.205C388.153 133.728 385.7 138.096 382.531 144.665C379.299 141.829 375.861 138.849 372.401 135.855C373.283 131.826 374.109 127.964 374.822 124.458C385.003 130.187 393.552 134.78 392.861 132.837C392.305 131.267 385.084 126.33 375.644 120.278C376.833 114.011 377.452 109.514 376.947 108.475C376.179 107.154 374.546 111.62 372.566 118.315C368.88 115.973 364.954 113.512 361.003 111.04C361.205 106.924 361.37 102.984 361.472 99.426C372.524 103.61 381.755 106.884 380.719 104.935C379.881 103.496 371.908 99.6913 361.561 95.1201C361.634 88.9852 361.406 84.6318 360.62 83.7075C359.739 82.5306 358.933 86.9611 358.145 93.6204C354.065 91.838 349.722 89.9722 345.36 88.1042C344.862 84.0242 344.359 80.1264 343.862 76.6328C355.669 79.1111 365.608 81.0309 364.383 79.3895C363.247 77.9216 354.447 75.2341 343.19 72.1711C342.27 66.4142 341.366 62.4176 340.506 61.7014C339.533 60.6725 339.483 64.8753 339.793 71.2552C335.369 70.0705 330.664 68.8439 325.957 67.6206C324.797 63.6765 323.666 59.9278 322.609 56.5879C334.959 57.2894 345.462 57.7038 343.86 56.1993C342.557 54.976 333.149 53.6604 321.228 52.3317C319.452 47.0518 317.983 43.4462 317.059 42.8403C315.86 41.941 316.411 45.9011 317.705 51.9468C313.119 51.4528 308.261 50.9587 303.413 50.468C301.663 46.8581 299.976 43.4293 298.423 40.3683C310.901 39.2373 321.55 38.1274 319.566 36.944C318.107 35.8484 308.459 35.8974 296.332 36.326C293.716 31.3802 291.676 28.0246 290.666 27.5076C289.355 26.8363 290.564 30.6727 292.85 36.4565C288.228 36.6388 283.355 36.8611 278.492 37.0886C276.139 33.7489 273.891 30.5903 271.837 27.7871C284.131 24.7732 294.759 22.0683 292.76 21.2168C291.129 20.3838 281.363 21.9635 269.215 24.2618C265.841 19.8138 263.285 16.8469 262.188 16.5046C260.771 16.0597 262.599 19.6474 265.773 24.9189C261.191 25.8023 256.374 26.7576 251.573 27.7096C248.651 24.7328 245.883 21.952 243.359 19.4737C255.254 14.5596 265.659 10.1203 263.443 9.42432C261.631 8.85933 251.917 12.0261 240.017 16.2453C236.069 12.5037 233.105 9.9866 232.034 9.81847C230.646 9.60065 232.961 12.7674 236.834 17.378C232.503 18.9295 227.967 20.5797 223.459 22.2195C220.176 19.7565 217.077 17.4638 214.248 15.4188C225.32 8.72996 235.104 2.70163 232.867 2.35609C231.042 2.06948 221.84 6.7811 210.637 12.8531C205.993 9.60776 202.548 7.46293 201.451 7.46293C199.912 7.46293 202.841 10.378 207.609 14.5001C203.596 16.6907 199.429 18.9856 195.261 21.2812C191.621 19.3624 188.18 17.575 185.028 15.9805C194.938 7.58248 203.71 0 201.451 0C199.458 0 190.908 6.09601 180.656 13.8133C175.422 11.2705 171.573 9.64542 170.465 9.81956C169.033 10.0439 172.422 12.4972 177.879 15.9156C174.317 18.6167 170.639 21.4286 166.965 24.2421C163.162 22.9112 159.512 21.6563 156.2 20.559C164.721 10.8076 172.306 2.00125 170.041 2.35663C168.047 2.64103 160.648 9.95658 151.823 19.1456C145.801 17.2498 141.462 16.141 140.302 16.5051C138.948 16.9658 143.037 19.0267 149.343 21.7397C146.344 24.884 143.253 28.1496 140.16 31.4211C136.093 30.6383 132.198 29.9085 128.654 29.2835C135.4 18.4284 141.299 8.7234 139.05 9.42487C137.215 10.0003 131.199 18.2159 124.058 28.5045C117.565 27.4525 112.913 26.9519 111.828 27.5076C110.442 28.2162 115.026 29.7103 121.971 31.5244C119.529 35.0726 116.995 38.7854 114.475 42.4728C110.496 42.3026 106.687 42.1595 103.182 42.0639C108.033 30.4735 112.2 20.1692 110.15 21.2173C108.323 21.9308 103.665 30.8206 98.2622 41.9612C91.3681 41.8718 86.4573 42.0765 85.4404 42.8396C84.1478 43.6885 89.2012 44.4615 96.6886 45.2181C94.8481 49.0562 92.9475 53.0747 91.0587 57.0717C87.0367 57.5029 83.1793 57.9348 79.6402 58.3643C82.4492 46.2472 84.7813 35.5508 82.9263 36.9429C81.415 37.9353 78.3732 47.275 74.9334 58.961C67.9033 59.9021 62.9158 60.8253 61.9838 61.7004C60.7936 62.6933 66.1652 62.6671 73.9591 62.2911C72.7805 66.3436 71.5729 70.5887 70.3688 74.8209C66.466 75.8276 62.7052 76.8139 59.2567 77.7507C60.1003 65.4265 60.7053 54.6451 59.0519 56.1983C57.7083 57.4615 56.2568 67.0425 54.7944 78.9888C47.6648 81.0124 42.6261 82.7063 41.8792 83.707C40.939 84.9703 46.4892 84.1628 54.3569 82.6196C53.8682 86.7367 53.3797 91.04 52.8939 95.335C49.136 96.9367 45.5142 98.4969 42.2054 99.9583C40.9866 87.9055 39.7935 77.5116 38.5242 79.3884C37.3458 80.7728 37.4138 90.1486 37.885 101.895C31.1818 104.95 26.495 107.37 25.9609 108.474C25.1488 109.868 30.5029 108.226 38.0386 105.518C38.223 109.609 38.4417 113.894 38.6634 118.183C35.1841 120.319 31.8263 122.397 28.7619 124.331C25.6573 112.852 22.8453 103.098 21.7744 104.934C21.053 106.561 22.666 115.514 25.0099 126.726C18.6843 130.812 14.2562 133.978 13.8216 135.203C13.4127 136.739 18.6389 134.245 25.783 130.381C26.6265 134.349 27.5357 138.511 28.4473 142.679C25.3397 145.344 22.3374 147.942 19.6132 150.35C14.7815 139.733 10.5751 130.861 10.0498 132.836C9.48142 134.438 12.3848 142.743 16.4207 153.207C10.8165 158.27 6.91663 162.164 6.6979 163.5C6.42216 165.056 11.251 161.692 17.7814 156.718C19.2699 160.524 20.8633 164.532 22.4653 168.552C19.7558 171.715 17.1427 174.787 14.782 177.617C8.35987 168.038 2.85798 160.205 2.51128 162.316C2.2303 163.897 6.36865 171.476 11.9729 181.023C7.34012 186.705 4.1872 190.966 4.1872 192.191C4.1872 193.725 8.29473 189.855 13.8193 184.153C15.9751 187.785 18.2788 191.618 20.5993 195.469C18.466 198.974 16.4207 202.366 14.5802 205.487C6.68917 196.999 0 190.088 0 192.193C0 193.895 5.29713 200.791 12.3249 209.364C8.79442 215.523 6.485 220.073 6.6979 221.279C6.96491 222.794 10.2714 218.53 14.668 212.216C17.3922 215.506 20.2921 218.969 23.2175 222.452C21.6893 226.252 20.2351 229.913 18.9396 233.269C9.8386 226.111 2.164 220.353 2.5107 222.452C2.78934 224.018 9.1033 229.942 17.4056 237.289C15.0025 243.716 13.5058 248.396 13.8211 249.577C14.3493 250.945 16.846 246.378 20.0786 239.648C23.3595 242.526 26.8503 245.554 30.375 248.605C29.5031 252.576 28.6851 256.39 27.9836 259.869C17.8489 254.167 9.36159 249.613 10.0492 251.549C10.4669 253.122 17.6725 258.079 27.1489 264.15C25.9388 270.605 25.3478 275.248 25.9616 276.307C26.6119 277.65 28.2367 273.019 30.2418 266.124C33.9288 268.462 37.86 270.92 41.8138 273.385C41.601 277.535 41.416 281.511 41.2915 285.105C30.2051 280.955 20.9116 277.669 21.7749 279.451C22.6184 281.029 30.7054 284.903 41.1635 289.513C41.0356 295.725 41.1862 300.133 41.8792 301.062C42.765 302.25 43.612 297.727 44.4526 290.956C48.5514 292.741 52.9084 294.605 57.2859 296.473C57.76 300.551 58.2376 304.45 58.7117 307.951C46.9638 305.462 37.1328 303.591 38.5249 305.391C39.5132 306.713 48.1739 309.289 59.3336 312.27C60.2282 318.146 61.1171 322.266 61.9838 323.079C63.0862 323.996 63.2194 319.686 62.9523 313.229C67.3153 314.377 71.9482 315.566 76.589 316.758C77.7449 320.731 78.867 324.515 79.9154 327.893C67.7381 327.156 57.4674 326.697 59.0526 328.186C60.3364 329.395 69.5281 330.693 81.2248 332.005C83.0112 337.456 84.4998 341.235 85.4399 341.939C86.6499 342.734 86.0734 338.601 84.7582 332.394C89.3055 332.886 94.1284 333.378 98.9462 333.868C100.747 337.585 102.482 341.111 104.079 344.243C91.7032 345.369 81.1369 346.495 82.9263 347.836C84.3834 348.793 94.0069 348.654 106.127 348.184C108.757 353.122 110.811 356.444 111.828 356.876C113.134 357.544 111.947 353.758 109.695 348.04C114.338 347.844 119.241 347.614 124.135 347.387C126.493 350.741 128.748 353.912 130.802 356.721C118.52 359.746 107.973 362.537 110.149 363.562C111.774 364.393 121.482 362.778 133.557 360.428C136.846 364.766 139.309 367.627 140.303 367.88C141.695 368.318 139.988 364.863 136.971 359.758C141.476 358.865 146.214 357.898 150.932 356.934C153.763 359.844 156.447 362.563 158.91 365.006C147.108 369.883 136.846 374.268 139.05 374.96C140.845 375.52 150.437 372.42 162.251 368.263C166.31 372.156 169.369 374.788 170.465 374.96C171.882 375.182 169.477 371.881 165.494 367.115C169.88 365.555 174.478 363.893 179.052 362.238C182.349 364.678 185.468 366.95 188.326 368.978C177.285 375.66 167.622 381.678 170.041 382.028C171.865 382.314 181.042 377.671 192.203 371.681C196.824 374.839 200.277 376.921 201.451 376.921C202.863 376.921 199.964 374.071 195.273 370.025C199.209 367.895 203.288 365.666 207.374 363.434C210.972 365.353 214.372 367.137 217.488 368.733C207.658 376.984 199.029 384.396 201.451 384.396C203.278 384.396 211.581 378.421 221.644 370.82C226.983 373.45 230.913 375.135 232.034 374.96C233.48 374.733 229.981 372.216 224.401 368.73C228.038 365.966 231.809 363.076 235.585 360.187C239.448 361.531 243.155 362.801 246.509 363.906C238.067 373.625 230.613 382.384 232.867 382.029C234.709 381.74 242.083 374.46 250.915 365.322C256.809 367.167 261.046 368.238 262.188 367.88C263.668 367.534 259.604 365.545 253.278 362.868C256.351 359.668 259.524 356.34 262.696 353.01C266.641 353.771 270.417 354.482 273.862 355.093C267.105 365.93 261.187 375.662 263.443 374.96C265.275 374.385 271.346 366.173 278.534 355.888C284.976 356.934 289.584 357.431 290.666 356.878C292.054 356.287 287.461 354.838 280.516 353.039C282.991 349.474 285.558 345.736 288.104 342.024C292.205 342.209 296.131 342.368 299.719 342.481C294.893 354.187 290.705 364.613 292.758 363.562C294.432 362.704 299.028 353.765 304.405 342.605C311.204 342.737 316.049 342.602 317.059 341.939C318.34 340.977 313.366 340.124 305.982 339.316C307.828 335.453 309.734 331.41 311.626 327.391C315.637 326.975 319.483 326.563 323.004 326.157C320.133 338.301 317.709 349.055 319.568 347.836C321.228 346.703 324.305 337.294 327.753 325.586C334.75 324.702 339.681 323.854 340.507 323.079C341.688 321.971 336.423 321.903 328.736 322.224C329.907 318.199 331.106 313.987 332.295 309.793C336.243 308.789 340.036 307.807 343.506 306.876C342.726 319.08 342.217 329.731 343.862 328.186C345.202 326.927 346.648 317.458 348.104 305.618C355.027 303.672 359.884 302.046 360.62 301.062C361.685 299.812 356.283 300.597 348.531 302.105C349.026 297.962 349.519 293.623 350.008 289.288C353.712 287.72 357.286 286.191 360.556 284.757C361.733 296.752 362.944 307.08 364.383 305.391C365.409 303.876 365.255 294.551 364.747 282.894C371.524 279.837 376.305 277.411 376.947 276.305C377.625 274.902 372.18 276.562 364.582 279.274C364.386 275.123 364.158 270.769 363.936 266.415C367.383 264.291 370.712 262.224 373.752 260.305C376.828 271.758 379.648 281.458 380.719 279.45C381.589 277.954 380.003 269.037 377.646 257.816C383.887 253.783 388.245 250.693 388.678 249.575C389.225 248.039 384.043 250.493 376.899 254.303C376.028 250.244 375.084 245.977 374.138 241.703C377.288 239.013 380.321 236.405 383.074 233.992C387.916 244.629 392.16 253.525 392.863 251.548C393.433 249.936 390.497 241.559 386.431 231.02C391.849 226.163 395.581 222.485 395.794 221.277C396.066 219.751 391.448 222.894 385.125 227.656C383.599 223.755 381.963 219.64 380.321 215.518C383.009 212.37 385.591 209.326 387.921 206.522C394.435 216.299 400.057 224.425 400.409 222.45C400.693 220.719 396.413 212.886 390.698 203.151C395.243 197.565 398.313 193.399 398.313 192.191C398.313 190.671 394.3 194.432 388.869 200.041C386.755 196.477 384.497 192.725 382.232 188.965C384.383 185.398 386.431 181.97 388.267 178.817C396.188 187.343 402.921 194.303 402.921 192.191C402.919 190.489 397.563 183.582 390.461 175.009ZM380.614 148.712C379.216 151.699 377.739 154.936 376.263 158.175C373.868 155.358 371.524 152.598 369.295 149.952C369.923 147.1 370.561 144.21 371.195 141.345C374.259 143.721 377.459 146.234 380.614 148.712ZM344.757 286.605C342.544 287.42 340.393 288.203 338.368 288.917C339.368 285.656 340.3 282.765 341.128 280.463C342.356 279.695 343.62 278.91 344.918 278.105C344.99 280.228 344.918 283.169 344.757 286.605ZM233.738 354.934C231.67 354.097 229.645 353.273 227.715 352.471C231.421 350.542 234.568 348.98 236.897 347.962C238.004 348.176 239.132 348.393 240.277 348.614C239.056 350.085 236.706 352.306 233.738 354.934ZM28.8305 220.804C29.8846 218.542 30.9125 216.366 31.8869 214.354C33.543 217.184 35.0281 219.779 36.2498 222.013C35.8979 223.667 35.5313 225.381 35.1452 227.148C33.3749 225.495 31.2191 223.306 28.8305 220.804ZM57.9619 98.093C60.1659 97.2714 62.3049 96.4803 64.3159 95.7543C63.3584 98.9271 62.4696 101.75 61.6859 104.031C60.4416 104.812 59.1637 105.61 57.8432 106.427C57.7542 104.31 57.8141 101.437 57.9619 98.093ZM168.949 29.7687C171.037 30.6133 173.078 31.4446 175.024 32.2471C171.619 34.0235 168.65 35.5056 166.358 36.5335C165.142 36.302 163.904 36.0634 162.648 35.8206C163.955 34.3416 166.162 32.2504 168.949 29.7687ZM359.586 138.138C359.663 136.459 359.748 134.727 359.841 132.941C361.847 134.288 364.31 136.087 367.059 138.174C366.405 140.543 365.761 142.842 365.136 144.978C363.051 142.465 361.151 140.134 359.586 138.138ZM348.557 114.748C348.349 113.111 348.14 111.422 347.929 109.689C350.133 110.736 352.945 112.216 356.092 113.939C355.851 116.379 355.607 118.753 355.357 120.976C352.794 118.687 350.453 116.561 348.557 114.748ZM333.445 93.3502C332.994 91.8321 332.535 90.2605 332.069 88.6631C334.437 89.3511 337.577 90.4334 341.123 91.7268C341.281 94.1527 341.424 96.5174 341.54 98.7514C338.439 96.7446 335.683 94.9164 333.445 93.3502ZM315.198 74.8625C314.526 73.49 313.832 72.0696 313.133 70.6279C315.554 70.92 318.813 71.4877 322.495 72.1985C323.053 74.5147 323.593 76.7758 324.084 78.9205C320.68 77.416 317.661 76.0442 315.198 74.8625ZM293.634 58.752C292.819 57.5979 291.989 56.4194 291.147 55.2168C293.498 55.1321 296.858 55.2091 300.784 55.3772C301.695 57.5264 302.585 59.638 303.417 61.6517C299.605 60.5927 296.256 59.6118 293.634 58.752ZM270.058 46.6468C269.119 45.6909 268.167 44.7203 267.195 43.7267C269.459 43.2703 272.826 42.8282 276.791 42.3969C278.014 44.3201 279.216 46.2172 280.349 48.03C276.308 47.5567 272.792 47.0944 270.058 46.6468ZM244.682 38.252C243.672 37.4937 242.646 36.7235 241.604 35.9369C243.604 35.1301 246.782 34.1664 250.628 33.12C252.128 34.8172 253.604 36.4953 254.999 38.1018C250.895 38.2339 247.355 38.2978 244.682 38.252ZM218.616 33.6801C217.48 33.0824 216.332 32.4775 215.16 31.8551C216.958 30.7802 219.94 29.362 223.595 27.751C225.396 29.2267 227.169 30.6853 228.839 32.0812C224.779 32.8034 221.266 33.3679 218.616 33.6801ZM191.898 33.0829C190.789 32.6914 189.66 32.2935 188.517 31.8874C189.963 30.6188 192.575 28.8112 195.853 26.7008C197.779 27.8444 199.67 28.975 201.473 30.0651C197.631 31.3731 194.339 32.4268 191.898 33.0829ZM140.669 43.6842C139.533 43.635 138.377 43.5836 137.204 43.5301C138.155 41.9237 140.047 39.4595 142.461 36.5221C144.611 37.0396 146.713 37.5521 148.719 38.0537C145.495 40.4225 142.748 42.3587 140.669 43.6842ZM117.755 54.2626C116.437 54.4076 115.085 54.5535 113.714 54.7003C114.495 52.8682 115.918 50.2327 117.764 47.0682C120.11 47.2712 122.394 47.4764 124.564 47.6844C121.933 50.3425 119.622 52.5915 117.755 54.2626ZM96.2308 68.198C94.9923 68.5218 93.7341 68.8488 92.4444 69.1819C92.9841 67.2379 94.0209 64.3944 95.3332 61.0529C97.5768 60.9268 99.7613 60.8121 101.832 60.7193C99.6873 63.7136 97.7845 66.2744 96.2308 68.198ZM77.3843 84.9199C76.1544 85.4528 74.9015 85.9932 73.6124 86.5451C73.8509 84.5193 74.3878 81.6506 75.0952 78.2813C77.3191 77.814 79.4865 77.3647 81.5342 76.9537C79.9776 80.0839 78.5745 82.8014 77.3843 84.9199ZM49.1819 124.917C47.9975 125.947 46.7532 127.02 45.4863 128.108C45.0861 126.008 44.694 123.225 44.3106 120.052C46.4241 118.87 48.4548 117.75 50.375 116.707C49.9685 119.816 49.5711 122.586 49.1819 124.917ZM39.9361 148.156C38.8966 149.393 37.7913 150.691 36.6727 152.004C35.9089 149.903 35.0538 147.152 34.1445 144.019C36.0846 142.517 37.9536 141.089 39.7173 139.767C39.8396 142.91 39.9192 145.745 39.9361 148.156ZM34.582 172.51C33.7641 173.878 32.8973 175.31 32.0201 176.764C30.9178 174.75 29.6031 172.089 28.1656 169.049C29.8474 167.285 31.4693 165.602 33.0004 164.044C33.636 167.209 34.1788 170.08 34.582 172.51ZM33.4261 196.979C32.8013 198.587 32.1393 200.269 31.4547 201.99C30.012 200.117 28.2848 197.689 26.3873 194.932C27.8131 192.835 29.1935 190.822 30.4948 188.972C31.6169 191.925 32.6164 194.636 33.4261 196.979ZM43.1775 246.742C43.1093 248.385 43.0326 250.077 42.947 251.819C40.9501 250.445 38.4562 248.583 35.6698 246.435C36.3143 244.087 36.9508 241.807 37.5616 239.684C39.6721 242.272 41.615 244.695 43.1775 246.742ZM54.2295 269.661C54.4226 271.266 54.6187 272.918 54.8147 274.616C52.5989 273.558 49.8072 272.085 46.6741 270.368C46.9273 267.983 47.1826 265.662 47.441 263.489C49.9859 265.753 52.329 267.869 54.2295 269.661ZM69.0704 290.778C69.5421 292.358 70.0221 293.989 70.5106 295.66C68.153 294.978 65.1082 293.945 61.6715 292.711C61.5039 290.245 61.3503 287.844 61.2229 285.587C64.199 287.501 66.8691 289.258 69.0704 290.778ZM87.3939 309.751C88.0785 311.166 88.78 312.628 89.4928 314.112C87.0809 313.802 83.8233 313.212 80.1306 312.479C79.5767 310.131 79.0456 307.835 78.5598 305.659C81.9489 307.168 84.9512 308.551 87.3939 309.751ZM108.839 325.505C109.714 326.744 110.609 328.017 111.521 329.315C109.12 329.41 105.74 329.337 101.818 329.166C100.875 326.931 99.9601 324.74 99.1079 322.657C102.874 323.693 106.195 324.654 108.839 325.505ZM132.296 337.69C133.298 338.715 134.307 339.75 135.346 340.821C133.133 341.295 129.873 341.742 126.018 342.173C124.76 340.18 123.53 338.221 122.371 336.353C126.248 336.809 129.639 337.256 132.296 337.69ZM157.785 346.379C158.85 347.169 159.93 347.972 161.032 348.792C158.947 349.557 155.723 350.479 151.885 351.489C150.374 349.769 148.883 348.07 147.48 346.447C151.542 346.339 155.07 346.304 157.785 346.379ZM183.761 350.761C184.897 351.365 186.045 351.976 187.221 352.605C185.434 353.659 182.548 355.03 179.035 356.58C177.288 355.147 175.563 353.728 173.934 352.37C177.822 351.653 181.187 351.09 183.761 350.761ZM210.606 351.408C211.751 351.807 212.916 352.213 214.097 352.627C212.515 353.94 209.783 355.788 206.401 357.938C204.455 356.78 202.545 355.638 200.73 354.538C204.658 353.203 208.061 352.109 210.606 351.408ZM261.904 340.826C263.082 340.873 264.285 340.922 265.506 340.975C264.481 342.621 262.557 345.099 260.109 348.063C257.916 347.533 255.775 347.008 253.735 346.496C256.955 344.148 259.765 342.178 261.904 340.826ZM285.294 330.1C286.468 329.973 287.667 329.845 288.882 329.718C288.13 331.485 286.675 334.144 284.787 337.35C282.583 337.153 280.436 336.955 278.386 336.754C281.086 334.042 283.46 331.735 285.294 330.1ZM306.208 316.423C307.504 316.084 308.823 315.743 310.173 315.393C309.666 317.349 308.685 320.151 307.436 323.427C305.13 323.562 302.883 323.687 300.755 323.791C302.844 320.865 304.694 318.348 306.208 316.423ZM325.047 299.832C326.336 299.277 327.651 298.716 329.007 298.139C328.779 300.209 328.257 303.078 327.553 306.436C325.285 306.903 323.075 307.35 320.997 307.752C322.511 304.672 323.885 301.966 325.047 299.832ZM353.823 259.044C354.961 258.059 356.13 257.052 357.336 256.016C357.742 258.153 358.132 261.055 358.514 264.38C356.446 265.514 354.461 266.589 352.569 267.598C352.996 264.335 353.416 261.437 353.823 259.044ZM362.799 236.069C363.798 234.877 364.84 233.64 365.905 232.381C366.65 234.476 367.506 237.306 368.423 240.537C366.511 242.011 364.677 243.41 362.935 244.717C362.83 241.441 362.779 238.523 362.799 236.069ZM368.008 212.426C368.885 210.957 369.814 209.415 370.763 207.847C371.845 209.813 373.112 212.356 374.487 215.248C372.762 217.071 371.1 218.808 369.532 220.421C368.931 217.465 368.409 214.754 368.008 212.426ZM369.403 187.179C370.027 185.594 370.68 183.958 371.36 182.272C372.791 184.122 374.512 186.538 376.402 189.288C375.001 191.368 373.635 193.374 372.345 195.23C371.214 192.256 370.209 189.525 369.403 187.179ZM366.613 162.429C366.963 160.738 367.332 158.992 367.719 157.192C369.445 158.804 371.553 160.936 373.885 163.376C372.84 165.655 371.82 167.861 370.852 169.906C369.255 167.162 367.795 164.608 366.613 162.429ZM371.362 122.508C370.471 125.674 369.535 129.109 368.596 132.562C365.723 130.076 362.92 127.639 360.248 125.299C360.406 122.381 360.569 119.429 360.724 116.502C364.179 118.437 367.798 120.491 371.362 122.508ZM357.664 97.9767C357.322 101.221 356.983 104.751 356.64 108.311C353.345 106.247 350.108 104.216 347.046 102.274C346.704 99.3714 346.361 96.4406 346.015 93.5413C349.775 94.9557 353.767 96.4891 357.664 97.9767ZM340.052 75.8286C340.251 79.0522 340.499 82.5682 340.742 86.128C337.049 84.5466 333.419 82.9902 329.992 81.5049C329.197 78.7448 328.393 75.9629 327.595 73.2144C331.603 74.0338 335.874 74.9438 340.052 75.8286ZM318.692 56.3614C319.413 59.4763 320.238 62.8882 321.078 66.3514C317.127 65.3234 313.25 64.3092 309.612 63.337C308.379 60.7669 307.135 58.1782 305.909 55.6251C309.993 55.8412 314.383 56.1077 318.692 56.3614ZM294.578 40.7134C295.774 43.6062 297.115 46.7592 298.484 49.9674C294.39 49.5521 290.379 49.1399 286.621 48.7337C285.031 46.4459 283.428 44.1465 281.846 41.8789C285.9 41.4848 290.276 41.0971 294.578 40.7134ZM268.094 28.7037C269.774 31.4004 271.63 34.3171 273.55 37.3201C269.371 37.516 265.292 37.7038 261.478 37.8611C259.509 35.838 257.54 33.8139 255.589 31.8114C259.537 30.7983 263.846 29.7426 268.094 28.7037ZM239.862 20.9165C241.973 23.3462 244.293 25.9732 246.693 28.6769C242.643 29.4768 238.7 30.248 235.005 30.9463C232.724 29.2163 230.44 27.4853 228.178 25.7739C231.852 24.2153 235.876 22.558 239.862 20.9165ZM210.997 17.3818C213.44 19.4284 216.114 21.6268 218.878 23.8856C215 25.2919 211.234 26.6506 207.714 27.8953C205.224 26.567 202.729 25.2389 200.255 23.9238C203.613 21.8413 207.311 19.6042 210.997 17.3818ZM182.066 18.4895C184.795 20.1424 187.787 21.9183 190.828 23.7208C187.363 25.6249 184.007 27.4541 180.843 29.1573C178.192 28.2119 175.521 27.2604 172.878 26.3236C175.759 23.8321 178.908 21.1621 182.066 18.4895ZM153.599 23.5347C156.519 24.7466 159.694 26.0338 162.924 27.3367C159.822 29.7103 156.817 31.9992 153.991 34.1267C151.266 33.5911 148.525 33.0513 145.813 32.5195C148.242 29.671 150.909 26.6091 153.599 23.5347ZM126.541 32.6838C129.719 33.4721 133.165 34.2964 136.65 35.1294C133.999 37.9266 131.432 40.6189 128.995 43.1443C126.118 43.0067 123.217 42.8681 120.343 42.7348C122.274 39.5451 124.402 36.1164 126.541 32.6838ZM101.662 45.6914C104.84 45.9786 108.254 46.2641 111.688 46.5524C109.543 49.6857 107.45 52.7263 105.471 55.5655C102.721 55.8505 99.9462 56.1365 97.1934 56.4243C98.5827 53.0227 100.125 49.3484 101.662 45.6914ZM78.7851 62.0365C82.0345 61.8521 85.5138 61.6359 89.0017 61.4246C87.3886 64.8365 85.8145 68.1538 84.3149 71.2612C81.6162 71.9484 78.8868 72.6411 76.1772 73.3328C76.9811 69.7491 77.8874 65.8758 78.7851 62.0365ZM58.9839 81.6866C62.1881 81.0261 65.5993 80.299 69.0192 79.5702C68.0192 83.0847 67.0395 86.5135 66.0965 89.7414C63.4894 90.8451 60.8501 91.9604 58.2288 93.0708C58.4447 89.446 58.7146 85.5505 58.9839 81.6866ZM42.5951 103.854C45.7138 102.7 49.0312 101.449 52.3465 100.201C51.9405 103.766 51.5397 107.261 51.1453 110.551C48.6997 112.049 46.214 113.565 43.743 115.075C43.356 111.489 42.9756 107.652 42.5951 103.854ZM29.7991 128.184C32.7275 126.562 35.821 124.822 38.9199 123.076C39.1043 126.584 39.2805 130.025 39.437 133.292C37.2189 135.185 34.9717 137.101 32.7309 139.014C31.7671 135.536 30.7787 131.834 29.7991 128.184ZM21.2833 154.032C23.9307 151.981 26.7229 149.796 29.5204 147.611C30.282 151.106 31.0231 154.538 31.7135 157.799C29.8276 159.99 27.916 162.211 26.0097 164.426C24.4728 161.084 22.8656 157.525 21.2833 154.032ZM16.9629 180.884C19.3149 178.412 21.7999 175.77 24.2885 173.136C25.6375 176.522 26.9585 179.856 28.2028 183.035C26.6544 185.567 25.0779 188.137 23.5131 190.699C21.3828 187.533 19.1473 184.166 16.9629 180.884ZM17.2869 208.41C19.1699 205.645 21.164 202.674 23.1581 199.715C25.0558 202.864 26.9191 205.963 28.68 208.92C27.5862 211.633 26.47 214.388 25.3652 217.126C22.7405 214.319 19.9827 211.326 17.2869 208.41ZM21.9681 235.655C23.3711 232.653 24.8568 229.412 26.3448 226.179C28.7992 229.1 31.1935 231.962 33.4687 234.708C32.8379 237.533 32.1958 240.398 31.5628 243.239C28.4437 240.788 25.1803 238.195 21.9681 235.655ZM31.4633 261.83C32.3383 258.693 33.2557 255.298 34.1788 251.899C37.0648 254.396 39.8856 256.843 42.5696 259.193C42.4189 262.06 42.26 264.961 42.1066 267.838C38.6471 265.902 35.0253 263.847 31.4633 261.83ZM44.9779 286.493C45.3443 283.207 45.7109 279.638 46.0803 276.045C49.3663 278.093 52.5961 280.112 55.6553 282.043C55.9846 284.976 56.3145 287.942 56.6436 290.876C52.8747 289.478 48.8776 287.963 44.9779 286.493ZM62.7336 308.809C62.5492 305.583 62.3131 302.071 62.0688 298.515C65.7075 300.069 69.2781 301.6 72.649 303.064C73.4502 305.851 74.2541 308.663 75.0522 311.442C71.09 310.612 66.8662 309.697 62.7336 308.809ZM83.8209 328.135C83.1026 324.972 82.2788 321.512 81.4434 318.006C85.3323 319.007 89.1553 319.995 92.7567 320.948C94.0209 323.6 95.2931 326.272 96.5542 328.905C92.4728 328.679 88.1012 328.403 83.8209 328.135ZM108.018 343.89C106.797 340.927 105.422 337.68 104.025 334.384C108.129 334.802 112.156 335.217 115.923 335.625C117.568 337.988 119.224 340.368 120.857 342.711C116.775 343.112 112.358 343.502 108.018 343.89ZM134.576 355.798C132.912 353.094 131.074 350.169 129.168 347.157C133.25 346.97 137.244 346.798 140.99 346.657C142.958 348.701 144.929 350.744 146.89 352.771C142.984 353.751 138.749 354.778 134.576 355.798ZM162.458 363.545C160.393 361.154 158.137 358.582 155.808 355.942C159.844 355.119 163.781 354.324 167.465 353.604C169.723 355.293 171.981 356.982 174.225 358.656C170.522 360.226 166.466 361.894 162.458 363.545ZM191.664 366.965C189.229 364.933 186.576 362.752 183.839 360.511C187.602 359.152 191.264 357.84 194.703 356.63C197.177 357.964 199.652 359.297 202.111 360.621C198.823 362.646 195.231 364.812 191.664 366.965ZM220.414 366.284C217.696 364.638 214.721 362.871 211.691 361.076C215.309 359.1 218.807 357.203 222.093 355.444C224.718 356.371 227.353 357.304 229.964 358.221C226.978 360.781 223.697 363.532 220.414 366.284ZM248.969 361.078C245.989 359.857 242.745 358.555 239.447 357.231C242.643 354.791 245.739 352.442 248.656 350.257C251.403 350.799 254.169 351.345 256.904 351.883C254.424 354.798 251.701 357.934 248.969 361.078ZM275.876 351.87C272.776 351.107 269.434 350.304 266.051 349.492C268.76 346.652 271.39 343.913 273.87 341.358C276.622 341.487 279.397 341.621 282.147 341.75C280.191 344.956 278.038 348.411 275.876 351.87ZM301.226 338.829C297.974 338.514 294.473 338.205 290.942 337.893C293.097 334.754 295.199 331.707 297.183 328.862C299.994 328.575 302.832 328.29 305.647 328.004C304.278 331.432 302.752 335.138 301.226 338.829ZM323.882 322.459C320.638 322.632 317.161 322.842 313.671 323.054C315.261 319.684 316.812 316.407 318.289 313.332C321.01 312.644 323.763 311.952 326.498 311.263C325.695 314.819 324.785 318.654 323.882 322.459ZM343.756 303.063C340.521 303.725 337.07 304.45 333.612 305.176C334.619 301.642 335.61 298.191 336.561 294.95C339.186 293.847 341.844 292.731 344.49 291.618C344.274 295.263 344.012 299.181 343.756 303.063ZM360.18 280.874C357.101 282.007 353.831 283.23 350.557 284.452C350.97 280.808 351.38 277.236 351.787 273.876C354.192 272.397 356.635 270.901 359.06 269.413C359.436 273.076 359.807 276.999 360.18 280.874ZM372.747 256.544C369.838 258.132 366.764 259.831 363.682 261.535C363.498 257.922 363.321 254.378 363.177 251.029C365.361 249.171 367.571 247.297 369.775 245.422C370.743 248.986 371.748 252.795 372.747 256.544ZM381.459 230.443C378.775 232.505 375.933 234.718 373.084 236.932C372.299 233.389 371.536 229.909 370.828 226.603C372.747 224.363 374.691 222.094 376.632 219.832C378.202 223.238 379.847 226.876 381.459 230.443ZM385.766 203.278C383.443 205.723 380.98 208.351 378.511 210.979C377.202 207.683 375.917 204.444 374.708 201.351C376.253 198.81 377.821 196.239 379.377 193.675C381.458 196.769 383.63 200.059 385.766 203.278ZM379.576 184.564C377.697 181.44 375.865 178.388 374.121 175.459C375.234 172.722 376.367 169.946 377.489 167.192C380.08 169.964 382.803 172.92 385.474 175.805C383.587 178.572 381.582 181.57 379.576 184.564Z" fill="#2D72A2"/>
<path d="M65.2405 169.376L62.4171 155.259L54.4659 160.56L59.7666 152.609L45.6502 149.786L59.7666 146.962L54.4656 139.011L62.4173 144.312L65.2405 130.196L68.0637 144.312L76.0151 139.011L70.7141 146.962L84.8305 149.786L70.7141 152.609L76.0151 160.56L68.0637 155.259L65.2405 169.376Z" fill="#EEEEEE"/>
<path d="M78.2881 285.723L75.4647 271.606L67.5135 276.907L72.8142 268.956L58.6978 266.133L72.8142 263.309L67.5132 255.358L75.4649 260.659L78.2881 246.543L81.1113 260.659L89.0627 255.358L83.7617 263.309L97.8781 266.133L83.7617 268.956L89.0627 276.907L81.1113 271.606L78.2881 285.723Z" fill="#EEEEEE"/>
<path d="M58.5586 229.566L55.3487 213.723L46.3085 219.672L52.3354 210.748L36.2859 207.58L52.3354 204.41L46.3084 195.487L55.3489 201.436L58.5586 185.593L61.7685 201.436L70.8087 195.487L64.7818 204.41L80.8314 207.58L64.7818 210.748L70.8087 219.672L61.7685 213.723L58.5586 229.566Z" fill="#EEEEEE"/>
<path d="M335.007 169.476L337.761 155.708L345.516 160.878L340.346 153.123L354.114 150.369L340.346 147.616L345.516 139.861L337.761 145.031L335.007 131.263L332.254 145.03L324.499 139.861L329.669 147.616L315.901 150.369L329.669 153.123L324.499 160.878L332.254 155.708L335.007 169.476Z" fill="#EEEEEE"/>
<path d="M318.999 285.822L321.752 272.055L329.507 277.225L324.337 269.47L338.105 266.716L324.337 263.963L329.507 256.208L321.752 261.378L318.999 247.61L316.245 261.377L308.49 256.208L313.66 263.963L299.892 266.716L313.66 269.47L308.49 277.225L316.245 272.055L318.999 285.822Z" fill="#EEEEEE"/>
<path d="M338.162 229.682L341.37 214.604L350.405 220.266L344.382 211.773L360.423 208.758L344.382 205.741L350.405 197.248L341.37 202.91L338.162 187.832L334.954 202.91L325.918 197.248L331.942 205.741L315.901 208.758L331.942 211.773L325.918 220.266L334.954 214.604L338.162 229.682Z" fill="#EEEEEE"/>
<path d="M201.668 72.5679C256.077 72.5679 310.491 81.5562 310.491 81.5562V215.43C310.491 215.43 303.693 307.26 201.668 342.666C99.6511 307.26 92.8493 215.43 92.8493 215.43V81.5562C92.8493 81.5562 147.258 72.5679 201.668 72.5679Z" fill="url(#paint0_linear_427_175)"/>
<path d="M201.609 334.345L199.44 333.514C115.278 301.195 108.655 216.442 108.597 215.59L108.582 215.132V91.5387L113.785 90.588C115.577 90.2597 158.192 82.5618 201.608 82.5618C245.028 82.5618 287.645 90.2597 289.437 90.588L294.639 91.5387L294.624 215.589C294.568 216.442 287.946 301.195 203.777 333.512L201.609 334.345ZM121.154 214.877C121.566 220.105 128.516 290.939 201.608 320.332C274.673 290.957 281.644 220.193 282.068 214.875V102.648C269.35 100.605 235.273 95.6935 201.608 95.6935C167.915 95.6935 133.866 100.605 121.154 102.648V214.877Z" fill="url(#paint1_linear_427_175)"/>
<path d="M201.278 195.436C202.189 196.077 205.993 198.151 212.429 198.151C218.611 198.151 222.34 196.272 223.431 195.534C223.015 194.813 222.966 193.776 223.915 192.271H223.877C230.089 188.932 234.838 183.557 234.838 178.265C234.838 170.127 224.474 165.862 212.433 165.862C200.381 165.862 190.078 170.125 190.078 178.265C190.078 183.578 194.796 188.976 201.045 192.308C202.058 193.694 201.874 194.702 201.278 195.436Z" fill="#FEB647"/>
<path d="M224.542 197.847C224.542 197.847 221.404 212.444 217.29 220.775C215.831 214.449 213.088 208.618 213.088 208.618C213.088 208.618 216.598 207.164 216.598 204.794C216.598 201.869 212.052 200.418 212.052 200.418C212.052 200.418 207.491 201.445 207.491 204.794C207.491 207.064 211.016 208.618 211.016 208.618C211.016 208.618 208.266 214.477 206.811 220.769C202.669 212.402 199.497 197.707 199.497 197.707L199.519 197.685C189.26 201.527 177.621 208.246 177.621 214.891V217.444C177.621 226.725 195.553 228.837 212.151 228.837C228.774 228.837 246.483 226.725 246.483 217.444C246.483 215.619 246.483 216.732 246.483 214.891C246.483 208.148 235.135 201.576 224.542 197.847Z" fill="#FEB647"/>
<path d="M247.364 140.589H161.354C153.941 140.589 147.915 146.852 147.915 154.553V260.681C147.915 268.385 153.941 274.645 161.354 274.645H164.042V269.061H161.354C156.909 269.061 153.291 265.301 153.291 260.681C153.291 256.063 156.909 252.304 161.354 252.304H174.794V274.645L188.233 260.681L201.67 274.645V252.304H250.052V266.268C250.052 267.804 248.84 269.061 247.364 269.061H212.421V274.645H247.364C251.81 274.645 255.425 270.888 255.425 266.268V148.969C255.425 144.349 251.81 140.589 247.364 140.589ZM153.291 249.516V154.553C153.291 149.935 156.909 146.176 161.354 146.176H169.418V246.717H161.354C158.333 246.717 155.538 247.762 153.291 249.516ZM250.052 246.717H174.794V146.176H247.364C248.84 146.176 250.052 147.432 250.052 148.969V246.717Z" fill="#FEB647"/>
<path d="M269.749 119.951C269.749 119.536 269.256 119.2 268.648 119.2C268.04 119.2 267.547 119.536 267.547 119.951V134.719C267.547 135.133 268.04 135.47 268.648 135.47C269.256 135.47 269.749 135.133 269.749 134.719V119.951Z" fill="#FEB647"/>
<path opacity="0.4" d="M268.465 119.701H268.281C268.18 119.701 268.098 119.757 268.098 119.826V134.844C268.098 134.913 268.18 134.969 268.281 134.969H268.465C268.567 134.969 268.649 134.913 268.649 134.844V119.826C268.649 119.757 268.567 119.701 268.465 119.701Z" fill="#FEB647"/>
<path d="M268.649 136.846C270.474 136.846 271.953 136.342 271.953 135.72C271.953 135.098 270.474 134.594 268.649 134.594C266.824 134.594 265.345 135.098 265.345 135.72C265.345 136.342 266.824 136.846 268.649 136.846Z" fill="#FEB647"/>
<path d="M271.219 135.72H266.079C265.674 135.72 265.345 135.944 265.345 136.221V137.973C265.345 138.249 265.674 138.473 266.079 138.473H271.219C271.624 138.473 271.953 138.249 271.953 137.973V136.221C271.953 135.944 271.624 135.72 271.219 135.72Z" fill="#FEB647"/>
<path d="M268.649 139.6C270.474 139.6 271.953 139.096 271.953 138.473C271.953 137.851 270.474 137.347 268.649 137.347C266.824 137.347 265.345 137.851 265.345 138.473C265.345 139.096 266.824 139.6 268.649 139.6Z" fill="#FEB647"/>
<path d="M268.649 136.846C270.474 136.846 271.953 136.342 271.953 135.72C271.953 135.098 270.474 134.594 268.649 134.594C266.824 134.594 265.345 135.098 265.345 135.72C265.345 136.342 266.824 136.846 268.649 136.846Z" fill="#FEB647"/>
<path opacity="0.45" d="M267.914 136.219C268.725 136.219 269.383 135.995 269.383 135.719C269.383 135.443 268.725 135.219 267.914 135.219C267.103 135.219 266.446 135.443 266.446 135.719C266.446 135.995 267.103 136.219 267.914 136.219Z" fill="#FEB647"/>
<path d="M264.243 138.473H273.054L277.826 161.751H259.471L264.243 138.473Z" fill="#FEB647"/>
<path opacity="0.6" d="M264.243 138.473H266.079L262.041 161.751H259.471L264.243 138.473Z" fill="#FEB647"/>
<path opacity="0.25" d="M271.218 138.473H273.053L277.826 161.751H275.256L271.218 138.473Z" fill="#FEB647"/>
<path opacity="0.15" d="M267.731 138.473H269.566L270.117 161.751H267.18L267.731 138.473Z" fill="#FEB647"/>
<path d="M276.725 161H260.572C259.964 161 259.471 161.336 259.471 161.751C259.471 162.166 259.964 162.502 260.572 162.502H276.725C277.333 162.502 277.826 162.166 277.826 161.751C277.826 161.336 277.333 161 276.725 161Z" fill="#FEB647"/>
<path opacity="0.5" d="M275.991 161.25H261.306C261.104 161.25 260.939 161.362 260.939 161.499C260.939 161.637 261.104 161.749 261.306 161.749H275.991C276.193 161.749 276.358 161.637 276.358 161.499C276.358 161.362 276.193 161.25 275.991 161.25Z" fill="#FEB647"/>
<path d="M202.137 100.301L129.268 120.454L160.776 128.819L160.782 128.734L162.294 128.103C175.742 122.509 189.034 119.695 202.101 119.63C215.168 119.56 228.007 122.25 240.539 127.645C241.297 127.971 242.027 128.292 242.502 128.465L274.714 119.557L202.137 100.301Z" fill="#FEB647"/>
<path d="M201.668 72.5679C256.077 72.5679 310.491 81.5562 310.491 81.5562V215.43C310.491 215.43 303.693 307.26 201.668 342.666C99.6511 307.26 92.8493 215.43 92.8493 215.43V81.5562C92.8493 81.5562 147.258 72.5679 201.668 72.5679Z" fill="url(#paint2_linear_427_175)"/>
<path d="M201.609 334.345L199.44 333.514C115.278 301.195 108.655 216.442 108.597 215.59L108.582 215.132V91.5387L113.785 90.588C115.577 90.2597 158.192 82.5618 201.608 82.5618C245.028 82.5618 287.645 90.2597 289.437 90.588L294.639 91.5387L294.624 215.589C294.568 216.442 287.946 301.195 203.777 333.512L201.609 334.345ZM121.154 214.877C121.566 220.105 128.516 290.939 201.608 320.332C274.673 290.957 281.644 220.193 282.068 214.875V102.648C269.35 100.605 235.273 95.6935 201.608 95.6935C167.915 95.6935 133.866 100.605 121.154 102.648V214.877Z" fill="url(#paint3_linear_427_175)"/>
<path d="M201.339 199.469C202.256 200.302 206.08 203 212.551 203C218.765 203 222.514 200.556 223.611 199.596C223.193 198.659 223.144 197.31 224.098 195.353H224.06C230.305 191.009 235.079 184.017 235.079 177.133C235.079 166.548 224.659 161 212.554 161C200.438 161 190.079 166.545 190.079 177.133C190.079 184.045 194.823 191.066 201.105 195.4C202.124 197.203 201.939 198.514 201.339 199.469Z" fill="#FEB647"/>
<path d="M224.999 202.847C224.999 202.847 221.862 217.444 217.748 225.775C216.289 219.449 213.546 213.618 213.546 213.618C213.546 213.618 217.056 212.164 217.056 209.794C217.056 206.869 212.51 205.418 212.51 205.418C212.51 205.418 207.948 206.445 207.948 209.794C207.948 212.064 211.473 213.618 211.473 213.618C211.473 213.618 208.724 219.477 207.269 225.769C203.126 217.402 199.955 202.707 199.955 202.707L199.977 202.685C189.718 206.527 178.079 213.246 178.079 219.891V222.444C178.079 231.725 196.011 233.837 212.609 233.837C229.232 233.837 246.941 231.725 246.941 222.444C246.941 220.619 246.941 221.732 246.941 219.891C246.941 213.148 235.593 206.576 224.999 202.847Z" fill="#FEB647"/>
<path d="M247.364 140.589H161.354C153.941 140.589 147.915 146.852 147.915 154.553V260.681C147.915 268.385 153.941 274.645 161.354 274.645H164.042V269.061H161.354C156.909 269.061 153.291 265.301 153.291 260.681C153.291 256.063 156.909 252.304 161.354 252.304H174.794V274.645L188.233 260.681L201.67 274.645V252.304H250.052V266.268C250.052 267.804 248.84 269.061 247.364 269.061H212.421V274.645H247.364C251.81 274.645 255.425 270.888 255.425 266.268V148.969C255.425 144.349 251.81 140.589 247.364 140.589ZM153.291 249.516V154.553C153.291 149.935 156.909 146.176 161.354 146.176H169.418V246.717H161.354C158.333 246.717 155.538 247.762 153.291 249.516ZM250.052 246.717H174.794V146.176H247.364C248.84 146.176 250.052 147.432 250.052 148.969V246.717Z" fill="#FEB647"/>
<path d="M268.919 130.641C268.919 130.287 268.543 130 268.079 130C267.615 130 267.239 130.287 267.239 130.641V143.26C267.239 143.614 267.615 143.901 268.079 143.901C268.543 143.901 268.919 143.614 268.919 143.26V130.641Z" fill="#FEB647"/>
<path opacity="0.4" d="M267.939 130.428H267.799C267.721 130.428 267.659 130.476 267.659 130.535V143.367C267.659 143.426 267.721 143.474 267.799 143.474H267.939C268.016 143.474 268.079 143.426 268.079 143.367V130.535C268.079 130.476 268.016 130.428 267.939 130.428Z" fill="#FEB647"/>
<path d="M268.079 145.078C269.471 145.078 270.599 144.647 270.599 144.115C270.599 143.584 269.471 143.153 268.079 143.153C266.687 143.153 265.559 143.584 265.559 144.115C265.559 144.647 266.687 145.078 268.079 145.078Z" fill="#FEB647"/>
<path d="M270.039 144.115H266.119C265.81 144.115 265.559 144.307 265.559 144.543V146.04C265.559 146.277 265.81 146.468 266.119 146.468H270.039C270.348 146.468 270.599 146.277 270.599 146.04V144.543C270.599 144.307 270.348 144.115 270.039 144.115Z" fill="#FEB647"/>
<path d="M268.079 147.431C269.471 147.431 270.599 147 270.599 146.468C270.599 145.937 269.471 145.506 268.079 145.506C266.687 145.506 265.559 145.937 265.559 146.468C265.559 147 266.687 147.431 268.079 147.431Z" fill="#FEB647"/>
<path d="M268.079 145.078C269.471 145.078 270.599 144.647 270.599 144.115C270.599 143.584 269.471 143.153 268.079 143.153C266.687 143.153 265.559 143.584 265.559 144.115C265.559 144.647 266.687 145.078 268.079 145.078Z" fill="#FEB647"/>
<path opacity="0.45" d="M267.519 144.541C268.137 144.541 268.639 144.35 268.639 144.115C268.639 143.879 268.137 143.688 267.519 143.688C266.9 143.688 266.399 143.879 266.399 144.115C266.399 144.35 266.9 144.541 267.519 144.541Z" fill="#FEB647"/>
<path d="M264.719 146.468H271.439L275.079 166.358H261.079L264.719 146.468Z" fill="#FEB647"/>
<path opacity="0.6" d="M264.719 146.468H266.119L263.039 166.358H261.079L264.719 146.468Z" fill="#FEB647"/>
<path opacity="0.25" d="M270.039 146.468H271.439L275.079 166.358H273.119L270.039 146.468Z" fill="#FEB647"/>
<path opacity="0.15" d="M267.379 146.468H268.779L269.199 166.358H266.959L267.379 146.468Z" fill="#FEB647"/>
<path d="M274.239 165.717H261.919C261.455 165.717 261.079 166.004 261.079 166.358C261.079 166.713 261.455 167 261.919 167H274.239C274.703 167 275.079 166.713 275.079 166.358C275.079 166.004 274.703 165.717 274.239 165.717Z" fill="#FEB647"/>
<path opacity="0.5" d="M273.679 165.93H262.479C262.324 165.93 262.199 166.026 262.199 166.143C262.199 166.261 262.324 166.356 262.479 166.356H273.679C273.834 166.356 273.959 166.261 273.959 166.143C273.959 166.026 273.834 165.93 273.679 165.93Z" fill="#FEB647"/>
<path d="M202.137 100.301L129.268 120.454L160.776 128.819L160.782 128.734L162.294 128.103C175.742 122.509 189.034 119.695 202.101 119.63C215.168 119.56 228.007 122.25 240.539 127.645C241.297 127.971 242.027 128.292 242.502 128.465L274.714 119.557L202.137 100.301Z" fill="#FEB647"/>
<defs>
<linearGradient id="paint0_linear_427_175" x1="92.8552" y1="72.5679" x2="92.8552" y2="342.666" gradientUnits="userSpaceOnUse">
<stop offset="0.3" stop-color="#005493"/>
<stop offset="1" stop-color="#001B54"/>
</linearGradient>
<linearGradient id="paint1_linear_427_175" x1="108.585" y1="82.5514" x2="108.585" y2="334.333" gradientUnits="userSpaceOnUse">
<stop offset="0.3" stop-color="#EEEEEE"/>
<stop offset="1" stop-color="#DEDEDE"/>
</linearGradient>
<linearGradient id="paint2_linear_427_175" x1="92.8552" y1="72.5679" x2="92.8552" y2="342.666" gradientUnits="userSpaceOnUse">
<stop offset="0.3" stop-color="#005493"/>
<stop offset="1" stop-color="#001B54"/>
</linearGradient>
<linearGradient id="paint3_linear_427_175" x1="108.585" y1="82.5514" x2="108.585" y2="334.333" gradientUnits="userSpaceOnUse">
<stop offset="0.3" stop-color="#EEEEEE"/>
<stop offset="1" stop-color="#DEDEDE"/>
</linearGradient>
</defs>
</svg>
