<svg width="1008" height="421" viewBox="0 0 1008 421" fill="none" xmlns="http://www.w3.org/2000/svg">
<g filter="url(#filter0_d_427_171)">
<g filter="url(#filter1_d_427_171)">
<path d="M427.2 119.109C427.2 109.085 429.368 100.169 433.706 92.3617C438.043 84.4581 444.067 78.3376 451.778 74.0003C459.585 69.5665 468.404 67.3497 478.236 67.3497C490.284 67.3497 500.597 70.5304 509.175 76.8918C517.754 83.2532 523.489 91.9279 526.38 102.916H499.2C497.175 98.6749 494.284 95.446 490.525 93.2291C486.862 91.0123 482.669 89.9038 477.947 89.9038C470.332 89.9038 464.163 92.5544 459.441 97.8556C454.718 103.157 452.356 110.241 452.356 119.109C452.356 127.976 454.718 135.06 459.441 140.362C464.163 145.663 470.332 148.313 477.947 148.313C482.669 148.313 486.862 147.205 490.525 144.988C494.284 142.771 497.175 139.542 499.2 135.301H526.38C523.489 146.289 517.754 154.964 509.175 161.325C500.597 167.59 490.284 170.723 478.236 170.723C468.404 170.723 459.585 168.554 451.778 164.217C444.067 159.783 438.043 153.663 433.706 145.855C429.368 138.048 427.2 129.133 427.2 119.109ZM581.135 171.157C573.231 171.157 566.098 169.47 559.737 166.096C553.472 162.723 548.508 157.904 544.845 151.639C541.279 145.374 539.496 138.048 539.496 129.663C539.496 121.374 541.327 114.097 544.99 107.831C548.653 101.47 553.665 96.6026 560.026 93.2291C566.388 89.8556 573.52 88.1689 581.424 88.1689C589.327 88.1689 596.46 89.8556 602.821 93.2291C609.183 96.6026 614.195 101.47 617.857 107.831C621.52 114.097 623.351 121.374 623.351 129.663C623.351 137.952 621.472 145.277 617.713 151.639C614.05 157.904 608.99 162.723 602.532 166.096C596.171 169.47 589.038 171.157 581.135 171.157ZM581.135 149.759C585.857 149.759 589.857 148.024 593.135 144.554C596.508 141.084 598.195 136.121 598.195 129.663C598.195 123.205 596.556 118.241 593.279 114.771C590.098 111.301 586.147 109.566 581.424 109.566C576.604 109.566 572.604 111.301 569.424 114.771C566.243 118.145 564.653 123.109 564.653 129.663C564.653 136.121 566.195 141.084 569.279 144.554C572.46 148.024 576.412 149.759 581.135 149.759ZM664.082 63.0123V170H639.359V63.0123H664.082ZM709.612 63.0123V170H684.89V63.0123H709.612ZM806.468 128.362C806.468 130.675 806.324 133.084 806.035 135.59H750.083C750.468 140.602 752.059 144.458 754.854 147.157C757.745 149.759 761.264 151.06 765.408 151.06C771.577 151.06 775.866 148.458 778.276 143.253H804.589C803.239 148.554 800.782 153.325 797.215 157.566C793.745 161.807 789.36 165.133 784.059 167.542C778.757 169.952 772.83 171.157 766.276 171.157C758.372 171.157 751.336 169.47 745.167 166.096C738.999 162.723 734.179 157.904 730.709 151.639C727.24 145.374 725.505 138.048 725.505 129.663C725.505 121.277 727.191 113.952 730.565 107.687C734.035 101.422 738.854 96.6026 745.023 93.2291C751.191 89.8556 758.276 88.1689 766.276 88.1689C774.083 88.1689 781.023 89.8074 787.095 93.0846C793.167 96.3616 797.89 101.036 801.263 107.109C804.733 113.181 806.468 120.265 806.468 128.362ZM781.167 121.856C781.167 117.615 779.721 114.241 776.83 111.735C773.938 109.229 770.324 107.976 765.986 107.976C761.842 107.976 758.324 109.181 755.432 111.591C752.637 114 750.902 117.422 750.227 121.856H781.167ZM853.053 88.1689C858.74 88.1689 863.703 89.3255 867.944 91.6388C872.282 93.952 875.607 96.9882 877.92 100.747V89.3255H902.643V169.855C902.643 177.277 901.149 183.976 898.161 189.952C895.27 196.024 890.788 200.843 884.715 204.41C878.74 207.976 871.27 209.759 862.306 209.759C850.354 209.759 840.667 206.916 833.246 201.229C825.824 195.638 821.583 188.024 820.523 178.386H844.956C845.728 181.47 847.559 183.879 850.45 185.614C853.342 187.446 856.908 188.361 861.149 188.361C866.258 188.361 870.306 186.867 873.294 183.879C876.378 180.988 877.92 176.313 877.92 169.855V158.434C875.511 162.193 872.185 165.277 867.944 167.687C863.703 170 858.74 171.157 853.053 171.157C846.402 171.157 840.378 169.47 834.981 166.096C829.583 162.627 825.294 157.759 822.113 151.494C819.029 145.133 817.487 137.807 817.487 129.518C817.487 121.229 819.029 113.952 822.113 107.687C825.294 101.422 829.583 96.6026 834.981 93.2291C840.378 89.8556 846.402 88.1689 853.053 88.1689ZM877.92 129.663C877.92 123.494 876.185 118.627 872.715 115.06C869.342 111.494 865.197 109.711 860.282 109.711C855.366 109.711 851.173 111.494 847.703 115.06C844.33 118.53 842.643 123.35 842.643 129.518C842.643 135.687 844.33 140.602 847.703 144.265C851.173 147.831 855.366 149.615 860.282 149.615C865.197 149.615 869.342 147.831 872.715 144.265C876.185 140.699 877.92 135.831 877.92 129.663ZM999.468 128.362C999.468 130.675 999.324 133.084 999.035 135.59H943.083C943.469 140.602 945.059 144.458 947.854 147.157C950.746 149.759 954.264 151.06 958.408 151.06C964.577 151.06 968.866 148.458 971.276 143.253H997.589C996.24 148.554 993.782 153.325 990.215 157.566C986.746 161.807 982.36 165.133 977.059 167.542C971.758 169.952 965.83 171.157 959.276 171.157C951.372 171.157 944.336 169.47 938.167 166.096C931.999 162.723 927.179 157.904 923.71 151.639C920.24 145.374 918.505 138.048 918.505 129.663C918.505 121.277 920.192 113.952 923.565 107.687C927.035 101.422 931.854 96.6026 938.023 93.2291C944.191 89.8556 951.276 88.1689 959.276 88.1689C967.083 88.1689 974.023 89.8074 980.095 93.0846C986.167 96.3616 990.89 101.036 994.264 107.109C997.734 113.181 999.468 120.265 999.468 128.362ZM974.167 121.856C974.167 117.615 972.722 114.241 969.83 111.735C966.938 109.229 963.324 107.976 958.987 107.976C954.842 107.976 951.324 109.181 948.432 111.591C945.637 114 943.902 117.422 943.228 121.856H974.167Z" fill="#FEB647"/>
</g>
<g filter="url(#filter2_d_427_171)">
<path d="M485.53 204.752C501.281 204.752 515.045 207.874 526.823 214.117C538.601 220.361 547.682 229.159 554.068 240.511C560.595 251.721 563.859 264.705 563.859 279.462C563.859 294.078 560.595 307.062 554.068 318.414C547.682 329.766 538.53 338.564 526.61 344.807C514.833 351.051 501.139 354.173 485.53 354.173H429.551V204.752H485.53ZM483.189 322.671C496.953 322.671 507.667 318.91 515.329 311.39C522.992 303.869 526.823 293.226 526.823 279.462C526.823 265.698 522.992 254.984 515.329 247.322C507.667 239.659 496.953 235.828 483.189 235.828H465.948V322.671H483.189ZM602.505 223.057C596.119 223.057 590.869 221.212 586.754 217.523C582.781 213.691 580.794 209.009 580.794 203.475C580.794 197.799 582.781 193.116 586.754 189.427C590.869 185.595 596.119 183.68 602.505 183.68C608.748 183.68 613.857 185.595 617.83 189.427C621.945 193.116 624.003 197.799 624.003 203.475C624.003 209.009 621.945 213.691 617.83 217.523C613.857 221.212 608.748 223.057 602.505 223.057ZM620.597 235.402V354.173H584.2V235.402H620.597ZM639.737 294.575C639.737 282.371 642.007 271.658 646.548 262.434C651.231 253.211 657.545 246.116 665.492 241.149C673.438 236.183 682.307 233.699 692.098 233.699C700.47 233.699 707.778 235.402 714.022 238.808C720.407 242.213 725.303 246.683 728.708 252.217V235.402H765.106V354.173H728.708V337.357C725.161 342.891 720.194 347.361 713.809 350.767C707.565 354.173 700.257 355.875 691.885 355.875C682.236 355.875 673.438 353.392 665.492 348.426C657.545 343.317 651.231 336.151 646.548 326.928C642.007 317.562 639.737 306.778 639.737 294.575ZM728.708 294.787C728.708 285.706 726.154 278.54 721.046 273.289C716.079 268.039 709.977 265.414 702.74 265.414C695.504 265.414 689.331 268.039 684.223 273.289C679.256 278.398 676.773 285.493 676.773 294.575C676.773 303.656 679.256 310.893 684.223 316.285C689.331 321.536 695.504 324.161 702.74 324.161C709.977 324.161 716.079 321.536 721.046 316.285C726.154 311.035 728.708 303.869 728.708 294.787ZM827.835 255.197C832.092 248.67 837.413 243.561 843.799 239.872C850.184 236.041 857.279 234.125 865.084 234.125V272.651H855.08C845.998 272.651 839.187 274.638 834.646 278.611C830.105 282.442 827.835 289.253 827.835 299.044V354.173H791.437V235.402H827.835V255.197ZM1003.81 235.402L929.308 410.578H890.143L917.388 350.128L869.071 235.402H909.726L937.183 309.687L964.428 235.402H1003.81Z" fill="#2D72A2"/>
</g>
</g>
<path fill-rule="evenodd" clip-rule="evenodd" d="M390.461 211.009C393.836 205.047 396.003 200.68 395.794 199.502C395.528 197.886 392.327 201.944 388.035 208.086C385.338 204.86 382.463 201.469 379.566 198.063C381.102 194.257 382.558 190.594 383.849 187.246C393.021 194.42 400.752 200.258 400.409 198.319C400.128 196.615 393.748 190.597 385.382 183.184C387.695 176.92 389.09 172.366 388.677 171.205C388.153 169.728 385.7 174.096 382.531 180.665C379.299 177.829 375.861 174.849 372.401 171.855C373.283 167.826 374.109 163.964 374.822 160.458C385.003 166.187 393.552 170.78 392.861 168.837C392.305 167.267 385.084 162.33 375.644 156.278C376.833 150.011 377.452 145.514 376.947 144.475C376.179 143.154 374.546 147.62 372.566 154.315C368.88 151.973 364.954 149.512 361.003 147.04C361.205 142.924 361.37 138.984 361.472 135.426C372.524 139.61 381.755 142.884 380.719 140.935C379.881 139.496 371.908 135.691 361.561 131.12C361.634 124.985 361.406 120.632 360.62 119.708C359.739 118.531 358.933 122.961 358.145 129.62C354.065 127.838 349.722 125.972 345.36 124.104C344.862 120.024 344.359 116.126 343.862 112.633C355.669 115.111 365.608 117.031 364.383 115.39C363.247 113.922 354.447 111.234 343.19 108.171C342.27 102.414 341.366 98.4176 340.506 97.7014C339.533 96.6725 339.483 100.875 339.793 107.255C335.369 106.07 330.664 104.844 325.957 103.621C324.797 99.6765 323.666 95.9278 322.609 92.5879C334.959 93.2894 345.462 93.7038 343.86 92.1993C342.557 90.976 333.149 89.6604 321.228 88.3317C319.452 83.0518 317.983 79.4462 317.059 78.8403C315.86 77.941 316.411 81.9011 317.705 87.9468C313.119 87.4528 308.261 86.9587 303.413 86.468C301.663 82.8581 299.976 79.4293 298.423 76.3683C310.901 75.2373 321.55 74.1274 319.566 72.944C318.107 71.8484 308.459 71.8974 296.332 72.326C293.716 67.3802 291.676 64.0246 290.666 63.5076C289.355 62.8363 290.564 66.6727 292.85 72.4565C288.228 72.6388 283.355 72.8611 278.492 73.0886C276.139 69.7489 273.891 66.5903 271.837 63.7871C284.131 60.7732 294.759 58.0683 292.76 57.2168C291.129 56.3838 281.363 57.9635 269.215 60.2618C265.841 55.8138 263.285 52.8469 262.188 52.5046C260.771 52.0597 262.599 55.6474 265.773 60.9189C261.191 61.8023 256.374 62.7576 251.573 63.7096C248.651 60.7328 245.883 57.952 243.359 55.4737C255.254 50.5596 265.659 46.1203 263.443 45.4243C261.631 44.8593 251.917 48.0261 240.017 52.2453C236.069 48.5037 233.105 45.9866 232.034 45.8185C230.646 45.6007 232.961 48.7674 236.834 53.378C232.503 54.9295 227.967 56.5797 223.459 58.2195C220.176 55.7565 217.077 53.4638 214.248 51.4188C225.32 44.73 235.104 38.7016 232.867 38.3561C231.042 38.0695 221.84 42.7811 210.637 48.8531C205.993 45.6078 202.548 43.4629 201.451 43.4629C199.912 43.4629 202.841 46.378 207.609 50.5001C203.596 52.6907 199.429 54.9856 195.261 57.2812C191.621 55.3624 188.18 53.575 185.028 51.9805C194.938 43.5825 203.71 36 201.451 36C199.458 36 190.908 42.096 180.656 49.8133C175.422 47.2705 171.573 45.6454 170.465 45.8196C169.033 46.0439 172.422 48.4972 177.879 51.9156C174.317 54.6167 170.639 57.4286 166.965 60.2421C163.162 58.9112 159.512 57.6563 156.2 56.559C164.721 46.8076 172.306 38.0013 170.041 38.3566C168.047 38.641 160.648 45.9566 151.823 55.1456C145.801 53.2498 141.462 52.141 140.302 52.5051C138.948 52.9658 143.037 55.0267 149.343 57.7397C146.344 60.884 143.253 64.1496 140.16 67.4211C136.093 66.6383 132.198 65.9085 128.654 65.2835C135.4 54.4284 141.299 44.7234 139.05 45.4249C137.215 46.0003 131.199 54.2159 124.058 64.5045C117.565 63.4525 112.913 62.9519 111.828 63.5076C110.442 64.2162 115.026 65.7103 121.971 67.5244C119.529 71.0726 116.995 74.7854 114.475 78.4728C110.496 78.3026 106.687 78.1595 103.182 78.0639C108.033 66.4735 112.2 56.1692 110.15 57.2173C108.323 57.9308 103.665 66.8206 98.2622 77.9612C91.3681 77.8718 86.4573 78.0765 85.4404 78.8396C84.1478 79.6885 89.2012 80.4615 96.6886 81.2181C94.8481 85.0562 92.9475 89.0747 91.0587 93.0717C87.0367 93.5029 83.1793 93.9348 79.6402 94.3643C82.4492 82.2472 84.7813 71.5508 82.9263 72.9429C81.415 73.9353 78.3732 83.275 74.9334 94.961C67.9033 95.9021 62.9158 96.8253 61.9838 97.7004C60.7936 98.6933 66.1652 98.6671 73.9591 98.2911C72.7805 102.344 71.5729 106.589 70.3688 110.821C66.466 111.828 62.7052 112.814 59.2567 113.751C60.1003 101.427 60.7053 90.6451 59.0519 92.1983C57.7083 93.4615 56.2568 103.042 54.7944 114.989C47.6648 117.012 42.6261 118.706 41.8792 119.707C40.939 120.97 46.4892 120.163 54.3569 118.62C53.8682 122.737 53.3797 127.04 52.8939 131.335C49.136 132.937 45.5142 134.497 42.2054 135.958C40.9866 123.906 39.7935 113.512 38.5242 115.388C37.3458 116.773 37.4138 126.149 37.885 137.895C31.1818 140.95 26.495 143.37 25.9609 144.474C25.1488 145.868 30.5029 144.226 38.0386 141.518C38.223 145.609 38.4417 149.894 38.6634 154.183C35.1841 156.319 31.8263 158.397 28.7619 160.331C25.6573 148.852 22.8453 139.098 21.7744 140.934C21.053 142.561 22.666 151.514 25.0099 162.726C18.6843 166.812 14.2562 169.978 13.8216 171.203C13.4127 172.739 18.6389 170.245 25.783 166.381C26.6265 170.349 27.5357 174.511 28.4473 178.679C25.3397 181.344 22.3374 183.942 19.6132 186.35C14.7815 175.733 10.5751 166.861 10.0498 168.836C9.48142 170.438 12.3848 178.743 16.4207 189.207C10.8165 194.27 6.91663 198.164 6.6979 199.5C6.42216 201.056 11.251 197.692 17.7814 192.718C19.2699 196.524 20.8633 200.532 22.4653 204.552C19.7558 207.715 17.1427 210.787 14.782 213.617C8.35987 204.038 2.85798 196.205 2.51128 198.316C2.2303 199.897 6.36865 207.476 11.9729 217.023C7.34012 222.705 4.1872 226.966 4.1872 228.191C4.1872 229.725 8.29473 225.855 13.8193 220.153C15.9751 223.785 18.2788 227.618 20.5993 231.469C18.466 234.974 16.4207 238.366 14.5802 241.487C6.68917 232.999 0 226.088 0 228.193C0 229.895 5.29713 236.791 12.3249 245.364C8.79442 251.523 6.485 256.073 6.6979 257.279C6.96491 258.794 10.2714 254.53 14.668 248.216C17.3922 251.506 20.2921 254.969 23.2175 258.452C21.6893 262.252 20.2351 265.913 18.9396 269.269C9.8386 262.111 2.164 256.353 2.5107 258.452C2.78934 260.018 9.1033 265.942 17.4056 273.289C15.0025 279.716 13.5058 284.396 13.8211 285.577C14.3493 286.945 16.846 282.378 20.0786 275.648C23.3595 278.526 26.8503 281.554 30.375 284.605C29.5031 288.576 28.6851 292.39 27.9836 295.869C17.8489 290.167 9.36159 285.613 10.0492 287.549C10.4669 289.122 17.6725 294.079 27.1489 300.15C25.9388 306.605 25.3478 311.248 25.9616 312.307C26.6119 313.65 28.2367 309.019 30.2418 302.124C33.9288 304.462 37.86 306.92 41.8138 309.385C41.601 313.535 41.416 317.511 41.2915 321.105C30.2051 316.955 20.9116 313.669 21.7749 315.451C22.6184 317.029 30.7054 320.903 41.1635 325.513C41.0356 331.725 41.1862 336.133 41.8792 337.062C42.765 338.25 43.612 333.727 44.4526 326.956C48.5514 328.741 52.9084 330.605 57.2859 332.473C57.76 336.551 58.2376 340.45 58.7117 343.951C46.9638 341.462 37.1328 339.591 38.5249 341.391C39.5132 342.713 48.1739 345.289 59.3336 348.27C60.2282 354.146 61.1171 358.266 61.9838 359.079C63.0862 359.996 63.2194 355.686 62.9523 349.229C67.3153 350.377 71.9482 351.566 76.589 352.758C77.7449 356.731 78.867 360.515 79.9154 363.893C67.7381 363.156 57.4674 362.697 59.0526 364.186C60.3364 365.395 69.5281 366.693 81.2248 368.005C83.0112 373.456 84.4998 377.235 85.4399 377.939C86.6499 378.734 86.0734 374.601 84.7582 368.394C89.3055 368.886 94.1284 369.378 98.9462 369.868C100.747 373.585 102.482 377.111 104.079 380.243C91.7032 381.369 81.1369 382.495 82.9263 383.836C84.3834 384.793 94.0069 384.654 106.127 384.184C108.757 389.122 110.811 392.444 111.828 392.876C113.134 393.544 111.947 389.758 109.695 384.04C114.338 383.844 119.241 383.614 124.135 383.387C126.493 386.741 128.748 389.912 130.802 392.721C118.52 395.746 107.973 398.537 110.149 399.562C111.774 400.393 121.482 398.778 133.557 396.428C136.846 400.766 139.309 403.627 140.303 403.88C141.695 404.318 139.988 400.863 136.971 395.758C141.476 394.865 146.214 393.898 150.932 392.934C153.763 395.844 156.447 398.563 158.91 401.006C147.108 405.883 136.846 410.268 139.05 410.96C140.845 411.52 150.437 408.42 162.251 404.263C166.31 408.156 169.369 410.788 170.465 410.96C171.882 411.182 169.477 407.881 165.494 403.115C169.88 401.555 174.478 399.893 179.052 398.238C182.349 400.678 185.468 402.95 188.326 404.978C177.285 411.66 167.622 417.678 170.041 418.028C171.865 418.314 181.042 413.671 192.203 407.681C196.824 410.839 200.277 412.921 201.451 412.921C202.863 412.921 199.964 410.071 195.273 406.025C199.209 403.895 203.288 401.666 207.374 399.434C210.972 401.353 214.372 403.137 217.488 404.733C207.658 412.984 199.029 420.396 201.451 420.396C203.278 420.396 211.581 414.421 221.644 406.82C226.983 409.45 230.913 411.135 232.034 410.96C233.48 410.733 229.981 408.216 224.401 404.73C228.038 401.966 231.809 399.076 235.585 396.187C239.448 397.531 243.155 398.801 246.509 399.906C238.067 409.625 230.613 418.384 232.867 418.029C234.709 417.74 242.083 410.46 250.915 401.322C256.809 403.167 261.046 404.238 262.188 403.88C263.668 403.534 259.604 401.545 253.278 398.868C256.351 395.668 259.524 392.34 262.696 389.01C266.641 389.771 270.417 390.482 273.862 391.093C267.105 401.93 261.187 411.662 263.443 410.96C265.275 410.385 271.346 402.173 278.534 391.888C284.976 392.934 289.584 393.431 290.666 392.878C292.054 392.287 287.461 390.838 280.516 389.039C282.991 385.474 285.558 381.736 288.104 378.024C292.205 378.209 296.131 378.368 299.719 378.481C294.893 390.187 290.705 400.613 292.758 399.562C294.432 398.704 299.028 389.765 304.405 378.605C311.204 378.737 316.049 378.602 317.059 377.939C318.34 376.977 313.366 376.124 305.982 375.316C307.828 371.453 309.734 367.41 311.626 363.391C315.637 362.975 319.483 362.563 323.004 362.157C320.133 374.301 317.709 385.055 319.568 383.836C321.228 382.703 324.305 373.294 327.753 361.586C334.75 360.702 339.681 359.854 340.507 359.079C341.688 357.971 336.423 357.903 328.736 358.224C329.907 354.199 331.106 349.987 332.295 345.793C336.243 344.789 340.036 343.807 343.506 342.876C342.726 355.08 342.217 365.731 343.862 364.186C345.202 362.927 346.648 353.458 348.104 341.618C355.027 339.672 359.884 338.046 360.62 337.062C361.685 335.812 356.283 336.597 348.531 338.105C349.026 333.962 349.519 329.623 350.008 325.288C353.712 323.72 357.286 322.191 360.556 320.757C361.733 332.752 362.944 343.08 364.383 341.391C365.409 339.876 365.255 330.551 364.747 318.894C371.524 315.837 376.305 313.411 376.947 312.305C377.625 310.902 372.18 312.562 364.582 315.274C364.386 311.123 364.158 306.769 363.936 302.415C367.383 300.291 370.712 298.224 373.752 296.305C376.828 307.758 379.648 317.458 380.719 315.45C381.589 313.954 380.003 305.037 377.646 293.816C383.887 289.783 388.245 286.693 388.678 285.575C389.225 284.039 384.043 286.493 376.899 290.303C376.028 286.244 375.084 281.977 374.138 277.703C377.288 275.013 380.321 272.405 383.074 269.992C387.916 280.629 392.16 289.525 392.863 287.548C393.433 285.936 390.497 277.559 386.431 267.02C391.849 262.163 395.581 258.485 395.794 257.277C396.066 255.751 391.448 258.894 385.125 263.656C383.599 259.755 381.963 255.64 380.321 251.518C383.009 248.37 385.591 245.326 387.921 242.522C394.435 252.299 400.057 260.425 400.409 258.45C400.693 256.719 396.413 248.886 390.698 239.151C395.243 233.565 398.313 229.399 398.313 228.191C398.313 226.671 394.3 230.432 388.869 236.041C386.755 232.477 384.497 228.725 382.232 224.965C384.383 221.398 386.431 217.97 388.267 214.817C396.188 223.343 402.921 230.303 402.921 228.191C402.919 226.489 397.563 219.582 390.461 211.009ZM380.614 184.712C379.216 187.699 377.739 190.936 376.263 194.175C373.868 191.358 371.524 188.598 369.295 185.952C369.923 183.1 370.561 180.21 371.195 177.345C374.259 179.721 377.459 182.234 380.614 184.712ZM344.757 322.605C342.544 323.42 340.393 324.203 338.368 324.917C339.368 321.656 340.3 318.765 341.128 316.463C342.356 315.695 343.62 314.91 344.918 314.105C344.99 316.228 344.918 319.169 344.757 322.605ZM233.738 390.934C231.67 390.097 229.645 389.273 227.715 388.471C231.421 386.542 234.568 384.98 236.897 383.962C238.004 384.176 239.132 384.393 240.277 384.614C239.056 386.085 236.706 388.306 233.738 390.934ZM28.8305 256.804C29.8846 254.542 30.9125 252.366 31.8869 250.354C33.543 253.184 35.0281 255.779 36.2498 258.013C35.8979 259.667 35.5313 261.381 35.1452 263.148C33.3749 261.495 31.2191 259.306 28.8305 256.804ZM57.9619 134.093C60.1659 133.271 62.3049 132.48 64.3159 131.754C63.3584 134.927 62.4696 137.75 61.6859 140.031C60.4416 140.812 59.1637 141.61 57.8432 142.427C57.7542 140.31 57.8141 137.437 57.9619 134.093ZM168.949 65.7687C171.037 66.6133 173.078 67.4446 175.024 68.2471C171.619 70.0235 168.65 71.5056 166.358 72.5335C165.142 72.302 163.904 72.0634 162.648 71.8206C163.955 70.3416 166.162 68.2504 168.949 65.7687ZM359.586 174.138C359.663 172.459 359.748 170.727 359.841 168.941C361.847 170.288 364.31 172.087 367.059 174.174C366.405 176.543 365.761 178.842 365.136 180.978C363.051 178.465 361.151 176.134 359.586 174.138ZM348.557 150.748C348.349 149.111 348.14 147.422 347.929 145.689C350.133 146.736 352.945 148.216 356.092 149.939C355.851 152.379 355.607 154.753 355.357 156.976C352.794 154.687 350.453 152.561 348.557 150.748ZM333.445 129.35C332.994 127.832 332.535 126.261 332.069 124.663C334.437 125.351 337.577 126.433 341.123 127.727C341.281 130.153 341.424 132.517 341.54 134.751C338.439 132.745 335.683 130.916 333.445 129.35ZM315.198 110.862C314.526 109.49 313.832 108.07 313.133 106.628C315.554 106.92 318.813 107.488 322.495 108.198C323.053 110.515 323.593 112.776 324.084 114.921C320.68 113.416 317.661 112.044 315.198 110.862ZM293.634 94.752C292.819 93.5979 291.989 92.4194 291.147 91.2168C293.498 91.1321 296.858 91.2091 300.784 91.3772C301.695 93.5264 302.585 95.638 303.417 97.6517C299.605 96.5927 296.256 95.6118 293.634 94.752ZM270.058 82.6468C269.119 81.6909 268.167 80.7203 267.195 79.7267C269.459 79.2703 272.826 78.8282 276.791 78.3969C278.014 80.3201 279.216 82.2172 280.349 84.03C276.308 83.5567 272.792 83.0944 270.058 82.6468ZM244.682 74.252C243.672 73.4937 242.646 72.7235 241.604 71.9369C243.604 71.1301 246.782 70.1664 250.628 69.12C252.128 70.8172 253.604 72.4953 254.999 74.1018C250.895 74.2339 247.355 74.2978 244.682 74.252ZM218.616 69.6801C217.48 69.0824 216.332 68.4775 215.16 67.8551C216.958 66.7802 219.94 65.362 223.595 63.751C225.396 65.2267 227.169 66.6853 228.839 68.0812C224.779 68.8034 221.266 69.3679 218.616 69.6801ZM191.898 69.0829C190.789 68.6914 189.66 68.2935 188.517 67.8874C189.963 66.6188 192.575 64.8112 195.853 62.7008C197.779 63.8444 199.67 64.975 201.473 66.0651C197.631 67.3731 194.339 68.4268 191.898 69.0829ZM140.669 79.6842C139.533 79.635 138.377 79.5836 137.204 79.5301C138.155 77.9237 140.047 75.4595 142.461 72.5221C144.611 73.0396 146.713 73.5521 148.719 74.0537C145.495 76.4225 142.748 78.3587 140.669 79.6842ZM117.755 90.2626C116.437 90.4076 115.085 90.5535 113.714 90.7003C114.495 88.8682 115.918 86.2327 117.764 83.0682C120.11 83.2712 122.394 83.4764 124.564 83.6844C121.933 86.3425 119.622 88.5915 117.755 90.2626ZM96.2308 104.198C94.9923 104.522 93.7341 104.849 92.4444 105.182C92.9841 103.238 94.0209 100.394 95.3332 97.0529C97.5768 96.9268 99.7613 96.8121 101.832 96.7193C99.6873 99.7136 97.7845 102.274 96.2308 104.198ZM77.3843 120.92C76.1544 121.453 74.9015 121.993 73.6124 122.545C73.8509 120.519 74.3878 117.651 75.0952 114.281C77.3191 113.814 79.4865 113.365 81.5342 112.954C79.9776 116.084 78.5745 118.801 77.3843 120.92ZM49.1819 160.917C47.9975 161.947 46.7532 163.02 45.4863 164.108C45.0861 162.008 44.694 159.225 44.3106 156.052C46.4241 154.87 48.4548 153.75 50.375 152.707C49.9685 155.816 49.5711 158.586 49.1819 160.917ZM39.9361 184.156C38.8966 185.393 37.7913 186.691 36.6727 188.004C35.9089 185.903 35.0538 183.152 34.1445 180.019C36.0846 178.517 37.9536 177.089 39.7173 175.767C39.8396 178.91 39.9192 181.745 39.9361 184.156ZM34.582 208.51C33.7641 209.878 32.8973 211.31 32.0201 212.764C30.9178 210.75 29.6031 208.089 28.1656 205.049C29.8474 203.285 31.4693 201.602 33.0004 200.044C33.636 203.209 34.1788 206.08 34.582 208.51ZM33.4261 232.979C32.8013 234.587 32.1393 236.269 31.4547 237.99C30.012 236.117 28.2848 233.689 26.3873 230.932C27.8131 228.835 29.1935 226.822 30.4948 224.972C31.6169 227.925 32.6164 230.636 33.4261 232.979ZM43.1775 282.742C43.1093 284.385 43.0326 286.077 42.947 287.819C40.9501 286.445 38.4562 284.583 35.6698 282.435C36.3143 280.087 36.9508 277.807 37.5616 275.684C39.6721 278.272 41.615 280.695 43.1775 282.742ZM54.2295 305.661C54.4226 307.266 54.6187 308.918 54.8147 310.616C52.5989 309.558 49.8072 308.085 46.6741 306.368C46.9273 303.983 47.1826 301.662 47.441 299.489C49.9859 301.753 52.329 303.869 54.2295 305.661ZM69.0704 326.778C69.5421 328.358 70.0221 329.989 70.5106 331.66C68.153 330.978 65.1082 329.945 61.6715 328.711C61.5039 326.245 61.3503 323.844 61.2229 321.587C64.199 323.501 66.8691 325.258 69.0704 326.778ZM87.3939 345.751C88.0785 347.166 88.78 348.628 89.4928 350.112C87.0809 349.802 83.8233 349.212 80.1306 348.479C79.5767 346.131 79.0456 343.835 78.5598 341.659C81.9489 343.168 84.9512 344.551 87.3939 345.751ZM108.839 361.505C109.714 362.744 110.609 364.017 111.521 365.315C109.12 365.41 105.74 365.337 101.818 365.166C100.875 362.931 99.9601 360.74 99.1079 358.657C102.874 359.693 106.195 360.654 108.839 361.505ZM132.296 373.69C133.298 374.715 134.307 375.75 135.346 376.821C133.133 377.295 129.873 377.742 126.018 378.173C124.76 376.18 123.53 374.221 122.371 372.353C126.248 372.809 129.639 373.256 132.296 373.69ZM157.785 382.379C158.85 383.169 159.93 383.972 161.032 384.792C158.947 385.557 155.723 386.479 151.885 387.489C150.374 385.769 148.883 384.07 147.48 382.447C151.542 382.339 155.07 382.304 157.785 382.379ZM183.761 386.761C184.897 387.365 186.045 387.976 187.221 388.605C185.434 389.659 182.548 391.03 179.035 392.58C177.288 391.147 175.563 389.728 173.934 388.37C177.822 387.653 181.187 387.09 183.761 386.761ZM210.606 387.408C211.751 387.807 212.916 388.213 214.097 388.627C212.515 389.94 209.783 391.788 206.401 393.938C204.455 392.78 202.545 391.638 200.73 390.538C204.658 389.203 208.061 388.109 210.606 387.408ZM261.904 376.826C263.082 376.873 264.285 376.922 265.506 376.975C264.481 378.621 262.557 381.099 260.109 384.063C257.916 383.533 255.775 383.008 253.735 382.496C256.955 380.148 259.765 378.178 261.904 376.826ZM285.294 366.1C286.468 365.973 287.667 365.845 288.882 365.718C288.13 367.485 286.675 370.144 284.787 373.35C282.583 373.153 280.436 372.955 278.386 372.754C281.086 370.042 283.46 367.735 285.294 366.1ZM306.208 352.423C307.504 352.084 308.823 351.743 310.173 351.393C309.666 353.349 308.685 356.151 307.436 359.427C305.13 359.562 302.883 359.687 300.755 359.791C302.844 356.865 304.694 354.348 306.208 352.423ZM325.047 335.832C326.336 335.277 327.651 334.716 329.007 334.139C328.779 336.209 328.257 339.078 327.553 342.436C325.285 342.903 323.075 343.35 320.997 343.752C322.511 340.672 323.885 337.966 325.047 335.832ZM353.823 295.044C354.961 294.059 356.13 293.052 357.336 292.016C357.742 294.153 358.132 297.055 358.514 300.38C356.446 301.514 354.461 302.589 352.569 303.598C352.996 300.335 353.416 297.437 353.823 295.044ZM362.799 272.069C363.798 270.877 364.84 269.64 365.905 268.381C366.65 270.476 367.506 273.306 368.423 276.537C366.511 278.011 364.677 279.41 362.935 280.717C362.83 277.441 362.779 274.523 362.799 272.069ZM368.008 248.426C368.885 246.957 369.814 245.415 370.763 243.847C371.845 245.813 373.112 248.356 374.487 251.248C372.762 253.071 371.1 254.808 369.532 256.421C368.931 253.465 368.409 250.754 368.008 248.426ZM369.403 223.179C370.027 221.594 370.68 219.958 371.36 218.272C372.791 220.122 374.512 222.538 376.402 225.288C375.001 227.368 373.635 229.374 372.345 231.23C371.214 228.256 370.209 225.525 369.403 223.179ZM366.613 198.429C366.963 196.738 367.332 194.992 367.719 193.192C369.445 194.804 371.553 196.936 373.885 199.376C372.84 201.655 371.82 203.861 370.852 205.906C369.255 203.162 367.795 200.608 366.613 198.429ZM371.362 158.508C370.471 161.674 369.535 165.109 368.596 168.562C365.723 166.076 362.92 163.639 360.248 161.299C360.406 158.381 360.569 155.429 360.724 152.502C364.179 154.437 367.798 156.491 371.362 158.508ZM357.664 133.977C357.322 137.221 356.983 140.751 356.64 144.311C353.345 142.247 350.108 140.216 347.046 138.274C346.704 135.371 346.361 132.441 346.015 129.541C349.775 130.956 353.767 132.489 357.664 133.977ZM340.052 111.829C340.251 115.052 340.499 118.568 340.742 122.128C337.049 120.547 333.419 118.99 329.992 117.505C329.197 114.745 328.393 111.963 327.595 109.214C331.603 110.034 335.874 110.944 340.052 111.829ZM318.692 92.3614C319.413 95.4763 320.238 98.8882 321.078 102.351C317.127 101.323 313.25 100.309 309.612 99.337C308.379 96.7669 307.135 94.1782 305.909 91.6251C309.993 91.8412 314.383 92.1077 318.692 92.3614ZM294.578 76.7134C295.774 79.6062 297.115 82.7592 298.484 85.9674C294.39 85.5521 290.379 85.1399 286.621 84.7337C285.031 82.4459 283.428 80.1465 281.846 77.8789C285.9 77.4848 290.276 77.0971 294.578 76.7134ZM268.094 64.7037C269.774 67.4004 271.63 70.3171 273.55 73.3201C269.371 73.516 265.292 73.7038 261.478 73.8611C259.509 71.838 257.54 69.8139 255.589 67.8114C259.537 66.7983 263.846 65.7426 268.094 64.7037ZM239.862 56.9165C241.973 59.3462 244.293 61.9732 246.693 64.6769C242.643 65.4768 238.7 66.248 235.005 66.9463C232.724 65.2163 230.44 63.4853 228.178 61.7739C231.852 60.2153 235.876 58.558 239.862 56.9165ZM210.997 53.3818C213.44 55.4284 216.114 57.6268 218.878 59.8856C215 61.2919 211.234 62.6506 207.714 63.8953C205.224 62.567 202.729 61.2389 200.255 59.9238C203.613 57.8413 207.311 55.6042 210.997 53.3818ZM182.066 54.4895C184.795 56.1424 187.787 57.9183 190.828 59.7208C187.363 61.6249 184.007 63.4541 180.843 65.1573C178.192 64.2119 175.521 63.2604 172.878 62.3236C175.759 59.8321 178.908 57.1621 182.066 54.4895ZM153.599 59.5347C156.519 60.7466 159.694 62.0338 162.924 63.3367C159.822 65.7103 156.817 67.9992 153.991 70.1267C151.266 69.5911 148.525 69.0513 145.813 68.5195C148.242 65.671 150.909 62.6091 153.599 59.5347ZM126.541 68.6838C129.719 69.4721 133.165 70.2964 136.65 71.1294C133.999 73.9266 131.432 76.6189 128.995 79.1443C126.118 79.0067 123.217 78.8681 120.343 78.7348C122.274 75.5451 124.402 72.1164 126.541 68.6838ZM101.662 81.6914C104.84 81.9786 108.254 82.2641 111.688 82.5524C109.543 85.6857 107.45 88.7263 105.471 91.5655C102.721 91.8505 99.9462 92.1365 97.1934 92.4243C98.5827 89.0227 100.125 85.3484 101.662 81.6914ZM78.7851 98.0365C82.0345 97.8521 85.5138 97.6359 89.0017 97.4246C87.3886 100.837 85.8145 104.154 84.3149 107.261C81.6162 107.948 78.8868 108.641 76.1772 109.333C76.9811 105.749 77.8874 101.876 78.7851 98.0365ZM58.9839 117.687C62.1881 117.026 65.5993 116.299 69.0192 115.57C68.0192 119.085 67.0395 122.513 66.0965 125.741C63.4894 126.845 60.8501 127.96 58.2288 129.071C58.4447 125.446 58.7146 121.551 58.9839 117.687ZM42.5951 139.854C45.7138 138.7 49.0312 137.449 52.3465 136.201C51.9405 139.766 51.5397 143.261 51.1453 146.551C48.6997 148.049 46.214 149.565 43.743 151.075C43.356 147.489 42.9756 143.652 42.5951 139.854ZM29.7991 164.184C32.7275 162.562 35.821 160.822 38.9199 159.076C39.1043 162.584 39.2805 166.025 39.437 169.292C37.2189 171.185 34.9717 173.101 32.7309 175.014C31.7671 171.536 30.7787 167.834 29.7991 164.184ZM21.2833 190.032C23.9307 187.981 26.7229 185.796 29.5204 183.611C30.282 187.106 31.0231 190.538 31.7135 193.799C29.8276 195.99 27.916 198.211 26.0097 200.426C24.4728 197.084 22.8656 193.525 21.2833 190.032ZM16.9629 216.884C19.3149 214.412 21.7999 211.77 24.2885 209.136C25.6375 212.522 26.9585 215.856 28.2028 219.035C26.6544 221.567 25.0779 224.137 23.5131 226.699C21.3828 223.533 19.1473 220.166 16.9629 216.884ZM17.2869 244.41C19.1699 241.645 21.164 238.674 23.1581 235.715C25.0558 238.864 26.9191 241.963 28.68 244.92C27.5862 247.633 26.47 250.388 25.3652 253.126C22.7405 250.319 19.9827 247.326 17.2869 244.41ZM21.9681 271.655C23.3711 268.653 24.8568 265.412 26.3448 262.179C28.7992 265.1 31.1935 267.962 33.4687 270.708C32.8379 273.533 32.1958 276.398 31.5628 279.239C28.4437 276.788 25.1803 274.195 21.9681 271.655ZM31.4633 297.83C32.3383 294.693 33.2557 291.298 34.1788 287.899C37.0648 290.396 39.8856 292.843 42.5696 295.193C42.4189 298.06 42.26 300.961 42.1066 303.838C38.6471 301.902 35.0253 299.847 31.4633 297.83ZM44.9779 322.493C45.3443 319.207 45.7109 315.638 46.0803 312.045C49.3663 314.093 52.5961 316.112 55.6553 318.043C55.9846 320.976 56.3145 323.942 56.6436 326.876C52.8747 325.478 48.8776 323.963 44.9779 322.493ZM62.7336 344.809C62.5492 341.583 62.3131 338.071 62.0688 334.515C65.7075 336.069 69.2781 337.6 72.649 339.064C73.4502 341.851 74.2541 344.663 75.0522 347.442C71.09 346.612 66.8662 345.697 62.7336 344.809ZM83.8209 364.135C83.1026 360.972 82.2788 357.512 81.4434 354.006C85.3323 355.007 89.1553 355.995 92.7567 356.948C94.0209 359.6 95.2931 362.272 96.5542 364.905C92.4728 364.679 88.1012 364.403 83.8209 364.135ZM108.018 379.89C106.797 376.927 105.422 373.68 104.025 370.384C108.129 370.802 112.156 371.217 115.923 371.625C117.568 373.988 119.224 376.368 120.857 378.711C116.775 379.112 112.358 379.502 108.018 379.89ZM134.576 391.798C132.912 389.094 131.074 386.169 129.168 383.157C133.25 382.97 137.244 382.798 140.99 382.657C142.958 384.701 144.929 386.744 146.89 388.771C142.984 389.751 138.749 390.778 134.576 391.798ZM162.458 399.545C160.393 397.154 158.137 394.582 155.808 391.942C159.844 391.119 163.781 390.324 167.465 389.604C169.723 391.293 171.981 392.982 174.225 394.656C170.522 396.226 166.466 397.894 162.458 399.545ZM191.664 402.965C189.229 400.933 186.576 398.752 183.839 396.511C187.602 395.152 191.264 393.84 194.703 392.63C197.177 393.964 199.652 395.297 202.111 396.621C198.823 398.646 195.231 400.812 191.664 402.965ZM220.414 402.284C217.696 400.638 214.721 398.871 211.691 397.076C215.309 395.1 218.807 393.203 222.093 391.444C224.718 392.371 227.353 393.304 229.964 394.221C226.978 396.781 223.697 399.532 220.414 402.284ZM248.969 397.078C245.989 395.857 242.745 394.555 239.447 393.231C242.643 390.791 245.739 388.442 248.656 386.257C251.403 386.799 254.169 387.345 256.904 387.883C254.424 390.798 251.701 393.934 248.969 397.078ZM275.876 387.87C272.776 387.107 269.434 386.304 266.051 385.492C268.76 382.652 271.39 379.913 273.87 377.358C276.622 377.487 279.397 377.621 282.147 377.75C280.191 380.956 278.038 384.411 275.876 387.87ZM301.226 374.829C297.974 374.514 294.473 374.205 290.942 373.893C293.097 370.754 295.199 367.707 297.183 364.862C299.994 364.575 302.832 364.29 305.647 364.004C304.278 367.432 302.752 371.138 301.226 374.829ZM323.882 358.459C320.638 358.632 317.161 358.842 313.671 359.054C315.261 355.684 316.812 352.407 318.289 349.332C321.01 348.644 323.763 347.952 326.498 347.263C325.695 350.819 324.785 354.654 323.882 358.459ZM343.756 339.063C340.521 339.725 337.07 340.45 333.612 341.176C334.619 337.642 335.61 334.191 336.561 330.95C339.186 329.847 341.844 328.731 344.49 327.618C344.274 331.263 344.012 335.181 343.756 339.063ZM360.18 316.874C357.101 318.007 353.831 319.23 350.557 320.452C350.97 316.808 351.38 313.236 351.787 309.876C354.192 308.397 356.635 306.901 359.06 305.413C359.436 309.076 359.807 312.999 360.18 316.874ZM372.747 292.544C369.838 294.132 366.764 295.831 363.682 297.535C363.498 293.922 363.321 290.378 363.177 287.029C365.361 285.171 367.571 283.297 369.775 281.422C370.743 284.986 371.748 288.795 372.747 292.544ZM381.459 266.443C378.775 268.505 375.933 270.718 373.084 272.932C372.299 269.389 371.536 265.909 370.828 262.603C372.747 260.363 374.691 258.094 376.632 255.832C378.202 259.238 379.847 262.876 381.459 266.443ZM385.766 239.278C383.443 241.723 380.98 244.351 378.511 246.979C377.202 243.683 375.917 240.444 374.708 237.351C376.253 234.81 377.821 232.239 379.377 229.675C381.458 232.769 383.63 236.059 385.766 239.278ZM379.576 220.564C377.697 217.44 375.865 214.388 374.121 211.459C375.234 208.722 376.367 205.946 377.489 203.192C380.08 205.964 382.803 208.92 385.474 211.805C383.587 214.572 381.582 217.57 379.576 220.564Z" fill="#2D72A2"/>
<path d="M65.2405 205.376L62.4171 191.259L54.4659 196.56L59.7666 188.609L45.6502 185.786L59.7666 182.962L54.4656 175.011L62.4173 180.312L65.2405 166.196L68.0637 180.312L76.0151 175.011L70.7141 182.962L84.8305 185.786L70.7141 188.609L76.0151 196.56L68.0637 191.259L65.2405 205.376Z" fill="#EEEEEE"/>
<path d="M78.2881 321.723L75.4647 307.606L67.5135 312.907L72.8142 304.956L58.6978 302.133L72.8142 299.309L67.5132 291.358L75.4649 296.659L78.2881 282.543L81.1113 296.659L89.0627 291.358L83.7617 299.309L97.8781 302.133L83.7617 304.956L89.0627 312.907L81.1113 307.606L78.2881 321.723Z" fill="#EEEEEE"/>
<path d="M58.5586 265.566L55.3487 249.723L46.3085 255.672L52.3354 246.748L36.2859 243.58L52.3354 240.41L46.3084 231.487L55.3489 237.436L58.5586 221.593L61.7685 237.436L70.8087 231.487L64.7818 240.41L80.8314 243.58L64.7818 246.748L70.8087 255.672L61.7685 249.723L58.5586 265.566Z" fill="#EEEEEE"/>
<path d="M335.007 205.476L337.761 191.708L345.516 196.878L340.346 189.123L354.114 186.369L340.346 183.616L345.516 175.861L337.761 181.031L335.007 167.263L332.254 181.03L324.499 175.861L329.669 183.616L315.901 186.369L329.669 189.123L324.499 196.878L332.254 191.708L335.007 205.476Z" fill="#EEEEEE"/>
<path d="M318.999 321.822L321.752 308.055L329.507 313.225L324.337 305.47L338.105 302.716L324.337 299.963L329.507 292.208L321.752 297.378L318.999 283.61L316.245 297.377L308.49 292.208L313.66 299.963L299.892 302.716L313.66 305.47L308.49 313.225L316.245 308.055L318.999 321.822Z" fill="#EEEEEE"/>
<path d="M338.162 265.682L341.37 250.604L350.405 256.266L344.382 247.773L360.423 244.758L344.382 241.741L350.405 233.248L341.37 238.91L338.162 223.832L334.954 238.91L325.918 233.248L331.942 241.741L315.901 244.758L331.942 247.773L325.918 256.266L334.954 250.604L338.162 265.682Z" fill="#EEEEEE"/>
<path d="M201.668 108.568C256.077 108.568 310.491 117.556 310.491 117.556V251.43C310.491 251.43 303.693 343.26 201.668 378.666C99.6511 343.26 92.8493 251.43 92.8493 251.43V117.556C92.8493 117.556 147.258 108.568 201.668 108.568Z" fill="url(#paint0_linear_427_171)"/>
<path d="M201.609 370.345L199.44 369.514C115.278 337.195 108.655 252.442 108.597 251.59L108.582 251.132V127.539L113.785 126.588C115.577 126.26 158.192 118.562 201.608 118.562C245.028 118.562 287.645 126.26 289.437 126.588L294.639 127.539L294.624 251.589C294.568 252.442 287.946 337.195 203.777 369.512L201.609 370.345ZM121.154 250.877C121.566 256.105 128.516 326.939 201.608 356.332C274.673 326.957 281.644 256.193 282.068 250.875V138.648C269.35 136.605 235.273 131.694 201.608 131.694C167.915 131.694 133.866 136.605 121.154 138.648V250.877Z" fill="url(#paint1_linear_427_171)"/>
<path d="M201.278 231.436C202.189 232.077 205.993 234.151 212.429 234.151C218.611 234.151 222.34 232.272 223.431 231.534C223.015 230.813 222.966 229.776 223.915 228.271H223.877C230.089 224.932 234.838 219.557 234.838 214.265C234.838 206.127 224.474 201.862 212.433 201.862C200.381 201.862 190.078 206.125 190.078 214.265C190.078 219.578 194.796 224.976 201.045 228.308C202.058 229.694 201.874 230.702 201.278 231.436Z" fill="#FEB647"/>
<path d="M224.542 233.847C224.542 233.847 221.404 248.444 217.29 256.775C215.831 250.449 213.088 244.618 213.088 244.618C213.088 244.618 216.598 243.164 216.598 240.794C216.598 237.869 212.052 236.418 212.052 236.418C212.052 236.418 207.491 237.445 207.491 240.794C207.491 243.064 211.016 244.618 211.016 244.618C211.016 244.618 208.266 250.477 206.811 256.769C202.669 248.402 199.497 233.707 199.497 233.707L199.519 233.685C189.26 237.527 177.621 244.246 177.621 250.891V253.444C177.621 262.725 195.553 264.837 212.151 264.837C228.774 264.837 246.483 262.725 246.483 253.444C246.483 251.619 246.483 252.732 246.483 250.891C246.483 244.148 235.135 237.576 224.542 233.847Z" fill="#FEB647"/>
<path d="M247.364 176.589H161.354C153.941 176.589 147.915 182.852 147.915 190.553V296.681C147.915 304.385 153.941 310.645 161.354 310.645H164.042V305.061H161.354C156.909 305.061 153.291 301.301 153.291 296.681C153.291 292.063 156.909 288.304 161.354 288.304H174.794V310.645L188.233 296.681L201.67 310.645V288.304H250.052V302.268C250.052 303.804 248.84 305.061 247.364 305.061H212.421V310.645H247.364C251.81 310.645 255.425 306.888 255.425 302.268V184.969C255.425 180.349 251.81 176.589 247.364 176.589ZM153.291 285.516V190.553C153.291 185.935 156.909 182.176 161.354 182.176H169.418V282.717H161.354C158.333 282.717 155.538 283.762 153.291 285.516ZM250.052 282.717H174.794V182.176H247.364C248.84 182.176 250.052 183.432 250.052 184.969V282.717Z" fill="#FEB647"/>
<path d="M269.749 155.951C269.749 155.536 269.256 155.2 268.648 155.2C268.04 155.2 267.547 155.536 267.547 155.951V170.719C267.547 171.133 268.04 171.47 268.648 171.47C269.256 171.47 269.749 171.133 269.749 170.719V155.951Z" fill="#FEB647"/>
<path opacity="0.4" d="M268.465 155.701H268.281C268.18 155.701 268.098 155.757 268.098 155.826V170.844C268.098 170.913 268.18 170.969 268.281 170.969H268.465C268.567 170.969 268.649 170.913 268.649 170.844V155.826C268.649 155.757 268.567 155.701 268.465 155.701Z" fill="#FEB647"/>
<path d="M268.649 172.846C270.474 172.846 271.953 172.342 271.953 171.72C271.953 171.098 270.474 170.594 268.649 170.594C266.824 170.594 265.345 171.098 265.345 171.72C265.345 172.342 266.824 172.846 268.649 172.846Z" fill="#FEB647"/>
<path d="M271.219 171.72H266.079C265.674 171.72 265.345 171.944 265.345 172.221V173.973C265.345 174.249 265.674 174.473 266.079 174.473H271.219C271.624 174.473 271.953 174.249 271.953 173.973V172.221C271.953 171.944 271.624 171.72 271.219 171.72Z" fill="#FEB647"/>
<path d="M268.649 175.6C270.474 175.6 271.953 175.096 271.953 174.473C271.953 173.851 270.474 173.347 268.649 173.347C266.824 173.347 265.345 173.851 265.345 174.473C265.345 175.096 266.824 175.6 268.649 175.6Z" fill="#FEB647"/>
<path d="M268.649 172.846C270.474 172.846 271.953 172.342 271.953 171.72C271.953 171.098 270.474 170.594 268.649 170.594C266.824 170.594 265.345 171.098 265.345 171.72C265.345 172.342 266.824 172.846 268.649 172.846Z" fill="#FEB647"/>
<path opacity="0.45" d="M267.914 172.219C268.725 172.219 269.383 171.995 269.383 171.719C269.383 171.443 268.725 171.219 267.914 171.219C267.103 171.219 266.446 171.443 266.446 171.719C266.446 171.995 267.103 172.219 267.914 172.219Z" fill="#FEB647"/>
<path d="M264.243 174.473H273.054L277.826 197.751H259.471L264.243 174.473Z" fill="#FEB647"/>
<path opacity="0.6" d="M264.243 174.473H266.079L262.041 197.751H259.471L264.243 174.473Z" fill="#FEB647"/>
<path opacity="0.25" d="M271.218 174.473H273.053L277.826 197.751H275.256L271.218 174.473Z" fill="#FEB647"/>
<path opacity="0.15" d="M267.731 174.473H269.566L270.117 197.751H267.18L267.731 174.473Z" fill="#FEB647"/>
<path d="M276.725 197H260.572C259.964 197 259.471 197.336 259.471 197.751C259.471 198.166 259.964 198.502 260.572 198.502H276.725C277.333 198.502 277.826 198.166 277.826 197.751C277.826 197.336 277.333 197 276.725 197Z" fill="#FEB647"/>
<path opacity="0.5" d="M275.991 197.25H261.306C261.104 197.25 260.939 197.362 260.939 197.499C260.939 197.637 261.104 197.749 261.306 197.749H275.991C276.193 197.749 276.358 197.637 276.358 197.499C276.358 197.362 276.193 197.25 275.991 197.25Z" fill="#FEB647"/>
<path d="M202.137 136.301L129.268 156.454L160.776 164.819L160.782 164.734L162.294 164.103C175.742 158.509 189.034 155.695 202.101 155.63C215.168 155.56 228.007 158.25 240.539 163.645C241.297 163.971 242.027 164.292 242.502 164.465L274.714 155.557L202.137 136.301Z" fill="#FEB647"/>
<path d="M201.668 108.568C256.077 108.568 310.491 117.556 310.491 117.556V251.43C310.491 251.43 303.693 343.26 201.668 378.666C99.6511 343.26 92.8493 251.43 92.8493 251.43V117.556C92.8493 117.556 147.258 108.568 201.668 108.568Z" fill="url(#paint2_linear_427_171)"/>
<path d="M201.609 370.345L199.44 369.514C115.278 337.195 108.655 252.442 108.597 251.59L108.582 251.132V127.539L113.785 126.588C115.577 126.26 158.192 118.562 201.608 118.562C245.028 118.562 287.645 126.26 289.437 126.588L294.639 127.539L294.624 251.589C294.568 252.442 287.946 337.195 203.777 369.512L201.609 370.345ZM121.154 250.877C121.566 256.105 128.516 326.939 201.608 356.332C274.673 326.957 281.644 256.193 282.068 250.875V138.648C269.35 136.605 235.273 131.694 201.608 131.694C167.915 131.694 133.866 136.605 121.154 138.648V250.877Z" fill="url(#paint3_linear_427_171)"/>
<path d="M201.339 235.469C202.256 236.302 206.08 239 212.551 239C218.765 239 222.514 236.556 223.611 235.596C223.193 234.659 223.144 233.31 224.098 231.353H224.06C230.305 227.009 235.079 220.017 235.079 213.133C235.079 202.548 224.659 197 212.554 197C200.438 197 190.079 202.545 190.079 213.133C190.079 220.045 194.823 227.066 201.105 231.4C202.124 233.203 201.939 234.514 201.339 235.469Z" fill="#FEB647"/>
<path d="M224.999 238.847C224.999 238.847 221.862 253.444 217.748 261.775C216.289 255.449 213.546 249.618 213.546 249.618C213.546 249.618 217.056 248.164 217.056 245.794C217.056 242.869 212.51 241.418 212.51 241.418C212.51 241.418 207.948 242.445 207.948 245.794C207.948 248.064 211.473 249.618 211.473 249.618C211.473 249.618 208.724 255.477 207.269 261.769C203.126 253.402 199.955 238.707 199.955 238.707L199.977 238.685C189.718 242.527 178.079 249.246 178.079 255.891V258.444C178.079 267.725 196.011 269.837 212.609 269.837C229.232 269.837 246.941 267.725 246.941 258.444C246.941 256.619 246.941 257.732 246.941 255.891C246.941 249.148 235.593 242.576 224.999 238.847Z" fill="#FEB647"/>
<path d="M247.364 176.589H161.354C153.941 176.589 147.915 182.852 147.915 190.553V296.681C147.915 304.385 153.941 310.645 161.354 310.645H164.042V305.061H161.354C156.909 305.061 153.291 301.301 153.291 296.681C153.291 292.063 156.909 288.304 161.354 288.304H174.794V310.645L188.233 296.681L201.67 310.645V288.304H250.052V302.268C250.052 303.804 248.84 305.061 247.364 305.061H212.421V310.645H247.364C251.81 310.645 255.425 306.888 255.425 302.268V184.969C255.425 180.349 251.81 176.589 247.364 176.589ZM153.291 285.516V190.553C153.291 185.935 156.909 182.176 161.354 182.176H169.418V282.717H161.354C158.333 282.717 155.538 283.762 153.291 285.516ZM250.052 282.717H174.794V182.176H247.364C248.84 182.176 250.052 183.432 250.052 184.969V282.717Z" fill="#FEB647"/>
<path d="M268.919 166.641C268.919 166.287 268.543 166 268.079 166C267.615 166 267.239 166.287 267.239 166.641V179.26C267.239 179.614 267.615 179.901 268.079 179.901C268.543 179.901 268.919 179.614 268.919 179.26V166.641Z" fill="#FEB647"/>
<path opacity="0.4" d="M267.939 166.428H267.799C267.721 166.428 267.659 166.476 267.659 166.535V179.367C267.659 179.426 267.721 179.474 267.799 179.474H267.939C268.016 179.474 268.079 179.426 268.079 179.367V166.535C268.079 166.476 268.016 166.428 267.939 166.428Z" fill="#FEB647"/>
<path d="M268.079 181.078C269.471 181.078 270.599 180.647 270.599 180.115C270.599 179.584 269.471 179.153 268.079 179.153C266.687 179.153 265.559 179.584 265.559 180.115C265.559 180.647 266.687 181.078 268.079 181.078Z" fill="#FEB647"/>
<path d="M270.039 180.115H266.119C265.81 180.115 265.559 180.307 265.559 180.543V182.04C265.559 182.277 265.81 182.468 266.119 182.468H270.039C270.348 182.468 270.599 182.277 270.599 182.04V180.543C270.599 180.307 270.348 180.115 270.039 180.115Z" fill="#FEB647"/>
<path d="M268.079 183.431C269.471 183.431 270.599 183 270.599 182.468C270.599 181.937 269.471 181.506 268.079 181.506C266.687 181.506 265.559 181.937 265.559 182.468C265.559 183 266.687 183.431 268.079 183.431Z" fill="#FEB647"/>
<path d="M268.079 181.078C269.471 181.078 270.599 180.647 270.599 180.115C270.599 179.584 269.471 179.153 268.079 179.153C266.687 179.153 265.559 179.584 265.559 180.115C265.559 180.647 266.687 181.078 268.079 181.078Z" fill="#FEB647"/>
<path opacity="0.45" d="M267.519 180.541C268.137 180.541 268.639 180.35 268.639 180.115C268.639 179.879 268.137 179.688 267.519 179.688C266.9 179.688 266.399 179.879 266.399 180.115C266.399 180.35 266.9 180.541 267.519 180.541Z" fill="#FEB647"/>
<path d="M264.719 182.468H271.439L275.079 202.358H261.079L264.719 182.468Z" fill="#FEB647"/>
<path opacity="0.6" d="M264.719 182.468H266.119L263.039 202.358H261.079L264.719 182.468Z" fill="#FEB647"/>
<path opacity="0.25" d="M270.039 182.468H271.439L275.079 202.358H273.119L270.039 182.468Z" fill="#FEB647"/>
<path opacity="0.15" d="M267.379 182.468H268.779L269.199 202.358H266.959L267.379 182.468Z" fill="#FEB647"/>
<path d="M274.239 201.717H261.919C261.455 201.717 261.079 202.004 261.079 202.358C261.079 202.713 261.455 203 261.919 203H274.239C274.703 203 275.079 202.713 275.079 202.358C275.079 202.004 274.703 201.717 274.239 201.717Z" fill="#FEB647"/>
<path opacity="0.5" d="M273.679 201.93H262.479C262.324 201.93 262.199 202.026 262.199 202.143C262.199 202.261 262.324 202.356 262.479 202.356H273.679C273.834 202.356 273.959 202.261 273.959 202.143C273.959 202.026 273.834 201.93 273.679 201.93Z" fill="#FEB647"/>
<path d="M202.137 136.301L129.268 156.454L160.776 164.819L160.782 164.734L162.294 164.103C175.742 158.509 189.034 155.695 202.101 155.63C215.168 155.56 228.007 158.25 240.539 163.645C241.297 163.971 242.027 164.292 242.502 164.465L274.714 155.557L202.137 136.301Z" fill="#FEB647"/>
<defs>
<filter id="filter0_d_427_171" x="423.2" y="63.0123" width="584.606" height="355.565" filterUnits="userSpaceOnUse" color-interpolation-filters="sRGB">
<feFlood flood-opacity="0" result="BackgroundImageFix"/>
<feColorMatrix in="SourceAlpha" type="matrix" values="0 0 0 0 0 0 0 0 0 0 0 0 0 0 0 0 0 0 127 0" result="hardAlpha"/>
<feOffset dy="4"/>
<feGaussianBlur stdDeviation="2"/>
<feComposite in2="hardAlpha" operator="out"/>
<feColorMatrix type="matrix" values="0 0 0 0 0 0 0 0 0 0 0 0 0 0 0 0 0 0 0.25 0"/>
<feBlend mode="normal" in2="BackgroundImageFix" result="effect1_dropShadow_427_171"/>
<feBlend mode="normal" in="SourceGraphic" in2="effect1_dropShadow_427_171" result="shape"/>
</filter>
<filter id="filter1_d_427_171" x="423.2" y="60.0123" width="580.269" height="154.747" filterUnits="userSpaceOnUse" color-interpolation-filters="sRGB">
<feFlood flood-opacity="0" result="BackgroundImageFix"/>
<feColorMatrix in="SourceAlpha" type="matrix" values="0 0 0 0 0 0 0 0 0 0 0 0 0 0 0 0 0 0 127 0" result="hardAlpha"/>
<feOffset dy="1"/>
<feGaussianBlur stdDeviation="2"/>
<feComposite in2="hardAlpha" operator="out"/>
<feColorMatrix type="matrix" values="0 0 0 0 0.0470588 0 0 0 0 0.0470588 0 0 0 0 0.0509804 0 0 0 0.05 0"/>
<feBlend mode="normal" in2="BackgroundImageFix" result="effect1_dropShadow_427_171"/>
<feBlend mode="normal" in="SourceGraphic" in2="effect1_dropShadow_427_171" result="shape"/>
</filter>
<filter id="filter2_d_427_171" x="425.551" y="180.68" width="582.255" height="234.898" filterUnits="userSpaceOnUse" color-interpolation-filters="sRGB">
<feFlood flood-opacity="0" result="BackgroundImageFix"/>
<feColorMatrix in="SourceAlpha" type="matrix" values="0 0 0 0 0 0 0 0 0 0 0 0 0 0 0 0 0 0 127 0" result="hardAlpha"/>
<feOffset dy="1"/>
<feGaussianBlur stdDeviation="2"/>
<feComposite in2="hardAlpha" operator="out"/>
<feColorMatrix type="matrix" values="0 0 0 0 0.0470588 0 0 0 0 0.0470588 0 0 0 0 0.0509804 0 0 0 0.05 0"/>
<feBlend mode="normal" in2="BackgroundImageFix" result="effect1_dropShadow_427_171"/>
<feBlend mode="normal" in="SourceGraphic" in2="effect1_dropShadow_427_171" result="shape"/>
</filter>
<linearGradient id="paint0_linear_427_171" x1="92.8552" y1="108.568" x2="92.8552" y2="378.666" gradientUnits="userSpaceOnUse">
<stop offset="0.3" stop-color="#005493"/>
<stop offset="1" stop-color="#001B54"/>
</linearGradient>
<linearGradient id="paint1_linear_427_171" x1="108.585" y1="118.551" x2="108.585" y2="370.333" gradientUnits="userSpaceOnUse">
<stop offset="0.3" stop-color="#EEEEEE"/>
<stop offset="1" stop-color="#DEDEDE"/>
</linearGradient>
<linearGradient id="paint2_linear_427_171" x1="92.8552" y1="108.568" x2="92.8552" y2="378.666" gradientUnits="userSpaceOnUse">
<stop offset="0.3" stop-color="#005493"/>
<stop offset="1" stop-color="#001B54"/>
</linearGradient>
<linearGradient id="paint3_linear_427_171" x1="108.585" y1="118.551" x2="108.585" y2="370.333" gradientUnits="userSpaceOnUse">
<stop offset="0.3" stop-color="#EEEEEE"/>
<stop offset="1" stop-color="#DEDEDE"/>
</linearGradient>
</defs>
</svg>
