<svg width="250" height="250" viewBox="0 0 250 250" fill="none" xmlns="http://www.w3.org/2000/svg">
<path fill-rule="evenodd" clip-rule="evenodd" d="M250 62.5005C250 28.005 221.995 0 187.5 0H62.5005C28.005 0 0 28.005 0 62.5005V187.5C0 221.995 28.005 250 62.5005 250H187.5C221.995 250 250 221.995 250 187.5V62.5005Z" fill="#001B54"/>
<path fill-rule="evenodd" clip-rule="evenodd" d="M236.899 114.333C238.897 110.633 240.179 107.923 240.055 107.192C239.899 106.189 238.004 108.707 235.462 112.519C233.865 110.517 232.163 108.413 230.448 106.299C231.357 103.937 232.22 101.664 232.983 99.5859C238.414 104.038 242.991 107.661 242.788 106.458C242.621 105.401 238.844 101.666 233.892 97.0654C235.261 93.178 236.086 90.3516 235.842 89.6313C235.531 88.7146 234.08 91.4255 232.203 95.5019C230.289 93.742 228.255 91.8926 226.207 90.0348C226.728 87.5347 227.217 85.1378 227.639 82.9619C233.666 86.5173 238.728 89.3674 238.32 88.1621C237.99 87.1874 233.715 84.1235 228.125 80.3676C228.83 76.4788 229.196 73.688 228.897 73.0429C228.443 72.2231 227.476 74.9946 226.304 79.1497C224.121 77.6963 221.797 76.1688 219.458 74.6352C219.577 72.0808 219.675 69.6355 219.735 67.4274C226.279 70.0241 231.744 72.0554 231.131 70.8463C230.635 69.953 225.914 67.5921 219.787 64.7552C219.831 60.948 219.697 58.2463 219.231 57.6728C218.709 56.9424 218.232 59.6919 217.766 63.8246C215.349 62.7185 212.778 61.5605 210.197 60.4012C209.901 57.8693 209.603 55.4504 209.309 53.2823C216.3 54.8203 222.184 56.0118 221.459 54.9931C220.786 54.0821 215.576 52.4143 208.912 50.5135C208.367 46.9407 207.832 44.4606 207.323 44.0161C206.746 43.3775 206.717 45.9857 206.9 49.945C204.281 49.2099 201.496 48.4486 198.709 47.6894C198.021 45.2418 197.352 42.9154 196.726 40.8428C204.038 41.2781 210.257 41.5353 209.309 40.6016C208.537 39.8424 202.967 39.026 195.909 38.2014C194.858 34.9248 193.987 32.6872 193.44 32.3111C192.73 31.7532 193.057 34.2106 193.824 37.9626C191.108 37.656 188.232 37.3494 185.362 37.0448C184.326 34.8045 183.327 32.6767 182.407 30.7772C189.794 30.0752 196.099 29.3865 194.925 28.652C194.061 27.9721 188.348 28.0026 181.169 28.2686C179.621 25.1993 178.413 23.1168 177.815 22.796C177.038 22.3793 177.754 24.7602 179.108 28.3495C176.372 28.4627 173.486 28.6006 170.607 28.7418C169.214 26.6692 167.883 24.7091 166.667 22.9695C173.945 21.0991 180.238 19.4205 179.054 18.892C178.089 18.375 172.307 19.3554 165.115 20.7817C163.117 18.0213 161.603 16.1801 160.954 15.9677C160.115 15.6916 161.198 17.918 163.076 21.1895C160.364 21.7377 157.512 22.3305 154.67 22.9213C152.939 21.074 151.301 19.3483 149.806 17.8103C156.849 14.7606 163.009 12.0057 161.697 11.5738C160.624 11.2231 154.873 13.1884 147.827 15.8068C145.49 13.4848 143.735 11.9227 143.101 11.8184C142.279 11.6832 143.65 13.6484 145.943 16.5097C143.379 17.4725 140.693 18.4966 138.024 19.5143C136.08 17.9858 134.246 16.5629 132.571 15.2939C139.126 11.1429 144.919 7.40178 143.594 7.18734C142.515 7.00948 137.066 9.93344 130.433 13.7016C127.684 11.6876 125.644 10.3566 124.995 10.3566C124.084 10.3566 125.817 12.1656 128.641 14.7237C126.265 16.0832 123.798 17.5074 121.33 18.9319C119.174 17.7412 117.138 16.632 115.271 15.6425C121.139 10.4308 126.332 5.72519 124.995 5.72519C123.814 5.72519 118.752 9.50828 112.683 14.2975C109.584 12.7195 107.305 11.711 106.649 11.8191C105.802 11.9583 107.808 13.4807 111.038 15.6021C108.93 17.2784 106.752 19.0234 104.577 20.7695C102.326 19.9435 100.165 19.1647 98.2038 18.4837C103.249 12.4322 107.739 6.96713 106.399 7.18768C105.218 7.36418 100.837 11.9041 95.6124 17.6067C92.0471 16.4301 89.4779 15.7421 88.7915 15.968C87.9893 16.2539 90.4109 17.5328 94.1442 19.2165C92.3685 21.1679 90.5386 23.1944 88.7074 25.2247C86.2993 24.7389 83.9935 24.2859 81.895 23.898C85.8891 17.1615 89.3818 11.1388 88.0499 11.5741C86.9637 11.9312 83.4018 17.0297 79.1742 23.4146C75.3299 22.7618 72.5754 22.4511 71.9331 22.796C71.1123 23.2357 73.8266 24.163 77.9385 25.2887C76.4923 27.4907 74.9921 29.7947 73.5005 32.0831C71.1444 31.9774 68.8892 31.8887 66.8141 31.8294C69.6865 24.6366 72.1535 18.2419 70.9394 18.8923C69.858 19.3351 67.1003 24.852 63.9015 31.7657C59.8199 31.7102 56.9124 31.8372 56.3104 32.3108C55.5451 32.8376 58.537 33.3173 62.9699 33.7868C61.8802 36.1688 60.755 38.6625 59.6367 41.143C57.2554 41.4106 54.9717 41.6786 52.8763 41.9452C54.5395 34.4254 55.9202 27.7875 54.8219 28.6514C53.9271 29.2673 52.1262 35.0633 50.0897 42.3155C45.9275 42.8995 42.9746 43.4724 42.4229 44.0154C41.7182 44.6317 44.8985 44.6154 49.5128 44.382C48.8151 46.897 48.1001 49.5314 47.3871 52.1579C45.0765 52.7826 42.8499 53.3947 40.8083 53.9761C41.3077 46.3279 41.6658 39.6371 40.687 40.6009C39.8915 41.3849 39.0322 47.3307 38.1663 54.7444C33.9453 56.0002 30.962 57.0515 30.5198 57.6724C29.9632 58.4563 33.2492 57.9553 37.9073 56.9976C37.618 59.5526 37.3287 62.2232 37.0411 64.8886C34.8163 65.8826 32.672 66.8508 30.713 67.7577C29.9915 60.2779 29.2851 53.8277 28.5336 54.9924C27.8358 55.8515 27.8761 61.67 28.1551 68.9594C24.1865 70.8558 21.4116 72.3576 21.0954 73.0426C20.6146 73.9075 23.7846 72.8888 28.246 71.2078C28.3552 73.7466 28.4847 76.4063 28.6159 79.068C26.556 80.3933 24.5681 81.683 22.7538 82.8833C20.9157 75.7596 19.2508 69.7063 18.6167 70.8456C18.1897 71.8555 19.1447 77.4111 20.5323 84.3692C16.7872 86.9049 14.1656 88.8698 13.9083 89.6303C13.6662 90.5829 16.7604 89.0358 20.99 86.6376C21.4894 89.1001 22.0277 91.6829 22.5674 94.2695C20.7276 95.9237 18.9501 97.5356 17.3373 99.0299C14.4766 92.4411 11.9862 86.9354 11.6752 88.161C11.3387 89.1553 13.0577 94.3091 15.4471 100.803C12.1291 103.945 9.82022 106.361 9.69073 107.191C9.52748 108.156 12.3864 106.069 16.2527 102.982C17.1341 105.344 18.0774 107.831 19.0259 110.326C17.4216 112.289 15.8746 114.195 14.477 115.952C10.6747 110.008 7.41729 105.146 7.21203 106.456C7.04568 107.437 9.49579 112.141 12.8138 118.066C10.071 121.591 8.20426 124.236 8.20426 124.996C8.20426 125.948 10.6361 123.546 13.907 120.008C15.1833 122.261 16.5472 124.641 17.921 127.03C16.6581 129.206 15.4472 131.31 14.3574 133.247C9.68556 127.98 5.72522 123.691 5.72522 124.997C5.72522 126.054 8.86139 130.333 13.0222 135.654C10.932 139.475 9.56467 142.3 9.69073 143.048C9.84881 143.988 11.8064 141.341 14.4095 137.423C16.0223 139.465 17.7392 141.614 19.4712 143.776C18.5664 146.133 17.7054 148.406 16.9384 150.488C11.5502 146.047 7.00642 142.473 7.21168 143.776C7.37665 144.748 11.1149 148.424 16.0302 152.983C14.6075 156.971 13.7213 159.876 13.908 160.609C14.2207 161.457 15.6989 158.623 17.6128 154.447C19.5552 156.233 21.622 158.112 23.7088 160.006C23.1925 162.47 22.7083 164.836 22.2929 166.996C16.2927 163.458 11.2678 160.631 11.6749 161.832C11.9221 162.809 16.1883 165.885 21.7987 169.652C21.0823 173.658 20.7324 176.54 21.0958 177.197C21.4808 178.03 22.4428 175.156 23.6299 170.877C25.8128 172.328 28.1403 173.853 30.4812 175.383C30.3552 177.959 30.2456 180.426 30.1719 182.657C23.6082 180.081 18.106 178.042 18.6171 179.148C19.1165 180.127 23.9044 182.531 30.0962 185.393C30.0204 189.247 30.1096 191.983 30.5198 192.56C31.0443 193.296 31.5458 190.49 32.0435 186.287C34.4701 187.395 37.0498 188.553 39.6414 189.712C39.9221 192.243 40.2049 194.662 40.4856 196.835C33.5303 195.29 27.7098 194.129 28.5339 195.246C29.1191 196.067 34.2466 197.665 40.8537 199.515C41.3834 203.162 41.9097 205.718 42.4229 206.223C43.0755 206.792 43.1544 204.117 42.9963 200.111C45.5793 200.822 48.3222 201.56 51.0699 202.3C51.7542 204.765 52.4186 207.114 53.0392 209.211C45.8297 208.753 39.7489 208.469 40.6874 209.392C41.4475 210.142 46.8895 210.948 53.8145 211.762C54.8721 215.145 55.7535 217.49 56.31 217.928C57.0264 218.421 56.6851 215.855 55.9064 212.003C58.5986 212.308 61.4541 212.614 64.3065 212.918C65.3728 215.225 66.4001 217.414 67.3452 219.357C60.0183 220.055 53.7625 220.754 54.8219 221.587C55.6846 222.181 61.3821 222.095 68.5579 221.803C70.1149 224.867 71.331 226.929 71.9331 227.197C72.7066 227.612 72.0037 225.262 70.6701 221.713C73.4195 221.592 76.3222 221.449 79.2197 221.308C80.6156 223.389 81.9508 225.358 83.1666 227.101C75.8951 228.978 69.651 230.71 70.9391 231.346C71.901 231.862 77.6488 230.859 84.7977 229.401C86.745 232.092 88.2032 233.869 88.7918 234.026C89.616 234.297 88.6051 232.154 86.819 228.985C89.4861 228.431 92.2913 227.831 95.0845 227.233C96.761 229.038 98.3501 230.726 99.8084 232.242C92.821 235.268 86.745 237.99 88.0499 238.419C89.1128 238.767 94.7917 236.843 101.786 234.263C104.189 236.679 106 238.313 106.649 238.419C107.489 238.557 106.064 236.509 103.706 233.551C106.303 232.583 109.025 231.551 111.733 230.525C113.686 232.039 115.532 233.449 117.224 234.708C110.687 238.854 104.966 242.588 106.399 242.806C107.478 242.983 112.912 240.101 119.519 236.384C122.255 238.345 124.3 239.637 124.995 239.637C125.83 239.637 124.115 237.868 121.337 235.357C123.668 234.036 126.082 232.652 128.501 231.267C130.632 232.457 132.644 233.565 134.489 234.555C128.669 239.676 123.56 244.275 124.995 244.275C126.076 244.275 130.992 240.567 136.95 235.85C140.112 237.482 142.437 238.529 143.101 238.419C143.957 238.278 141.886 236.717 138.583 234.553C140.735 232.838 142.968 231.045 145.204 229.252C147.491 230.086 149.685 230.874 151.671 231.56C146.673 237.591 142.261 243.026 143.594 242.806C144.686 242.627 149.051 238.109 154.279 232.439C157.769 233.583 160.278 234.248 160.954 234.026C161.83 233.811 159.424 232.577 155.679 230.915C157.498 228.93 159.377 226.864 161.255 224.797C163.591 225.27 165.826 225.711 167.866 226.09C163.865 232.815 160.362 238.855 161.697 238.419C162.782 238.063 166.376 232.967 170.632 226.583C174.446 227.233 177.174 227.541 177.814 227.198C178.637 226.831 175.917 225.932 171.806 224.816C173.27 222.603 174.791 220.284 176.297 217.98C178.726 218.094 181.05 218.193 183.174 218.264C180.317 225.528 177.838 231.998 179.054 231.346C180.044 230.813 182.765 225.266 185.949 218.34C189.975 218.423 192.842 218.339 193.441 217.928C194.199 217.33 191.254 216.801 186.882 216.299C187.975 213.901 189.104 211.393 190.224 208.899C192.598 208.641 194.875 208.385 196.961 208.133C195.26 215.669 193.826 222.344 194.926 221.587C195.909 220.884 197.731 215.044 199.772 207.779C203.914 207.23 206.834 206.704 207.323 206.223C208.023 205.535 204.905 205.493 200.354 205.693C201.047 203.194 201.757 200.581 202.461 197.978C204.799 197.355 207.044 196.746 209.099 196.168C208.636 203.741 208.335 210.351 209.309 209.392C210.103 208.611 210.959 202.735 211.821 195.386C215.919 194.179 218.795 193.17 219.231 192.559C219.862 191.784 216.663 192.271 212.074 193.207C212.367 190.636 212.659 187.943 212.948 185.253C215.141 184.279 217.257 183.331 219.192 182.441C219.89 189.884 220.606 196.294 221.459 195.246C222.066 194.305 221.975 188.518 221.674 181.285C225.687 179.388 228.517 177.882 228.897 177.196C229.299 176.325 226.076 177.354 221.577 179.038C221.461 176.461 221.326 173.76 221.194 171.059C223.235 169.74 225.206 168.458 227.006 167.266C228.827 174.374 230.497 180.394 231.131 179.147C231.645 178.219 230.707 172.685 229.311 165.722C233.006 163.219 235.586 161.301 235.843 160.607C236.166 159.654 233.098 161.177 228.869 163.541C228.353 161.023 227.795 158.375 227.235 155.722C229.1 154.053 230.896 152.435 232.525 150.938C235.392 157.538 237.905 163.059 238.32 161.831C238.658 160.832 236.919 155.633 234.513 149.092C237.72 146.079 239.929 143.796 240.055 143.046C240.217 142.099 237.482 144.05 233.739 147.005C232.836 144.583 231.867 142.03 230.895 139.472C232.486 137.519 234.015 135.63 235.395 133.89C239.251 139.957 242.579 145 242.788 143.774C242.956 142.7 240.422 137.839 237.038 131.798C239.729 128.331 241.547 125.745 241.547 124.996C241.547 124.052 239.171 126.387 235.956 129.867C234.704 127.656 233.367 125.327 232.026 122.994C233.3 120.781 234.513 118.653 235.599 116.697C240.289 121.987 244.275 126.306 244.275 124.996C244.274 123.94 241.103 119.653 236.899 114.333ZM231.068 98.0133C230.241 99.8674 229.366 101.876 228.492 103.886C227.074 102.138 225.687 100.425 224.367 98.783C224.738 97.0132 225.117 95.2197 225.492 93.4415C227.306 94.9162 229.2 96.4759 231.068 98.0133ZM209.839 183.588C208.528 184.093 207.256 184.579 206.057 185.023C206.649 182.999 207.2 181.205 207.691 179.776C208.418 179.299 209.166 178.812 209.935 178.313C209.977 179.63 209.935 181.456 209.839 183.588ZM144.11 225.991C142.886 225.473 141.687 224.96 140.544 224.464C142.738 223.266 144.602 222.297 145.981 221.665C146.636 221.797 147.304 221.932 147.982 222.07C147.258 222.983 145.868 224.361 144.11 225.991ZM22.7944 142.752C23.4185 141.349 24.027 139.998 24.6039 138.749C25.5844 140.506 26.4637 142.117 27.187 143.502C26.9786 144.53 26.7616 145.593 26.5329 146.689C25.4849 145.663 24.2085 144.306 22.7944 142.752ZM40.0416 66.6001C41.3466 66.0903 42.613 65.5994 43.8036 65.1488C43.2367 67.1178 42.7104 68.8696 42.2465 70.2853C41.5098 70.7698 40.7532 71.265 39.9714 71.7719C39.9187 70.4584 39.9541 68.6751 40.0416 66.6001ZM105.751 24.1992C106.988 24.7233 108.197 25.2392 109.348 25.7372C107.332 26.8396 105.575 27.7594 104.218 28.3973C103.498 28.2536 102.765 28.1056 102.022 27.9548C102.795 27.0371 104.102 25.7393 105.751 24.1992ZM218.619 91.4512C218.664 90.4095 218.715 89.3346 218.77 88.2261C219.957 89.0625 221.415 90.1788 223.043 91.4739C222.656 92.9439 222.275 94.3704 221.905 95.6961C220.671 94.1367 219.545 92.6901 218.619 91.4512ZM212.089 76.9361C211.966 75.9201 211.842 74.872 211.717 73.7964C213.022 74.4461 214.687 75.3645 216.55 76.4341C216.407 77.9484 216.263 79.4217 216.115 80.8008C214.598 79.3804 213.212 78.0609 212.089 76.9361ZM203.142 63.6569C202.875 62.7147 202.603 61.7394 202.327 60.7482C203.729 61.175 205.588 61.8468 207.688 62.6493C207.782 64.1549 207.866 65.6224 207.935 67.0087C206.099 65.7634 204.468 64.6288 203.142 63.6569ZM192.339 52.1836C191.941 51.3319 191.53 50.4504 191.117 49.5557C192.549 49.737 194.478 50.0893 196.659 50.5304C196.989 51.9678 197.309 53.371 197.599 54.7021C195.585 53.7684 193.797 52.9171 192.339 52.1836ZM179.572 42.1857C179.09 41.4696 178.598 40.7381 178.099 39.9918C179.491 39.9393 181.481 39.9871 183.805 40.0914C184.345 41.4252 184.871 42.7355 185.364 43.9853C183.107 43.3281 181.124 42.7193 179.572 42.1857ZM165.614 34.6734C165.057 34.0802 164.494 33.4779 163.919 32.8613C165.259 32.5781 167.252 32.3037 169.599 32.0361C170.324 33.2296 171.036 34.4068 171.706 35.5319C169.314 35.2381 167.232 34.9512 165.614 34.6734ZM150.59 29.4637C149.991 28.9932 149.384 28.5152 148.767 28.027C149.951 27.5263 151.832 26.9284 154.11 26.2789C154.998 27.3322 155.872 28.3736 156.698 29.3706C154.268 29.4526 152.172 29.4922 150.59 29.4637ZM135.157 26.6265C134.485 26.2556 133.805 25.8802 133.111 25.494C134.175 24.827 135.941 23.9468 138.105 22.9471C139.172 23.8628 140.221 24.768 141.21 25.6342C138.806 26.0824 136.726 26.4327 135.157 26.6265ZM119.339 26.2559C118.682 26.013 118.014 25.766 117.337 25.514C118.192 24.7267 119.74 23.605 121.68 22.2953C122.821 23.005 123.94 23.7066 125.008 24.3832C122.733 25.1949 120.784 25.8487 119.339 26.2559ZM89.0084 32.8349C88.3358 32.8044 87.6515 32.7726 86.9568 32.7394C87.5202 31.7423 88.6403 30.2131 90.0695 28.3902C91.3425 28.7113 92.5872 29.0294 93.7743 29.3408C91.8656 30.8107 90.2397 32.0123 89.0084 32.8349ZM75.4426 39.3996C74.6621 39.4898 73.8617 39.5802 73.0496 39.6713C73.5122 38.5344 74.3546 36.8988 75.4477 34.9349C76.8367 35.061 78.1889 35.1883 79.4735 35.3174C77.9161 36.9669 76.5474 38.3627 75.4426 39.3996ZM62.6988 48.0479C61.9656 48.2488 61.2206 48.4517 60.4571 48.6583C60.7767 47.452 61.3904 45.6873 62.1674 43.6137C63.4958 43.5354 64.789 43.4643 66.0151 43.4067C64.7453 45.2648 63.6187 46.854 62.6988 48.0479ZM51.5407 58.4252C50.8126 58.7558 50.0708 59.0912 49.3076 59.4337C49.4488 58.1765 49.7667 56.3963 50.1855 54.3054C51.5021 54.0154 52.7854 53.7366 53.9977 53.4815C53.0761 55.424 52.2454 57.1104 51.5407 58.4252ZM34.8435 83.2468C34.1423 83.8857 33.4056 84.5521 32.6555 85.2273C32.4185 83.9237 32.1864 82.1966 31.9594 80.2276C33.2106 79.4942 34.413 78.7987 35.5499 78.152C35.3091 80.0813 35.0739 81.8002 34.8435 83.2468ZM29.3695 97.6684C28.754 98.4361 28.0996 99.2417 27.4373 100.057C26.9851 98.7528 26.4789 97.0454 25.9406 95.1012C27.0892 94.1692 28.1957 93.283 29.24 92.4625C29.3123 94.4131 29.3595 96.1724 29.3695 97.6684ZM26.1995 112.782C25.7153 113.631 25.2021 114.52 24.6828 115.422C24.0301 114.172 23.2518 112.521 22.4007 110.634C23.3964 109.539 24.3566 108.496 25.2631 107.528C25.6395 109.492 25.9609 111.274 26.1995 112.782ZM25.5152 127.967C25.1453 128.965 24.7534 130.009 24.348 131.077C23.4939 129.915 22.4713 128.408 21.3479 126.697C22.192 125.395 23.0093 124.147 23.7797 122.998C24.4441 124.83 25.0358 126.513 25.5152 127.967ZM31.2885 158.849C31.2482 159.869 31.2028 160.919 31.1521 162C29.9698 161.147 28.4933 159.992 26.8436 158.659C27.2252 157.202 27.602 155.787 27.9636 154.469C29.2131 156.076 30.3634 157.579 31.2885 158.849ZM37.8319 173.073C37.9462 174.069 38.0623 175.094 38.1784 176.148C36.8665 175.49 35.2137 174.577 33.3587 173.512C33.5086 172.032 33.6598 170.591 33.8127 169.242C35.3195 170.647 36.7067 171.96 37.8319 173.073ZM46.6184 186.178C46.8977 187.158 47.1819 188.171 47.4712 189.207C46.0753 188.784 44.2727 188.143 42.2379 187.377C42.1387 185.847 42.0478 184.357 41.9724 182.956C43.7344 184.144 45.3152 185.235 46.6184 186.178ZM57.4669 197.952C57.8723 198.83 58.2876 199.737 58.7095 200.658C57.2816 200.466 55.3529 200.1 53.1666 199.644C52.8388 198.187 52.5243 196.763 52.2367 195.412C54.2433 196.349 56.0207 197.207 57.4669 197.952ZM70.1638 207.728C70.6818 208.497 71.2115 209.287 71.7512 210.093C70.3302 210.152 68.3288 210.106 66.0065 210C65.4482 208.613 64.9068 207.253 64.4022 205.961C66.6323 206.604 68.5982 207.2 70.1638 207.728ZM84.051 215.29C84.6448 215.926 85.2416 216.569 85.8571 217.234C84.547 217.528 82.6166 217.805 80.3345 218.072C79.5896 216.836 78.8615 215.62 78.1751 214.46C80.4706 214.744 82.4785 215.021 84.051 215.29ZM99.1423 220.683C99.7729 221.173 100.412 221.671 101.064 222.18C99.8301 222.655 97.9213 223.227 95.6493 223.854C94.7545 222.786 93.8718 221.732 93.0411 220.725C95.4461 220.658 97.5346 220.636 99.1423 220.683ZM114.521 223.402C115.194 223.777 115.874 224.156 116.57 224.547C115.512 225.2 113.803 226.051 111.723 227.013C110.689 226.124 109.668 225.243 108.703 224.401C111.005 223.955 112.998 223.606 114.521 223.402ZM130.415 223.804C131.093 224.051 131.782 224.303 132.482 224.56C131.545 225.375 129.927 226.522 127.926 227.855C126.774 227.138 125.642 226.429 124.567 225.746C126.893 224.917 128.908 224.238 130.415 223.804ZM160.786 217.236C161.484 217.266 162.195 217.297 162.918 217.329C162.311 218.351 161.173 219.889 159.723 221.728C158.425 221.398 157.157 221.073 155.949 220.756C157.856 219.298 159.52 218.075 160.786 217.236ZM174.635 210.58C175.329 210.501 176.039 210.422 176.759 210.343C176.313 211.439 175.452 213.09 174.334 215.08C173.029 214.957 171.757 214.834 170.545 214.71C172.142 213.026 173.548 211.594 174.635 210.58ZM187.017 202.092C187.784 201.882 188.564 201.67 189.364 201.454C189.063 202.667 188.483 204.406 187.743 206.439C186.378 206.523 185.047 206.6 183.788 206.665C185.024 204.849 186.12 203.286 187.017 202.092ZM198.17 191.796C198.933 191.452 199.712 191.103 200.514 190.745C200.379 192.03 200.07 193.811 199.653 195.895C198.311 196.184 197.003 196.462 195.772 196.712C196.668 194.8 197.482 193.12 198.17 191.796ZM215.207 166.484C215.881 165.872 216.572 165.247 217.287 164.604C217.527 165.931 217.758 167.732 217.984 169.795C216.76 170.499 215.585 171.166 214.465 171.792C214.717 169.768 214.966 167.969 215.207 166.484ZM220.521 152.226C221.113 151.486 221.73 150.719 222.361 149.937C222.801 151.237 223.307 152.993 223.85 154.999C222.719 155.913 221.632 156.782 220.601 157.593C220.539 155.56 220.509 153.748 220.521 152.226ZM223.605 137.553C224.125 136.642 224.674 135.685 225.236 134.712C225.877 135.932 226.627 137.511 227.441 139.305C226.42 140.436 225.436 141.514 224.508 142.516C224.151 140.68 223.842 138.999 223.605 137.553ZM224.431 121.886C224.801 120.902 225.187 119.887 225.589 118.84C226.437 119.988 227.456 121.487 228.574 123.195C227.745 124.485 226.936 125.73 226.173 126.882C225.504 125.036 224.908 123.341 224.431 121.886ZM222.779 106.526C222.986 105.477 223.205 104.393 223.433 103.276C224.456 104.277 225.704 105.599 227.084 107.114C226.466 108.529 225.862 109.897 225.288 111.166C224.343 109.464 223.479 107.878 222.779 106.526ZM225.591 81.7518C225.063 83.7163 224.51 85.8482 223.953 87.991C222.253 86.4482 220.593 84.9363 219.01 83.4839C219.105 81.6729 219.201 79.8408 219.293 78.0246C221.338 79.2256 223.481 80.5 225.591 81.7518ZM217.48 66.528C217.278 68.5416 217.078 70.7318 216.875 72.941C214.924 71.6607 213.007 70.3998 211.194 69.1948C210.992 67.3935 210.789 65.5747 210.584 63.7754C212.81 64.6532 215.173 65.6048 217.48 66.528ZM207.054 52.7832C207.171 54.7837 207.318 56.9657 207.463 59.1749C205.276 58.1935 203.127 57.2276 201.098 56.3058C200.627 54.593 200.151 52.8666 199.678 51.1609C202.051 51.6694 204.58 52.2341 207.054 52.7832ZM194.408 40.7022C194.835 42.6353 195.322 44.7526 195.821 46.9018C193.481 46.2639 191.186 45.6344 189.032 45.0311C188.302 43.4361 187.565 41.8297 186.839 40.2452C189.257 40.3794 191.856 40.5447 194.408 40.7022ZM180.13 30.9913C180.838 32.7864 181.632 34.7432 182.443 36.7342C180.019 36.4764 177.645 36.2206 175.42 35.9685C174.478 34.5487 173.53 33.1218 172.593 31.7146C174.993 31.47 177.584 31.2294 180.13 30.9913ZM164.45 23.5383C165.446 25.2118 166.544 27.0219 167.681 28.8855C165.207 29.0071 162.792 29.1236 160.534 29.2212C159.368 27.9657 158.203 26.7095 157.047 25.4669C159.385 24.8381 161.936 24.1829 164.45 23.5383ZM147.736 18.7056C148.986 20.2135 150.359 21.8437 151.78 23.5217C149.382 24.018 147.048 24.4966 144.86 24.9299C143.51 23.8564 142.158 22.7821 140.818 21.7201C142.994 20.7529 145.377 19.7243 147.736 18.7056ZM130.647 16.5121C132.093 17.7821 133.676 19.1464 135.312 20.5482C133.016 21.4209 130.786 22.2641 128.703 23.0365C127.228 22.2123 125.752 21.3881 124.287 20.572C126.275 19.2795 128.464 17.8912 130.647 16.5121ZM113.517 17.1995C115.133 18.2253 116.904 19.3273 118.705 20.4459C116.654 21.6276 114.667 22.7628 112.794 23.8198C111.223 23.233 109.643 22.6425 108.077 22.0612C109.784 20.515 111.647 18.8581 113.517 17.1995ZM96.6636 20.3304C98.3925 21.0825 100.273 21.8813 102.184 22.69C100.348 24.163 98.5688 25.5834 96.8957 26.9036C95.2828 26.5713 93.66 26.2362 92.054 25.9063C93.4919 24.1386 95.071 22.2384 96.6636 20.3304ZM80.6438 26.0083C82.5256 26.4974 84.5656 27.009 86.6289 27.526C85.0598 29.2618 83.5396 30.9327 82.0969 32.4998C80.3934 32.4145 78.6762 32.3284 76.9745 32.2458C78.1179 30.2663 79.3778 28.1385 80.6438 26.0083ZM65.9142 34.0806C67.796 34.2588 69.8174 34.4359 71.8504 34.6148C70.5806 36.5594 69.3414 38.4463 68.1694 40.2083C66.5414 40.3851 64.8985 40.5627 63.2688 40.7412C64.0912 38.6303 65.0043 36.35 65.9142 34.0806ZM52.37 44.2241C54.2939 44.1096 56.3538 43.9755 58.4189 43.8444C57.4638 45.9617 56.5318 48.0204 55.644 49.9487C54.0463 50.3752 52.4303 50.8051 50.826 51.2344C51.302 49.0103 51.8386 46.6067 52.37 44.2241ZM40.6467 56.4186C42.5437 56.0087 44.5633 55.5575 46.5881 55.1052C45.9961 57.2862 45.4161 59.4141 44.8578 61.4172C43.3142 62.1022 41.7516 62.7943 40.1997 63.4834C40.3275 61.234 40.4873 58.8165 40.6467 56.4186ZM30.9438 70.1755C32.7901 69.459 34.7543 68.6829 36.7171 67.9081C36.4767 70.1207 36.2394 72.2895 36.0059 74.3313C34.558 75.2609 33.0863 76.2017 31.6233 77.1387C31.3942 74.9133 31.169 72.5321 30.9438 70.1755ZM23.3678 85.2744C25.1016 84.2675 26.9331 83.1875 28.7678 82.1041C28.877 84.2811 28.9813 86.4164 29.074 88.4443C27.7607 89.6188 26.4303 90.8079 25.1036 91.9953C24.533 89.8366 23.9478 87.5391 23.3678 85.2744ZM18.3261 101.315C19.8934 100.042 21.5466 98.6864 23.2029 97.33C23.6537 99.4995 24.0925 101.629 24.5013 103.653C23.3847 105.013 22.253 106.39 21.1244 107.766C20.2144 105.692 19.2628 103.483 18.3261 101.315ZM15.7681 117.979C17.1606 116.445 18.6319 114.806 20.1053 113.17C20.9039 115.272 21.6861 117.341 22.4228 119.314C21.506 120.885 20.5726 122.481 19.6462 124.07C18.3849 122.106 17.0614 120.016 15.7681 117.979ZM15.96 135.061C17.0748 133.345 18.2554 131.502 19.4361 129.665C20.5595 131.619 21.6627 133.543 22.7052 135.378C22.0577 137.061 21.3968 138.771 20.7428 140.47C19.1888 138.728 17.556 136.871 15.96 135.061ZM18.7314 151.969C19.5621 150.105 20.4417 148.094 21.3227 146.088C22.7758 147.901 24.1934 149.677 25.5404 151.381C25.167 153.134 24.7868 154.912 24.4121 156.676C22.5654 155.155 20.6332 153.546 18.7314 151.969ZM24.3532 168.213C24.8712 166.266 25.4143 164.16 25.9609 162.049C27.6695 163.599 29.3395 165.119 30.9286 166.577C30.8394 168.356 30.7454 170.156 30.6545 171.941C28.6063 170.74 26.462 169.464 24.3532 168.213ZM32.3545 183.518C32.5714 181.479 32.7884 179.264 33.0071 177.034C34.9527 178.305 36.8648 179.558 38.676 180.756C38.871 182.577 39.0663 184.417 39.2612 186.238C37.0298 185.371 34.6634 184.431 32.3545 183.518ZM42.8668 197.367C42.7576 195.366 42.6178 193.185 42.4731 190.979C44.6274 191.943 46.7414 192.893 48.7372 193.802C49.2115 195.532 49.6874 197.276 50.16 199.001C47.8142 198.486 45.3135 197.918 42.8668 197.367ZM55.3516 209.361C54.9262 207.398 54.4385 205.251 53.944 203.075C56.2463 203.696 58.5098 204.309 60.642 204.9C61.3904 206.546 62.1436 208.204 62.8903 209.838C60.4739 209.699 57.8857 209.526 55.3516 209.361ZM69.6775 219.137C68.9543 217.299 68.1404 215.284 67.3132 213.239C69.7433 213.498 72.1276 213.756 74.3577 214.009C75.3313 215.476 76.3119 216.952 77.2786 218.406C74.8622 218.655 72.2472 218.897 69.6775 219.137ZM85.4014 226.527C84.4161 224.85 83.3278 223.034 82.1995 221.165C84.6162 221.05 86.9806 220.942 89.1985 220.855C90.364 222.123 91.5309 223.392 92.6915 224.649C90.3792 225.258 87.8719 225.895 85.4014 226.527ZM101.909 231.335C100.686 229.851 99.3506 228.256 97.9716 226.617C100.361 226.107 102.692 225.614 104.873 225.166C106.21 226.215 107.547 227.263 108.876 228.302C106.683 229.276 104.282 230.311 101.909 231.335ZM119.2 233.458C117.759 232.196 116.188 230.843 114.567 229.453C116.795 228.61 118.963 227.795 120.999 227.044C122.464 227.872 123.929 228.7 125.385 229.52C123.439 230.777 121.312 232.121 119.2 233.458ZM136.222 233.035C134.612 232.014 132.851 230.917 131.057 229.803C133.2 228.577 135.27 227.399 137.215 226.308C138.769 226.883 140.33 227.462 141.875 228.031C140.108 229.62 138.166 231.328 136.222 233.035ZM153.127 229.804C151.363 229.047 149.443 228.239 147.491 227.417C149.382 225.903 151.215 224.444 152.942 223.089C154.569 223.426 156.207 223.764 157.826 224.098C156.358 225.907 154.745 227.854 153.127 229.804ZM169.058 224.091C167.223 223.616 165.244 223.118 163.241 222.615C164.845 220.852 166.403 219.152 167.87 217.566C169.5 217.647 171.143 217.729 172.771 217.81C171.612 219.8 170.338 221.943 169.058 224.091ZM184.067 215.997C182.141 215.802 180.068 215.609 177.977 215.417C179.254 213.468 180.498 211.577 181.672 209.811C183.337 209.634 185.017 209.457 186.684 209.279C185.873 211.407 184.97 213.707 184.067 215.997ZM197.48 205.839C195.56 205.946 193.501 206.076 191.434 206.207C192.376 204.116 193.294 202.082 194.169 200.174C195.78 199.747 197.409 199.318 199.029 198.891C198.553 201.097 198.015 203.477 197.48 205.839ZM209.247 193.801C207.331 194.212 205.288 194.663 203.24 195.113C203.837 192.919 204.424 190.778 204.987 188.766C206.541 188.082 208.115 187.389 209.681 186.699C209.553 188.961 209.398 191.392 209.247 193.801ZM218.97 180.031C217.147 180.734 215.212 181.494 213.273 182.252C213.518 179.99 213.76 177.773 214.001 175.688C215.425 174.77 216.871 173.843 218.308 172.919C218.53 175.191 218.75 177.626 218.97 180.031ZM226.41 164.933C224.688 165.918 222.869 166.972 221.044 168.03C220.935 165.788 220.83 163.588 220.745 161.51C222.038 160.357 223.346 159.193 224.651 158.03C225.224 160.242 225.82 162.606 226.41 164.933ZM231.569 148.735C229.98 150.014 228.297 151.387 226.61 152.761C226.146 150.563 225.694 148.402 225.275 146.352C226.41 144.961 227.562 143.553 228.711 142.149C229.64 144.264 230.614 146.521 231.569 148.735ZM234.119 131.876C232.743 133.394 231.285 135.024 229.824 136.655C229.048 134.61 228.288 132.6 227.572 130.68C228.487 129.104 229.415 127.508 230.336 125.917C231.568 127.837 232.854 129.878 234.119 131.876ZM230.454 120.262C229.341 118.324 228.256 116.43 227.224 114.612C227.883 112.914 228.554 111.191 229.218 109.482C230.752 111.202 232.365 113.037 233.946 114.827C232.829 116.545 231.642 118.405 230.454 120.262Z" fill="#2D72A2"/>
<path d="M58.5333 188.177L57.3035 181.628L53.84 184.087L56.149 180.398L50 179.088L56.149 177.779L53.8399 174.09L57.3036 176.549L58.5333 170L59.7632 176.549L63.2267 174.09L60.9176 177.779L67.0667 179.088L60.9176 180.398L63.2267 184.087L59.7632 181.628L58.5333 188.177Z" fill="#EEEEEE"/>
<path d="M123.998 58C153.998 58 184 63.158 184 63.158V139.984C184 139.984 180.251 192.682 123.998 213C67.7503 192.682 64 139.984 64 139.984V63.158C64 63.158 93.9992 58 123.998 58Z" fill="url(#paint0_linear_403_92)"/>
<path d="M123.135 202.862L121.989 202.404C77.5365 184.579 74.0385 137.837 74.008 137.368L74 137.114V68.9509L76.7476 68.4265C77.6945 68.2455 100.203 64 123.133 64C146.067 64 168.576 68.2455 169.523 68.4265L172.271 68.9509L172.263 137.366C172.233 137.837 168.736 184.579 124.279 202.403L123.135 202.862ZM80.64 136.974C80.8578 139.858 84.5284 178.923 123.133 195.134C161.725 178.933 165.408 139.906 165.631 136.972V75.0779C158.914 73.951 140.915 71.2423 123.133 71.2423C105.338 71.2423 87.3544 73.951 80.64 75.0779V136.974Z" fill="url(#paint1_linear_403_92)"/>
<path d="M123.72 84.0039L82.8012 95.9512L100.494 100.91L100.498 100.86L101.347 100.486C108.898 97.1695 116.363 95.5011 123.701 95.4629C131.038 95.4214 138.248 97.0156 145.286 100.214C145.711 100.407 146.121 100.598 146.388 100.701L164.476 95.4195L123.72 84.0039Z" fill="#70AEBF"/>
<path d="M155.04 103.52C155.04 103.233 154.798 103 154.5 103C154.202 103 153.96 103.233 153.96 103.52V113.751C153.96 114.039 154.202 114.272 154.5 114.272C154.798 114.272 155.04 114.039 155.04 113.751V103.52Z" fill="#70AEBF"/>
<path opacity="0.4" d="M154.41 103.347H154.32C154.27 103.347 154.23 103.386 154.23 103.434V113.838C154.23 113.886 154.27 113.925 154.32 113.925H154.41C154.46 113.925 154.5 113.886 154.5 113.838V103.434C154.5 103.386 154.46 103.347 154.41 103.347Z" fill="#70AEBF"/>
<path d="M154.5 115.225C155.395 115.225 156.12 114.876 156.12 114.445C156.12 114.014 155.395 113.665 154.5 113.665C153.605 113.665 152.88 114.014 152.88 114.445C152.88 114.876 153.605 115.225 154.5 115.225Z" fill="#70AEBF"/>
<path d="M155.76 114.445H153.24C153.041 114.445 152.88 114.6 152.88 114.792V116.006C152.88 116.197 153.041 116.353 153.24 116.353H155.76C155.959 116.353 156.12 116.197 156.12 116.006V114.792C156.12 114.6 155.959 114.445 155.76 114.445Z" fill="#70AEBF"/>
<path d="M154.5 117.133C155.395 117.133 156.12 116.784 156.12 116.353C156.12 115.922 155.395 115.572 154.5 115.572C153.605 115.572 152.88 115.922 152.88 116.353C152.88 116.784 153.605 117.133 154.5 117.133Z" fill="#70AEBF"/>
<path d="M154.5 115.225C155.395 115.225 156.12 114.876 156.12 114.445C156.12 114.014 155.395 113.665 154.5 113.665C153.605 113.665 152.88 114.014 152.88 114.445C152.88 114.876 153.605 115.225 154.5 115.225Z" fill="#70AEBF"/>
<path opacity="0.45" d="M154.14 114.79C154.538 114.79 154.86 114.636 154.86 114.444C154.86 114.253 154.538 114.098 154.14 114.098C153.742 114.098 153.42 114.253 153.42 114.444C153.42 114.636 153.742 114.79 154.14 114.79Z" fill="#70AEBF"/>
<path d="M152.34 116.353H156.66L159 132.48H150L152.34 116.353Z" fill="#70AEBF"/>
<path opacity="0.6" d="M152.34 116.353H153.24L151.26 132.48H150L152.34 116.353Z" fill="#70AEBF"/>
<path opacity="0.25" d="M155.76 116.353H156.66L159 132.48H157.74L155.76 116.353Z" fill="#70AEBF"/>
<path opacity="0.15" d="M154.05 116.353H154.95L155.22 132.48H153.78L154.05 116.353Z" fill="#70AEBF"/>
<path d="M158.46 131.96H150.54C150.242 131.96 150 132.192 150 132.48C150 132.767 150.242 133 150.54 133H158.46C158.758 133 159 132.767 159 132.48C159 132.192 158.758 131.96 158.46 131.96Z" fill="#70AEBF"/>
<path opacity="0.5" d="M158.1 132.133H150.9C150.801 132.133 150.72 132.21 150.72 132.306C150.72 132.401 150.801 132.478 150.9 132.478H158.1C158.199 132.478 158.28 132.401 158.28 132.306C158.28 132.21 158.199 132.133 158.1 132.133Z" fill="#70AEBF"/>
<path d="M141.167 111H106.428C103.434 111 101 113.617 101 116.836V161.194C101 164.413 103.434 167.03 106.428 167.03H107.514V164.696H106.428C104.632 164.696 103.171 163.124 103.171 161.194C103.171 159.263 104.632 157.692 106.428 157.692H111.856V167.03L117.284 161.194L122.712 167.03V157.692H142.253V163.528C142.253 164.17 141.764 164.696 141.167 164.696H127.054V167.03H141.167C142.963 167.03 144.424 165.459 144.424 163.528V114.502C144.424 112.571 142.963 111 141.167 111ZM103.171 156.527V116.836C103.171 114.906 104.632 113.335 106.428 113.335H109.685V155.357H106.428C105.208 155.357 104.079 155.794 103.171 156.527ZM142.253 155.357H111.856V113.335H141.167C141.764 113.335 142.253 113.86 142.253 114.502V155.357Z" fill="#70AEBF"/>
<path d="M122.181 139.856C122.425 140.199 123.447 141.311 125.175 141.311C126.835 141.311 127.836 140.304 128.129 139.908C128.017 139.521 128.004 138.965 128.258 138.159H128.249C129.917 136.368 131.191 133.487 131.191 130.649C131.191 126.287 128.409 124 125.176 124C121.941 124 119.174 126.286 119.174 130.649C119.174 133.498 120.441 136.392 122.119 138.178C122.391 138.921 122.341 139.462 122.181 139.856Z" fill="#70AEBF"/>
<path d="M129.228 140.877C129.228 140.877 128.21 145.801 126.875 148.61C126.401 146.476 125.511 144.51 125.511 144.51C125.511 144.51 126.651 144.019 126.651 143.22C126.651 142.234 125.175 141.744 125.175 141.744C125.175 141.744 123.695 142.091 123.695 143.22C123.695 143.985 124.839 144.51 124.839 144.51C124.839 144.51 123.946 146.486 123.474 148.608C122.13 145.786 121.1 140.83 121.1 140.83L121.107 140.822C117.778 142.118 114 144.385 114 146.626V147.488C114 150.618 119.821 151.33 125.207 151.33C130.602 151.33 136.35 150.618 136.35 147.488C136.35 146.872 136.35 147.246 136.35 146.626C136.35 144.352 132.667 142.135 129.228 140.877Z" fill="#70AEBF"/>
<path d="M49.5333 103.177L48.3035 96.6278L44.84 99.0871L47.149 95.3983L41 94.0884L47.149 92.7786L44.8399 89.0898L48.3036 91.549L49.5333 85L50.7632 91.5489L54.2267 89.0898L51.9176 92.7786L58.0667 94.0884L51.9176 95.3983L54.2267 99.0871L50.7632 96.6278L49.5333 103.177Z" fill="#EEEEEE"/>
<path d="M47.5 152L45.4103 141.912L39.525 145.7L43.4486 140.018L33 138L43.4486 135.982L39.5249 130.3L45.4104 134.088L47.5 124L49.5897 134.088L55.475 130.3L51.5514 135.982L62 138L51.5514 140.018L55.475 145.7L49.5897 141.912L47.5 152Z" fill="#EEEEEE"/>
<path d="M204.5 153L202.41 142.912L196.525 146.7L200.449 141.018L190 139L200.449 136.982L196.525 131.3L202.41 135.088L204.5 125L206.59 135.088L212.475 131.3L208.551 136.982L219 139L208.551 141.018L212.475 146.7L206.59 142.912L204.5 153Z" fill="#EEEEEE"/>
<path d="M189.533 188.177L188.304 181.628L184.84 184.087L187.149 180.398L181 179.088L187.149 177.779L184.84 174.09L188.304 176.549L189.533 170L190.763 176.549L194.227 174.09L191.918 177.779L198.067 179.088L191.918 180.398L194.227 184.087L190.763 181.628L189.533 188.177Z" fill="#EEEEEE"/>
<path d="M198.533 103.177L197.304 96.6278L193.84 99.0871L196.149 95.3983L190 94.0884L196.149 92.7786L193.84 89.0898L197.304 91.549L198.533 85L199.763 91.5489L203.227 89.0898L200.918 92.7786L207.067 94.0884L200.918 95.3983L203.227 99.0871L199.763 96.6278L198.533 103.177Z" fill="#EEEEEE"/>
<defs>
<linearGradient id="paint0_linear_403_92" x1="64.0032" y1="58" x2="64.0032" y2="213" gradientUnits="userSpaceOnUse">
<stop offset="0.3" stop-color="#005493"/>
<stop offset="1" stop-color="#001B54"/>
</linearGradient>
<linearGradient id="paint1_linear_403_92" x1="74.0013" y1="63.9942" x2="74.0013" y2="202.856" gradientUnits="userSpaceOnUse">
<stop offset="0.3" stop-color="#EEEEEE"/>
<stop offset="1" stop-color="#DEDEDE"/>
</linearGradient>
</defs>
</svg>
