<svg width="201" height="195" viewBox="0 0 201 195" fill="none" xmlns="http://www.w3.org/2000/svg">
<path fill-rule="evenodd" clip-rule="evenodd" d="M201 48.7504C201 21.8439 178.484 0 150.75 0H50.2504C22.516 0 0 21.8439 0 48.7504V146.25C0 173.156 22.516 195 50.2504 195H150.75C178.484 195 201 173.156 201 146.25V48.7504Z" fill="#F2CF63"/>
<path fill-rule="evenodd" clip-rule="evenodd" d="M192.439 89.1377C194.081 86.2375 195.135 84.1129 195.033 83.5401C194.904 82.7538 193.347 84.7278 191.259 87.7158C189.947 86.1465 188.548 84.4969 187.139 82.84C187.886 80.9883 188.595 79.2066 189.223 77.5776C193.684 81.0677 197.445 83.9079 197.278 82.9643C197.141 82.1358 194.038 79.2082 189.968 75.6018C191.093 72.5545 191.772 70.3388 191.571 69.7743C191.316 69.0556 190.123 71.1807 188.581 74.3762C187.009 72.9966 185.337 71.5469 183.654 70.0905C184.082 68.1306 184.485 66.2518 184.831 64.5461C189.784 67.3332 193.942 69.5674 193.606 68.6225C193.336 67.8584 189.823 65.4567 185.231 62.5124C185.809 59.464 186.11 57.2762 185.865 56.7706C185.492 56.1279 184.697 58.3005 183.734 61.5577C181.941 60.4184 180.031 59.2209 178.109 58.0187C178.207 56.0164 178.288 54.0995 178.337 52.3685C183.713 54.4041 188.204 55.9965 187.7 55.0487C187.292 54.3483 183.414 52.4976 178.38 50.2738C178.416 47.2893 178.305 45.1715 177.923 44.7218C177.494 44.1493 177.102 46.3046 176.719 49.5442C174.734 48.6772 172.621 47.7695 170.5 46.8607C170.257 44.8759 170.012 42.9797 169.771 41.2801C175.514 42.4858 180.349 43.4197 179.753 42.6212C179.2 41.9071 174.92 40.5997 169.444 39.1096C168.996 36.309 168.557 34.3648 168.138 34.0163C167.665 33.5158 167.641 35.5604 167.792 38.6641C165.639 38.0877 163.351 37.491 161.061 36.8959C160.497 34.9772 159.946 33.1535 159.433 31.5288C165.44 31.87 170.549 32.0716 169.77 31.3397C169.136 30.7446 164.559 30.1046 158.761 29.4582C157.897 26.8897 157.182 25.1356 156.733 24.8408C156.149 24.4034 156.417 26.3298 157.047 29.271C154.816 29.0306 152.453 28.7903 150.095 28.5515C149.243 26.7954 148.422 25.1274 147.667 23.6383C153.737 23.0881 158.917 22.5481 157.952 21.9724C157.242 21.4395 152.549 21.4633 146.65 21.6718C145.377 19.2658 144.385 17.6333 143.894 17.3818C143.256 17.0552 143.844 18.9216 144.956 21.7353C142.708 21.824 140.337 21.9321 137.972 22.0428C136.827 20.4181 135.733 18.8815 134.735 17.5178C140.715 16.0516 145.885 14.7357 144.912 14.3215C144.119 13.9163 139.368 14.6847 133.459 15.8028C131.818 13.639 130.574 12.1956 130.041 12.0291C129.351 11.8127 130.241 13.558 131.785 16.1225C129.556 16.5522 127.212 17.017 124.877 17.4801C123.456 16.032 122.109 14.6792 120.881 13.4735C126.668 11.0829 131.729 8.92332 130.651 8.58472C129.77 8.30986 125.044 9.85041 119.256 11.903C117.335 10.0828 115.894 8.85826 115.372 8.77647C114.697 8.6705 115.823 10.211 117.707 12.454C115.601 13.2088 113.394 14.0116 111.201 14.8093C109.604 13.6111 108.096 12.4957 106.72 11.5009C112.106 8.24693 116.866 5.31428 115.778 5.14618C114.89 5.00676 110.413 7.29886 104.964 10.2527C102.705 8.67396 101.029 7.63055 100.495 7.63055C99.7466 7.63055 101.171 9.04867 103.491 11.054C101.539 12.1197 99.5116 13.2361 97.4843 14.3528C95.7136 13.4194 94.0396 12.5499 92.5064 11.7742C97.3271 7.68871 101.594 4 100.495 4C99.5257 4 95.3669 6.96557 90.3798 10.7199C87.8337 9.48287 85.9612 8.69228 85.4225 8.777C84.7259 8.88614 86.3741 10.0796 89.0286 11.7426C87.2959 13.0566 85.5069 14.4245 83.7199 15.7933C81.8699 15.1458 80.0944 14.5353 78.4832 14.0015C82.6282 9.25767 86.3178 4.97356 85.2162 5.14645C84.2462 5.2848 80.647 8.84365 76.354 13.3139C73.4247 12.3916 71.3137 11.8522 70.7497 12.0294C70.0907 12.2535 72.0802 13.2561 75.1477 14.5759C73.6887 16.1055 72.1852 17.6942 70.6807 19.2857C68.7022 18.9048 66.8076 18.5498 65.0835 18.2458C68.3651 12.965 71.2347 8.24374 70.1404 8.58499C69.2479 8.8649 66.3215 12.8616 62.8479 17.8668C59.6894 17.355 57.4261 17.1115 56.8983 17.3818C56.2241 17.7266 58.4541 18.4534 61.8326 19.3359C60.6444 21.062 59.4117 22.8682 58.1862 24.6621C56.2504 24.5792 54.3975 24.5096 52.6925 24.4632C55.0525 18.8247 57.0795 13.8119 56.082 14.3217C55.1935 14.6689 52.9276 18.9935 50.2994 24.4132C46.9458 24.3697 44.5569 24.4693 44.0623 24.8405C43.4335 25.2535 45.8917 25.6295 49.5339 25.9976C48.6386 27.8648 47.7141 29.8197 46.7953 31.7641C44.8388 31.9739 42.9624 32.184 41.2408 32.3929C42.6072 26.4982 43.7417 21.2947 42.8393 21.9719C42.1041 22.4547 40.6245 26.9983 38.9512 32.6832C35.5314 33.141 33.1052 33.5902 32.6519 34.0158C32.0729 34.4989 34.6859 34.4862 38.4772 34.3032C37.9039 36.2747 37.3165 38.3398 36.7307 40.3987C34.8322 40.8884 33.0028 41.3683 31.3253 41.824C31.7356 35.8286 32.03 30.5836 31.2257 31.3392C30.5721 31.9537 29.866 36.6147 29.1546 42.4263C25.6864 43.4107 23.2353 44.2348 22.872 44.7216C22.4147 45.3361 25.1146 44.9433 28.9418 44.1926C28.7041 46.1955 28.4664 48.2889 28.2301 50.3784C26.4021 51.1575 24.6403 51.9165 23.0307 52.6275C22.4378 46.7641 21.8575 41.7077 21.24 42.6207C20.6668 43.2941 20.6999 47.8553 20.9291 53.5695C17.6683 55.0561 15.3884 56.2333 15.1286 56.7703C14.7336 57.4482 17.3381 56.6497 21.0038 55.332C21.0935 57.3222 21.1999 59.4071 21.3077 61.4936C19.6152 62.5325 17.9818 63.5436 16.4912 64.4844C14.9809 58.9001 13.613 54.155 13.0921 55.0481C12.7412 55.8398 13.5258 60.1947 14.666 65.6492C11.5889 67.637 9.43488 69.1773 9.2235 69.7734C9.02456 70.5202 11.5668 69.3074 15.0421 67.4274C15.4524 69.3578 15.8947 71.3825 16.3381 73.4101C14.8264 74.7068 13.366 75.9704 12.0408 77.1419C9.69041 71.9769 7.64421 67.6609 7.38868 68.6217C7.11222 69.4011 8.52455 73.4411 10.4878 78.5318C7.76164 80.995 5.86458 82.8889 5.75818 83.5391C5.62405 84.2962 7.97303 82.6598 11.1497 80.2399C11.8738 82.0912 12.6489 84.0412 13.4282 85.9967C12.1101 87.5354 10.839 89.0298 9.69069 90.4066C6.56664 85.7469 3.89026 81.9361 3.7216 82.9633C3.58493 83.7324 5.59802 87.4194 8.3242 92.0637C6.07058 94.8278 4.53685 96.9006 4.53685 97.4968C4.53685 98.2428 6.53495 96.3601 9.22236 93.5863C10.2711 95.353 11.3917 97.218 12.5205 99.0911C11.4828 100.797 10.4878 102.446 9.5925 103.965C5.75393 99.8354 2.5 96.4736 2.5 97.4976C2.5 98.3257 5.07678 101.68 8.4954 105.851C6.77802 108.847 5.65461 111.061 5.75818 111.647C5.88806 112.384 7.4965 110.31 9.63523 107.238C10.9604 108.839 12.371 110.523 13.7941 112.218C13.0507 114.067 12.3433 115.848 11.7131 117.48C7.28596 113.998 3.55267 111.197 3.72132 112.218C3.85687 112.98 6.92828 115.861 10.9669 119.436C9.79794 122.563 9.06984 124.839 9.22322 125.414C9.48016 126.079 10.6947 123.857 12.2672 120.583C13.8632 121.983 15.5613 123.457 17.2759 124.941C16.8517 126.873 16.4538 128.728 16.1125 130.42C11.1826 127.647 7.05392 125.431 7.3884 126.373C7.59158 127.138 11.0968 129.55 15.7065 132.503C15.1179 135.643 14.8304 137.902 15.1289 138.417C15.4453 139.07 16.2357 136.818 17.2111 133.463C19.0046 134.601 20.9169 135.796 22.8402 136.996C22.7367 139.015 22.6467 140.949 22.5861 142.697C17.1932 140.678 12.6724 139.08 13.0923 139.947C13.5027 140.715 17.4365 142.599 22.5239 144.842C22.4617 147.864 22.5349 150.008 22.872 150.46C23.303 151.038 23.7149 148.838 24.1239 145.543C26.1177 146.412 28.2371 147.319 30.3666 148.228C30.5972 150.211 30.8296 152.108 31.0602 153.811C25.3454 152.601 20.5632 151.69 21.2404 152.566C21.7211 153.209 25.9341 154.462 31.3627 155.912C31.7979 158.771 32.2303 160.775 32.6519 161.171C33.1881 161.617 33.2529 159.52 33.123 156.379C35.2454 156.937 37.499 157.516 39.7566 158.096C40.3188 160.028 40.8647 161.869 41.3746 163.513C35.4511 163.154 30.4549 162.931 31.226 163.655C31.8505 164.243 36.3218 164.875 42.0116 165.513C42.8806 168.165 43.6047 170.003 44.0621 170.346C44.6506 170.732 44.3702 168.722 43.7304 165.702C45.9424 165.941 48.2885 166.181 50.6321 166.419C51.5082 168.228 52.3523 169.943 53.1289 171.466C47.1088 172.014 41.9688 172.562 42.8393 173.214C43.5481 173.68 48.2294 173.612 54.1252 173.384C55.4045 175.786 56.4037 177.402 56.8983 177.612C57.5339 177.937 56.9564 176.095 55.8607 173.314C58.1197 173.219 60.5046 173.107 62.8852 172.996C64.0322 174.628 65.1293 176.17 66.1282 177.537C60.1537 179.008 55.0233 180.366 56.0817 180.865C56.872 181.269 61.5947 180.484 67.4683 179.34C69.0683 181.45 70.2664 182.842 70.75 182.966C71.4271 183.178 70.5966 181.498 69.1291 179.014C71.3205 178.58 73.6253 178.109 75.9203 177.641C77.2978 179.056 78.6034 180.379 79.8015 181.567C74.0605 183.94 69.0683 186.073 70.1404 186.41C71.0137 186.682 75.6797 185.174 81.4264 183.152C83.401 185.046 84.8889 186.326 85.4225 186.41C86.1118 186.518 84.9415 184.912 83.0043 182.593C85.1376 181.835 87.3745 181.026 89.5995 180.221C91.2031 181.408 92.7207 182.513 94.1108 183.5C88.7398 186.75 84.0391 189.678 85.2162 189.848C86.1035 189.987 90.5676 187.728 95.9966 184.814C98.2448 186.351 99.9245 187.363 100.495 187.363C101.182 187.363 99.7722 185.977 97.4901 184.009C99.4049 182.973 101.389 181.889 103.377 180.803C105.127 181.736 106.781 182.604 108.297 183.38C103.515 187.394 99.3172 191 100.495 191C101.384 191 105.423 188.093 110.318 184.396C112.916 185.675 114.827 186.495 115.372 186.41C116.076 186.299 114.374 185.075 111.659 183.379C113.429 182.034 115.263 180.629 117.1 179.223C118.979 179.877 120.782 180.495 122.414 181.032C118.307 185.76 114.681 190.021 115.778 189.849C116.674 189.708 120.261 186.166 124.557 181.721C127.424 182.618 129.485 183.14 130.041 182.966C130.76 182.797 128.784 181.83 125.706 180.527C127.202 178.971 128.745 177.351 130.288 175.731C132.207 176.102 134.044 176.447 135.719 176.745C132.433 182.017 129.554 186.751 130.651 186.41C131.542 186.13 134.496 182.135 137.992 177.131C141.126 177.641 143.368 177.882 143.894 177.613C144.569 177.326 142.335 176.621 138.956 175.746C140.16 174.011 141.409 172.193 142.648 170.387C144.643 170.477 146.552 170.554 148.297 170.609C145.95 176.304 143.913 181.376 144.912 180.865C145.726 180.447 147.962 176.099 150.577 170.67C153.884 170.734 156.241 170.668 156.733 170.346C157.356 169.878 154.936 169.463 151.344 169.07C152.242 167.19 153.17 165.224 154.09 163.268C156.041 163.066 157.912 162.866 159.625 162.668C158.228 168.576 157.049 173.807 157.953 173.214C158.761 172.663 160.258 168.086 161.935 162.39C165.338 161.96 167.737 161.548 168.139 161.171C168.713 160.632 166.152 160.599 162.413 160.755C162.982 158.796 163.566 156.748 164.144 154.707C166.065 154.219 167.91 153.741 169.598 153.289C169.218 159.225 168.971 164.407 169.771 163.655C170.423 163.043 171.126 158.436 171.834 152.676C175.202 151.73 177.565 150.939 177.923 150.46C178.441 149.852 175.813 150.234 172.042 150.968C172.283 148.952 172.523 146.841 172.76 144.732C174.563 143.969 176.301 143.226 177.891 142.528C178.464 148.363 179.053 153.388 179.753 152.566C180.252 151.829 180.178 147.292 179.93 141.622C183.227 140.135 185.553 138.954 185.865 138.416C186.195 137.734 183.546 138.541 179.85 139.861C179.755 137.841 179.644 135.723 179.536 133.605C181.213 132.571 182.832 131.566 184.311 130.632C185.807 136.204 187.179 140.923 187.7 139.946C188.123 139.219 187.352 134.88 186.205 129.422C189.241 127.46 191.361 125.957 191.572 125.413C191.837 124.665 189.317 125.859 185.842 127.713C185.418 125.738 184.959 123.662 184.499 121.583C186.031 120.275 187.506 119.006 188.845 117.832C191.201 123.006 193.266 127.334 193.607 126.372C193.884 125.588 192.456 121.513 190.479 116.386C193.114 114.023 194.93 112.234 195.033 111.647C195.165 110.904 192.919 112.433 189.843 114.75C189.101 112.852 188.305 110.85 187.506 108.845C188.814 107.313 190.07 105.832 191.203 104.469C194.372 109.225 197.107 113.178 197.278 112.217C197.416 111.375 195.334 107.564 192.554 102.828C194.765 100.111 196.258 98.084 196.258 97.4968C196.258 96.7572 194.306 98.5867 191.664 101.315C190.636 99.5817 189.538 97.7562 188.436 95.9274C189.482 94.1921 190.479 92.5245 191.371 90.9907C195.225 95.1379 198.5 98.5239 198.5 97.4968C198.499 96.6686 195.894 93.3084 192.439 89.1377ZM187.649 76.3449C186.969 77.7983 186.25 79.3729 185.532 80.9485C184.367 79.5784 183.227 78.2357 182.143 76.9482C182.448 75.561 182.758 74.155 183.067 72.761C184.557 73.9171 186.114 75.1398 187.649 76.3449ZM170.206 143.427C169.129 143.823 168.084 144.204 167.098 144.552C167.585 142.965 168.038 141.559 168.441 140.439C169.038 140.065 169.653 139.683 170.285 139.292C170.319 140.325 170.285 141.755 170.206 143.427ZM116.201 176.667C115.195 176.261 114.211 175.859 113.271 175.469C115.074 174.531 116.605 173.771 117.738 173.276C118.277 173.38 118.825 173.485 119.382 173.593C118.788 174.309 117.645 175.389 116.201 176.667ZM16.5245 111.416C17.0373 110.316 17.5373 109.257 18.0113 108.278C18.8169 109.655 19.5394 110.917 20.1336 112.004C19.9624 112.809 19.7841 113.643 19.5963 114.502C18.7352 113.698 17.6864 112.633 16.5245 111.416ZM30.6954 51.72C31.7676 51.3204 32.8081 50.9355 33.7863 50.5823C33.3205 52.1258 32.8882 53.4991 32.507 54.6089C31.9017 54.9886 31.28 55.3769 30.6377 55.7742C30.5944 54.7445 30.6235 53.3466 30.6954 51.72ZM84.6846 18.4818C85.7006 18.8927 86.6935 19.2971 87.6401 19.6875C85.9835 20.5517 84.5394 21.2727 83.4245 21.7727C82.8331 21.6601 82.2306 21.544 81.62 21.4259C82.2555 20.7064 83.3292 19.6891 84.6846 18.4818ZM177.42 71.2009C177.457 70.3843 177.498 69.5416 177.544 68.6727C178.519 69.3283 179.718 70.2034 181.055 71.2186C180.737 72.371 180.423 73.4892 180.12 74.5284C179.105 73.306 178.181 72.1721 177.42 71.2009ZM172.055 59.8225C171.954 59.026 171.852 58.2043 171.749 57.3612C172.822 57.8705 174.189 58.5904 175.72 59.4288C175.603 60.616 175.484 61.7709 175.363 62.852C174.116 61.7385 172.977 60.7041 172.055 59.8225ZM164.703 49.4128C164.484 48.6743 164.261 47.9097 164.034 47.1326C165.186 47.4673 166.713 47.9938 168.439 48.623C168.516 49.8032 168.585 50.9536 168.641 52.0403C167.133 51.0641 165.792 50.1747 164.703 49.4128ZM155.827 40.4189C155.5 39.7512 155.163 39.0603 154.823 38.3589C156 38.501 157.586 38.7772 159.377 39.1229C159.649 40.2497 159.911 41.3497 160.15 42.3931C158.494 41.6612 157.025 40.9938 155.827 40.4189ZM145.338 32.5815C144.941 32.0201 144.538 31.4468 144.128 30.8617C145.271 30.8206 146.906 30.858 148.815 30.9398C149.259 31.9853 149.692 33.0125 150.096 33.9922C148.242 33.477 146.613 32.9998 145.338 32.5815ZM133.869 26.6926C133.412 26.2276 132.949 25.7554 132.477 25.2721C133.578 25.05 135.215 24.8349 137.144 24.6252C137.739 25.5607 138.324 26.4836 138.875 27.3655C136.909 27.1353 135.199 26.9104 133.869 26.6926ZM121.525 22.6087C121.034 22.2398 120.535 21.8651 120.028 21.4825C121.001 21.09 122.546 20.6212 124.417 20.1121C125.147 20.9378 125.865 21.7541 126.544 22.5357C124.547 22.5999 122.825 22.631 121.525 22.6087ZM108.845 20.3846C108.293 20.0938 107.734 19.7996 107.164 19.4968C108.039 18.9739 109.489 18.284 111.267 17.5003C112.144 18.2181 113.006 18.9277 113.818 19.6068C111.843 19.9581 110.134 20.2327 108.845 20.3846ZM95.8485 20.0941C95.309 19.9036 94.7595 19.7101 94.2035 19.5125C94.9068 18.8953 96.1778 18.016 97.7723 16.9893C98.709 17.5457 99.6291 18.0957 100.506 18.626C98.637 19.2623 97.0359 19.7749 95.8485 20.0941ZM70.928 25.2514C70.3754 25.2274 69.8131 25.2025 69.2423 25.1764C69.7053 24.3949 70.6255 23.1962 71.7998 21.7672C72.8457 22.0189 73.8684 22.2683 74.8439 22.5123C73.2756 23.6646 71.9397 24.6066 70.928 25.2514ZM59.7819 30.3975C59.1407 30.4681 58.483 30.5391 57.8158 30.6105C58.1958 29.7192 58.888 28.4371 59.7862 26.8976C60.9274 26.9964 62.0383 27.0962 63.0938 27.1974C61.8142 28.4905 60.6897 29.5846 59.7819 30.3975ZM49.3113 37.1768C48.7088 37.3343 48.0967 37.4934 47.4693 37.6554C47.7319 36.7097 48.2362 35.3264 48.8746 33.7009C49.966 33.6395 51.0286 33.5837 52.036 33.5386C50.9926 34.9952 50.0671 36.241 49.3113 37.1768ZM40.1434 45.3116C39.5451 45.5709 38.9356 45.8338 38.3086 46.1023C38.4246 45.1168 38.6857 43.7212 39.0299 42.0821C40.1117 41.8548 41.166 41.6362 42.1621 41.4362C41.4049 42.959 40.7224 44.281 40.1434 45.3116ZM26.4244 64.7694C25.8483 65.2702 25.243 65.7926 24.6267 66.3219C24.432 65.3 24.2413 63.9461 24.0548 62.4027C25.0829 61.8277 26.0707 61.2825 27.0048 60.7756C26.8071 62.2879 26.6138 63.6354 26.4244 64.7694ZM21.9268 76.0745C21.4212 76.6763 20.8835 77.3078 20.3393 77.9468C19.9678 76.9246 19.5519 75.5862 19.1095 74.0621C20.0533 73.3315 20.9624 72.6367 21.8204 71.9935C21.8799 73.5227 21.9186 74.9018 21.9268 76.0745ZM19.3223 87.9221C18.9245 88.5875 18.5028 89.2844 18.0761 89.9917C17.5399 89.0121 16.9004 87.7175 16.2011 86.2384C17.0192 85.3804 17.8082 84.5619 18.553 83.8036C18.8622 85.3433 19.1262 86.7402 19.3223 87.9221ZM18.7601 99.8258C18.4561 100.608 18.1341 101.427 17.801 102.264C17.0993 101.352 16.2591 100.171 15.3361 98.83C16.0296 97.8101 16.7011 96.8305 17.3341 95.9306C17.88 97.3671 18.3662 98.6858 18.7601 99.8258ZM23.5036 124.034C23.4704 124.834 23.4331 125.657 23.3915 126.504C22.4201 125.836 21.2069 124.93 19.8515 123.885C20.165 122.743 20.4746 121.634 20.7718 120.601C21.7984 121.86 22.7435 123.039 23.5036 124.034ZM28.8798 135.184C28.9737 135.965 29.0692 136.769 29.1645 137.594C28.0866 137.08 26.7286 136.363 25.2045 135.528C25.3277 134.368 25.4519 133.238 25.5775 132.182C26.8155 133.283 27.9553 134.312 28.8798 135.184ZM36.0991 145.457C36.3286 146.226 36.5621 147.019 36.7997 147.832C35.6529 147.5 34.1717 146.998 32.4999 146.397C32.4184 145.198 32.3437 144.03 32.2817 142.932C33.7295 143.863 35.0283 144.718 36.0991 145.457ZM45.0125 154.687C45.3456 155.375 45.6868 156.086 46.0335 156.808C44.8603 156.658 43.2756 156.371 41.4793 156.014C41.2099 154.872 40.9516 153.755 40.7152 152.696C42.3639 153.43 43.8243 154.103 45.0125 154.687ZM55.4447 162.351C55.8703 162.953 56.3056 163.573 56.7489 164.205C55.5814 164.25 53.9371 164.215 52.0289 164.132C51.5702 163.044 51.1254 161.979 50.7108 160.965C52.543 161.47 54.1583 161.937 55.4447 162.351ZM66.8549 168.279C67.3427 168.777 67.8331 169.281 68.3387 169.802C67.2623 170.032 65.6762 170.25 63.8012 170.459C63.1892 169.49 62.591 168.537 62.027 167.628C63.913 167.85 65.5628 168.067 66.8549 168.279ZM79.2543 172.506C79.7724 172.89 80.2976 173.281 80.8336 173.679C79.8193 174.052 78.2511 174.5 76.3843 174.992C75.6491 174.155 74.9239 173.328 74.2414 172.539C76.2173 172.486 77.9333 172.469 79.2543 172.506ZM91.8899 174.637C92.4427 174.931 93.0012 175.229 93.573 175.535C92.7041 176.047 91.2999 176.714 89.5912 177.468C88.7415 176.771 87.9024 176.081 87.1097 175.42C89.0013 175.071 90.638 174.798 91.8899 174.637ZM104.949 174.952C105.506 175.146 106.072 175.344 106.647 175.545C105.877 176.184 104.548 177.083 102.903 178.129C101.957 177.566 101.028 177.01 100.145 176.475C102.055 175.825 103.711 175.293 104.949 174.952ZM129.902 169.804C130.476 169.827 131.061 169.851 131.655 169.877C131.156 170.678 130.22 171.883 129.029 173.325C127.963 173.067 126.921 172.812 125.929 172.563C127.495 171.42 128.862 170.462 129.902 169.804ZM141.281 164.586C141.852 164.524 142.435 164.462 143.026 164.4C142.66 165.26 141.953 166.554 141.034 168.113C139.962 168.017 138.917 167.921 137.92 167.823C139.234 166.504 140.389 165.382 141.281 164.586ZM151.454 157.933C152.085 157.768 152.726 157.602 153.383 157.432C153.136 158.383 152.659 159.746 152.052 161.34C150.93 161.406 149.837 161.466 148.801 161.517C149.818 160.094 150.718 158.869 151.454 157.933ZM160.618 149.861C161.246 149.592 161.885 149.318 162.545 149.038C162.434 150.045 162.18 151.44 161.837 153.074C160.734 153.301 159.659 153.519 158.648 153.715C159.385 152.216 160.053 150.9 160.618 149.861ZM174.616 130.019C175.17 129.54 175.738 129.05 176.325 128.546C176.523 129.586 176.712 130.997 176.898 132.615C175.892 133.167 174.927 133.69 174.006 134.18C174.214 132.593 174.419 131.183 174.616 130.019ZM178.983 118.842C179.469 118.262 179.976 117.66 180.494 117.048C180.856 118.067 181.272 119.444 181.718 121.016C180.788 121.733 179.896 122.413 179.049 123.049C178.998 121.456 178.973 120.036 178.983 118.842ZM181.516 107.341C181.943 106.626 182.395 105.876 182.857 105.113C183.383 106.069 184 107.307 184.668 108.713C183.829 109.6 183.021 110.445 182.258 111.23C181.966 109.792 181.712 108.473 181.516 107.341ZM182.195 95.0582C182.499 94.2872 182.816 93.4913 183.147 92.6712C183.843 93.571 184.681 94.7464 185.6 96.0845C184.918 97.0964 184.254 98.072 183.626 98.9751C183.076 97.5282 182.587 96.1997 182.195 95.0582ZM180.838 83.018C181.008 82.1956 181.188 81.3463 181.376 80.4702C182.216 81.2547 183.241 82.2917 184.375 83.4787C183.867 84.5877 183.371 85.6607 182.9 86.6557C182.123 85.3208 181.413 84.0779 180.838 83.018ZM183.148 63.5975C182.715 65.1375 182.26 66.8087 181.803 68.4884C180.405 67.279 179.042 66.0937 177.742 64.9553C177.819 63.5356 177.898 62.0994 177.973 60.6757C179.654 61.6171 181.415 62.6162 183.148 63.5975ZM176.485 51.6635C176.318 53.242 176.154 54.9589 175.987 56.6906C174.384 55.687 172.809 54.6986 171.32 53.754C171.153 52.342 170.986 50.9162 170.818 49.5057C172.647 50.1938 174.589 50.9398 176.485 51.6635ZM167.917 40.8889C168.014 42.4571 168.135 44.1676 168.253 45.8993C166.457 45.13 164.691 44.3729 163.024 43.6503C162.637 42.3076 162.246 40.9542 161.858 39.6172C163.807 40.0158 165.885 40.4585 167.917 40.8889ZM157.527 31.4186C157.878 32.9339 158.279 34.5937 158.688 36.2785C156.766 35.7784 154.88 35.285 153.11 34.812C152.51 33.5617 151.905 32.3024 151.309 31.0604C153.295 31.1655 155.431 31.2951 157.527 31.4186ZM145.797 23.8062C146.379 25.2134 147.031 26.7473 147.697 28.308C145.705 28.106 143.754 27.9054 141.926 27.7078C141.152 26.5949 140.373 25.4763 139.603 24.3732C141.575 24.1814 143.704 23.9928 145.797 23.8062ZM132.913 17.9637C133.731 19.2756 134.634 20.6945 135.568 22.1554C133.535 22.2507 131.551 22.3421 129.695 22.4186C128.737 21.4344 127.78 20.4497 126.831 19.4755C128.751 18.9827 130.847 18.4691 132.913 17.9637ZM119.18 14.1754C120.207 15.3574 121.336 16.6354 122.503 17.9507C120.533 18.3398 118.615 18.715 116.818 19.0547C115.708 18.2131 114.597 17.371 113.496 16.5384C115.284 15.7802 117.241 14.9739 119.18 14.1754ZM105.139 12.4559C106.327 13.4515 107.628 14.521 108.973 15.6198C107.086 16.3039 105.254 16.9649 103.542 17.5704C102.331 16.9243 101.117 16.2782 99.9137 15.6384C101.547 14.6253 103.346 13.537 105.139 12.4559ZM91.0658 12.9947C92.393 13.7988 93.8485 14.6627 95.328 15.5396C93.6425 16.4659 92.0099 17.3558 90.4708 18.1844C89.1808 17.7245 87.8817 17.2616 86.5959 16.8058C87.9976 15.5938 89.5292 14.2949 91.0658 12.9947ZM77.2177 15.4491C78.6382 16.0386 80.183 16.6648 81.7538 17.2987C80.245 18.4534 78.7831 19.5669 77.4084 20.6019C76.0832 20.3413 74.7499 20.0787 73.4304 19.82C74.6118 18.4343 75.9092 16.9447 77.2177 15.4491ZM64.0553 19.8999C65.6015 20.2834 67.2776 20.6844 68.9729 21.0897C67.6837 22.4504 66.4346 23.7602 65.2493 24.9887C63.8496 24.9218 62.4387 24.8544 61.0406 24.7895C61.98 23.2378 63.0151 21.5698 64.0553 19.8999ZM51.9531 26.2278C53.4992 26.3675 55.16 26.5064 56.8304 26.6467C55.7871 28.171 54.769 29.6502 53.806 31.0314C52.4684 31.17 51.1186 31.3092 49.7795 31.4492C50.4553 29.7944 51.2055 28.0069 51.9531 26.2278ZM40.8248 34.1794C42.4055 34.0896 44.098 33.9845 45.7947 33.8817C45.01 35.5415 44.2443 37.1553 43.5148 38.667C42.202 39.0013 40.8743 39.3383 39.5562 39.6748C39.9473 37.9314 40.3882 36.0471 40.8248 34.1794ZM31.1926 43.7387C32.7512 43.4174 34.4106 43.0637 36.0742 42.7091C35.5878 44.4189 35.1112 46.0869 34.6525 47.6572C33.3842 48.1941 32.1004 48.7367 30.8253 49.2769C30.9303 47.5135 31.0616 45.6184 31.1926 43.7387ZM23.2203 54.5228C24.7373 53.9612 26.3511 53.3528 27.9638 52.7454C27.7663 54.4798 27.5714 56.18 27.3795 57.7805C26.1899 58.5092 24.9807 59.2467 23.7787 59.9812C23.5904 58.2368 23.4054 56.3701 23.2203 54.5228ZM16.9957 66.3588C18.4202 65.5695 19.925 64.7229 21.4325 63.8736C21.5222 65.5802 21.6079 67.2541 21.684 68.8437C20.605 69.7644 19.5119 70.6966 18.4219 71.6274C17.953 69.9352 17.4722 68.1341 16.9957 66.3588ZM12.8532 78.9331C14.141 77.9353 15.4993 76.8726 16.8601 75.8092C17.2306 77.5099 17.5911 79.1793 17.927 80.7655C17.0096 81.8317 16.0797 82.9118 15.1524 83.9897C14.4048 82.3639 13.6229 80.6324 12.8532 78.9331ZM10.7516 91.996C11.8957 90.7933 13.1045 89.5083 14.3151 88.2266C14.9713 89.8741 15.6139 91.4958 16.2192 93.0425C15.466 94.2743 14.6991 95.5246 13.9379 96.7709C12.9016 95.2306 11.8142 93.5928 10.7516 91.996ZM10.9092 105.387C11.8252 104.042 12.7952 102.596 13.7652 101.157C14.6883 102.689 15.5947 104.196 16.4513 105.635C15.9192 106.955 15.3763 108.295 14.8388 109.627C13.5621 108.261 12.2205 106.806 10.9092 105.387ZM13.1863 118.641C13.8688 117.18 14.5915 115.604 15.3154 114.031C16.5093 115.452 17.674 116.844 18.7807 118.18C18.4739 119.554 18.1616 120.948 17.8537 122.331C16.3364 121.138 14.7489 119.877 13.1863 118.641ZM17.8053 131.374C18.2309 129.848 18.6772 128.197 19.1262 126.543C20.5301 127.758 21.9022 128.949 23.2079 130.092C23.1346 131.486 23.0573 132.898 22.9826 134.297C21.2998 133.355 19.538 132.356 17.8053 131.374ZM24.3794 143.372C24.5576 141.774 24.7359 140.038 24.9157 138.29C26.5141 139.286 28.0852 140.268 29.5734 141.208C29.7336 142.634 29.894 144.077 30.0542 145.505C28.2208 144.825 26.2764 144.088 24.3794 143.372ZM33.0166 154.229C32.9269 152.659 32.8121 150.951 32.6932 149.221C34.4632 149.977 36.2002 150.722 37.8399 151.434C38.2297 152.79 38.6207 154.158 39.009 155.51C37.0816 155.106 35.0269 154.66 33.0166 154.229ZM43.2745 163.63C42.925 162.091 42.5243 160.409 42.1179 158.703C44.0097 159.19 45.8694 159.671 47.6213 160.134C48.2362 161.424 48.8551 162.724 49.4686 164.005C47.4832 163.895 45.3566 163.761 43.2745 163.63ZM55.0452 171.295C54.4509 169.853 53.7822 168.274 53.1025 166.671C55.0992 166.874 57.0582 167.076 58.8905 167.274C59.6905 168.424 60.4961 169.581 61.2904 170.721C59.3051 170.916 57.1564 171.106 55.0452 171.295ZM67.9644 177.088C67.1548 175.772 66.2606 174.35 65.3336 172.884C67.3192 172.793 69.2618 172.709 71.0842 172.641C72.0418 173.635 73.0005 174.629 73.9542 175.615C72.0543 176.092 69.9942 176.592 67.9644 177.088ZM81.5271 180.857C80.5226 179.693 79.4255 178.442 78.2924 177.158C80.2557 176.758 82.1709 176.371 83.963 176.02C85.0615 176.842 86.1598 177.664 87.2512 178.478C85.4498 179.242 83.4769 180.053 81.5271 180.857ZM95.7343 182.52C94.5502 181.532 93.2593 180.471 91.928 179.381C93.7583 178.719 95.5398 178.081 97.2129 177.492C98.4161 178.142 99.62 178.79 100.816 179.434C99.217 180.419 97.4694 181.473 95.7343 182.52ZM109.72 182.189C108.398 181.388 106.95 180.529 105.477 179.655C107.237 178.694 108.938 177.771 110.537 176.915C111.813 177.367 113.095 177.82 114.365 178.266C112.913 179.512 111.317 180.85 109.72 182.189ZM123.61 179.656C122.161 179.062 120.583 178.429 118.978 177.785C120.533 176.598 122.039 175.455 123.458 174.392C124.794 174.656 126.14 174.922 127.47 175.183C126.264 176.601 124.939 178.127 123.61 179.656ZM136.699 175.177C135.191 174.806 133.565 174.415 131.92 174.02C133.238 172.638 134.517 171.306 135.723 170.063C137.062 170.126 138.412 170.191 139.75 170.254C138.798 171.814 137.751 173.494 136.699 175.177ZM149.031 168.833C147.449 168.68 145.746 168.529 144.028 168.378C145.076 166.85 146.099 165.368 147.064 163.984C148.432 163.844 149.812 163.706 151.181 163.567C150.515 165.234 149.773 167.037 149.031 168.833ZM160.051 160.869C158.474 160.953 156.782 161.055 155.084 161.159C155.858 159.519 156.613 157.925 157.331 156.429C158.655 156.094 159.994 155.758 161.324 155.423C160.934 157.152 160.491 159.018 160.051 160.869ZM169.719 151.433C168.146 151.755 166.467 152.108 164.785 152.461C165.274 150.742 165.757 149.063 166.219 147.487C167.496 146.95 168.789 146.407 170.076 145.866C169.971 147.639 169.844 149.545 169.719 151.433ZM177.709 140.639C176.211 141.19 174.62 141.785 173.028 142.38C173.229 140.607 173.428 138.869 173.626 137.234C174.796 136.515 175.984 135.787 177.164 135.063C177.347 136.845 177.527 138.754 177.709 140.639ZM183.822 128.803C182.407 129.575 180.912 130.402 179.412 131.231C179.323 129.473 179.237 127.749 179.167 126.12C180.229 125.216 181.304 124.304 182.376 123.392C182.847 125.126 183.336 126.979 183.822 128.803ZM188.06 116.106C186.754 117.109 185.372 118.185 183.986 119.262C183.604 117.539 183.233 115.845 182.888 114.237C183.822 113.147 184.768 112.044 185.712 110.943C186.475 112.6 187.276 114.37 188.06 116.106ZM190.155 102.89C189.025 104.079 187.827 105.358 186.626 106.636C185.989 105.033 185.364 103.457 184.776 101.953C185.527 100.717 186.29 99.4657 187.047 98.2186C188.059 99.7235 189.116 101.324 190.155 102.89ZM187.144 93.7861C186.23 92.2667 185.339 90.782 184.49 89.3569C185.032 88.0252 185.583 86.675 186.129 85.3353C187.389 86.6839 188.714 88.1219 190.013 89.5252C189.095 90.8714 188.12 92.3296 187.144 93.7861Z" fill="#2D72A2"/>
<path d="M33.8148 86.4738L32.6944 80.8724L29.5394 82.9758L31.6427 79.8206L26.0413 78.7004L31.6427 77.5801L29.5393 74.425L32.6945 76.5283L33.8148 70.9269L34.935 76.5282L38.0902 74.425L35.9868 77.5801L41.5882 78.7004L35.9868 79.8206L38.0902 82.9758L34.935 80.8724L33.8148 86.4738Z" fill="#EEEEEE"/>
<path d="M37.1465 136.606L36.0261 131.005L32.871 133.108L34.9744 129.953L29.3729 128.833L34.9744 127.712L32.8709 124.557L36.0262 126.661L37.1465 121.059L38.2667 126.661L41.4219 124.557L39.3184 127.712L44.9199 128.833L39.3184 129.953L41.4219 133.108L38.2667 131.005L37.1465 136.606Z" fill="#EEEEEE"/>
<path d="M30.4834 114.211L28.883 106.685L24.3756 109.511L27.3806 105.272L19.3784 103.767L27.3806 102.261L24.3755 98.0221L28.883 100.848L30.4834 93.3223L32.0838 100.848L36.5912 98.0221L33.5862 102.261L41.5884 103.767L33.5862 105.272L36.5912 109.511L32.0838 106.685L30.4834 114.211Z" fill="#EEEEEE"/>
<path d="M167.074 86.4738L168.195 80.8724L171.35 82.9758L169.247 79.8206L174.848 78.7004L169.247 77.5801L171.35 74.425L168.195 76.5283L167.074 70.9269L165.954 76.5282L162.799 74.425L164.903 77.5801L159.301 78.7004L164.903 79.8206L162.799 82.9758L165.954 80.8724L167.074 86.4738Z" fill="#EEEEEE"/>
<path d="M163.743 136.606L164.863 131.005L168.018 133.108L165.915 129.953L171.516 128.833L165.915 127.712L168.018 124.557L164.863 126.661L163.743 121.059L162.623 126.661L159.468 124.557L161.571 127.712L155.97 128.833L161.571 129.953L159.468 133.108L162.623 131.005L163.743 136.606Z" fill="#EEEEEE"/>
<path d="M170.406 114.211L172.006 106.685L176.514 109.511L173.509 105.272L181.511 103.767L173.509 102.261L176.514 98.0221L172.006 100.848L170.406 93.3223L168.806 100.848L164.298 98.0221L167.303 102.261L159.301 103.767L167.303 105.272L164.298 109.511L168.806 106.685L170.406 114.211Z" fill="#EEEEEE"/>
<path d="M102.222 34.7641C129.502 34.7641 156.786 39.2708 156.786 39.2708V106.395C156.786 106.395 153.377 152.438 102.222 170.19C51.0714 152.438 47.661 106.395 47.661 106.395V39.2708C47.661 39.2708 74.9415 34.7641 102.222 34.7641Z" fill="url(#paint0_linear_425_113)"/>
<path d="M102.193 166.229L101.105 165.812C58.9069 149.608 55.5862 107.113 55.5572 106.686L55.5497 106.456V44.4874L58.158 44.0107C59.0569 43.8461 80.4238 39.9864 102.192 39.9864C123.963 39.9864 145.331 43.8461 146.229 44.0107L148.837 44.4874L148.83 106.685C148.802 107.113 145.482 149.608 103.28 165.811L102.193 166.229ZM61.853 106.328C62.0597 108.95 65.5443 144.466 102.192 159.203C138.827 144.475 142.322 108.994 142.534 106.328V50.0576C136.158 49.0331 119.072 46.5706 102.192 46.5706C85.2989 46.5706 68.227 49.0331 61.853 50.0576V106.328Z" fill="url(#paint1_linear_425_113)"/>
<path d="M100.192 100.257C100.615 100.704 102.381 102.152 105.369 102.152C108.239 102.152 109.97 100.84 110.477 100.325C110.284 99.8215 110.261 99.0973 110.702 98.0463H110.684C113.568 95.7141 115.773 91.96 115.773 88.2635C115.773 82.5803 110.961 79.6014 105.371 79.6014C99.7759 79.6014 94.9922 82.5789 94.9922 88.2635C94.9922 91.9747 97.1829 95.7448 100.084 98.0717C100.554 99.0397 100.469 99.7439 100.192 100.257Z" fill="#F2C94C"/>
<path d="M111.517 101.761C111.517 101.761 110.06 108.539 108.15 112.406C107.473 109.469 106.199 106.762 106.199 106.762C106.199 106.762 107.829 106.087 107.829 104.987C107.829 103.629 105.718 102.955 105.718 102.955C105.718 102.955 103.6 103.432 103.6 104.987C103.6 106.04 105.237 106.762 105.237 106.762C105.237 106.762 103.961 109.482 103.285 112.403C101.362 108.519 99.8894 101.696 99.8894 101.696L99.8995 101.686C95.1368 103.47 89.733 106.589 89.733 109.675V110.86C89.733 115.169 98.0584 116.149 105.764 116.149C113.482 116.149 121.703 115.169 121.703 110.86C121.703 110.013 121.703 110.529 121.703 109.675C121.703 106.544 116.435 103.493 111.517 101.761Z" fill="#F2C94C"/>
<path d="M125.134 68.8698H82.0089C78.2922 68.8698 75.2708 72.0098 75.2708 75.8711V129.083C75.2708 132.946 78.2922 136.085 82.0089 136.085H83.3568V133.285H82.0089C79.78 133.285 77.966 131.4 77.966 129.083C77.966 126.768 79.78 124.883 82.0089 124.883H88.7475V136.085L95.486 129.083L102.223 136.085V124.883H126.482V131.884C126.482 132.655 125.874 133.285 125.134 133.285H107.614V136.085H125.134C127.363 136.085 129.176 134.201 129.176 131.884V73.0713C129.176 70.7548 127.363 68.8698 125.134 68.8698ZM77.966 123.485V75.8711C77.966 73.5558 79.78 71.6708 82.0089 71.6708H86.0521V122.082H82.0089C80.4942 122.082 79.0927 122.606 77.966 123.485ZM126.482 122.082H88.7475V71.6708H125.134C125.874 71.6708 126.482 72.3008 126.482 73.0713V122.082Z" fill="#F2C94C"/>
<path d="M136.959 66.3212C136.959 66.1435 136.712 65.9995 136.407 65.9995C136.102 65.9995 135.854 66.1435 135.854 66.3212V72.6467C135.854 72.8244 136.102 72.9684 136.407 72.9684C136.712 72.9684 136.959 72.8244 136.959 72.6467V66.3212Z" fill="#F2C94C"/>
<path opacity="0.4" d="M136.315 66.2141H136.223C136.172 66.2141 136.131 66.2381 136.131 66.2677V72.7004C136.131 72.7301 136.172 72.7541 136.223 72.7541H136.315C136.366 72.7541 136.407 72.7301 136.407 72.7004V66.2677C136.407 66.2381 136.366 66.2141 136.315 66.2141Z" fill="#F2C94C"/>
<path d="M136.407 73.5582C137.322 73.5582 138.063 73.3422 138.063 73.0757C138.063 72.8093 137.322 72.5933 136.407 72.5933C135.492 72.5933 134.75 72.8093 134.75 73.0757C134.75 73.3422 135.492 73.5582 136.407 73.5582Z" fill="#F2C94C"/>
<path d="M137.695 73.0757H135.118C134.915 73.0757 134.75 73.1717 134.75 73.2902V74.0407C134.75 74.1591 134.915 74.2551 135.118 74.2551H137.695C137.898 74.2551 138.063 74.1591 138.063 74.0407V73.2902C138.063 73.1717 137.898 73.0757 137.695 73.0757Z" fill="#F2C94C"/>
<path d="M136.407 74.7375C137.322 74.7375 138.063 74.5215 138.063 74.255C138.063 73.9886 137.322 73.7726 136.407 73.7726C135.492 73.7726 134.75 73.9886 134.75 74.255C134.75 74.5215 135.492 74.7375 136.407 74.7375Z" fill="#F2C94C"/>
<path d="M136.407 73.5582C137.322 73.5582 138.063 73.3422 138.063 73.0757C138.063 72.8093 137.322 72.5933 136.407 72.5933C135.492 72.5933 134.75 72.8093 134.75 73.0757C134.75 73.3422 135.492 73.5582 136.407 73.5582Z" fill="#F2C94C"/>
<path opacity="0.45" d="M136.039 73.2893C136.445 73.2893 136.775 73.1935 136.775 73.0753C136.775 72.9571 136.445 72.8613 136.039 72.8613C135.632 72.8613 135.302 72.9571 135.302 73.0753C135.302 73.1935 135.632 73.2893 136.039 73.2893Z" fill="#F2C94C"/>
<path d="M134.198 74.2551H138.616L141.009 84.2259H131.805L134.198 74.2551Z" fill="#F2C94C"/>
<path opacity="0.6" d="M134.198 74.2551H135.118L133.094 84.2259H131.805L134.198 74.2551Z" fill="#F2C94C"/>
<path opacity="0.25" d="M137.695 74.2551H138.615L141.008 84.2259H139.72L137.695 74.2551Z" fill="#F2C94C"/>
<path opacity="0.15" d="M135.947 74.2551H136.867L137.143 84.2259H135.671L135.947 74.2551Z" fill="#F2C94C"/>
<path d="M140.456 83.9042H132.357C132.053 83.9042 131.805 84.0482 131.805 84.2259C131.805 84.4035 132.053 84.5475 132.357 84.5475H140.456C140.761 84.5475 141.009 84.4035 141.009 84.2259C141.009 84.0482 140.761 83.9042 140.456 83.9042Z" fill="#F2C94C"/>
<path opacity="0.5" d="M140.088 84.0113H132.726C132.624 84.0113 132.542 84.0591 132.542 84.1181C132.542 84.1771 132.624 84.2249 132.726 84.2249H140.088C140.19 84.2249 140.272 84.1771 140.272 84.1181C140.272 84.0591 140.19 84.0113 140.088 84.0113Z" fill="#F2C94C"/>
<path d="M105.233 51.9724L68.697 62.0772L84.4946 66.2715L84.4976 66.2287L85.256 65.9125C91.9985 63.1077 98.6633 61.6965 105.215 61.6643C111.766 61.6292 118.204 62.9776 124.487 65.683C124.868 65.8461 125.234 66.0073 125.472 66.0941L141.622 61.6275L105.233 51.9724Z" fill="#F2C94C"/>
<defs>
<linearGradient id="paint0_linear_425_113" x1="47.664" y1="34.7641" x2="47.664" y2="170.19" gradientUnits="userSpaceOnUse">
<stop offset="0.3" stop-color="#005493"/>
<stop offset="1" stop-color="#001B54"/>
</linearGradient>
<linearGradient id="paint1_linear_425_113" x1="55.5509" y1="39.9812" x2="55.5509" y2="166.223" gradientUnits="userSpaceOnUse">
<stop offset="0.3" stop-color="#EEEEEE"/>
<stop offset="1" stop-color="#DEDEDE"/>
</linearGradient>
</defs>
</svg>
